<svg width="500" height="500" viewBox="0 0 500 500" fill="none" xmlns="http://www.w3.org/2000/svg">
<rect width="500" height="500" fill="white"/>
<path d="M119.763 172.7C106.116 190.384 97.7162 211.607 95.5353 233.91L78.746 231.439C81.3707 206.011 91.0716 181.851 106.728 161.75L119.763 172.7Z" stroke="#808080" stroke-linecap="round" stroke-linejoin="round"/>
<path d="M266.656 370.734C243.08 381.023 217.086 384.316 191.721 380.228C166.355 376.14 142.672 364.839 123.446 347.652L134.701 334.844C151.516 349.862 172.224 359.736 194.4 363.308C216.576 366.88 239.302 364.002 259.915 355.013L266.656 370.734Z" stroke="#808080" stroke-linecap="round" stroke-linejoin="round"/>
<path d="M212.971 245.735V109.533C177.565 109.489 143.569 123.525 118.35 148.599L129.892 161.182L134.764 166.476L143.284 175.731L204.183 241.857L207.759 245.762L208.233 246.276L209.851 248.026L210.405 248.631L211.299 249.533L212.649 251.003L210.361 251.679L173.224 336.513C163.928 332.37 155.329 326.792 147.736 319.979L206.829 252.717L201.287 254.349L120.049 278.288L108.016 281.833L101.141 283.854L84.8252 288.661C92.3304 311.411 105.652 331.76 123.446 347.652L134.693 334.844C151.507 349.862 172.215 359.736 194.391 363.308C216.567 366.88 239.293 364.002 259.906 355.013L257.09 348.383L252.119 336.792C243.042 340.772 233.416 343.333 223.574 344.387L212.971 245.735ZM212.971 245.735L202.404 147.083C185.233 148.925 168.853 155.328 154.933 165.638L212.971 245.735Z" stroke="#808080" stroke-linecap="round" stroke-linejoin="round"/>
<path d="M125.234 177.337C112.433 193.983 104.583 213.956 102.598 234.929L95.5353 233.91C97.7195 211.613 106.12 190.397 119.763 172.718L125.234 177.337Z" stroke="#808080" stroke-linecap="round" stroke-linejoin="round"/>
<path d="M206.838 252.717L208.832 250.444L210.182 248.91L210.45 248.604L212.971 245.735H207.804H206.409H176.594H114.631" stroke="#808080" stroke-linecap="round" stroke-linejoin="round"/>
<path d="M102.115 245.735H94.9632H68.1432" stroke="#808080" stroke-linecap="round" stroke-linejoin="round"/>
<path d="M123.437 347.652L108.373 364.799" stroke="#808080" stroke-linecap="round" stroke-linejoin="round"/>
<path d="M134.693 334.844L139.44 329.441L147.745 319.979" stroke="#808080" stroke-linecap="round" stroke-linejoin="round"/>
<path d="M330.979 245.735C330.986 268.959 324.261 291.677 311.633 311.093C299.005 330.51 281.025 345.776 259.906 355.013L257.054 348.383C274.621 340.704 289.917 328.566 301.454 313.151C312.99 297.736 320.373 279.57 322.884 260.421C325.394 241.272 322.947 221.793 315.78 203.882C308.614 185.971 296.971 170.237 281.988 158.214L286.458 152.559C300.357 163.702 311.581 177.87 319.29 194.005C326.999 210.14 330.995 227.823 330.979 245.735Z" stroke="#808080" stroke-linecap="round" stroke-linejoin="round"/>
<path d="M281.988 158.214L274.192 168.136C267.63 162.846 260.418 158.432 252.736 155.003L257.796 143.439C266.453 147.301 274.583 152.266 281.988 158.214Z" stroke="#808080" stroke-linecap="round" stroke-linejoin="round"/>
<path d="M286.449 152.559L310.417 122.161H337.237" stroke="#808080" stroke-linecap="round" stroke-linejoin="round"/>
<path d="M274.192 168.091L212.971 245.735" stroke="#808080" stroke-linecap="round" stroke-linejoin="round"/>
<path d="M204.389 165.62L202.404 147.083C185.233 148.925 168.853 155.328 154.933 165.638L165.839 180.692C177.146 172.323 190.446 167.123 204.389 165.62Z" stroke="#808080" stroke-linecap="round" stroke-linejoin="round"/>
<path d="M221.866 328.791L223.574 344.387C233.416 343.333 243.042 340.772 252.119 336.792L245.861 322.18C238.254 325.633 230.158 327.864 221.866 328.791Z" stroke="#808080" stroke-linecap="round" stroke-linejoin="round"/>
<path d="M223.574 344.387C206.412 346.245 189.066 343.53 173.269 336.512L210.405 251.679L206.874 252.717L147.781 319.979C137.369 310.674 129.036 299.243 123.333 286.444C117.631 273.644 114.689 259.768 114.703 245.735C114.703 242.704 114.837 239.701 115.114 236.715C116.769 218.062 123.646 200.269 134.943 185.409C137.543 181.984 140.363 178.733 143.382 175.677C146.988 172.019 150.874 168.653 155.004 165.611L213.043 245.708L223.574 344.387Z" stroke="#808080" stroke-linecap="round" stroke-linejoin="round"/>
<path d="M260.353 137.495L257.77 143.394" stroke="#808080" stroke-linecap="round" stroke-linejoin="round"/>
<path d="M252.709 154.958L212.971 245.735" stroke="#808080" stroke-linecap="round" stroke-linejoin="round"/>
<path d="M200.366 128.096L201.054 134.528L202.404 147.083" stroke="#808080" stroke-linecap="round" stroke-linejoin="round"/>
<path d="M212.971 245.735L105.691 197.929" stroke="#808080" stroke-linecap="round" stroke-linejoin="round"/>
<path d="M115.194 256.397L102.75 257.759C102.326 253.765 102.114 249.752 102.115 245.735H114.631C114.629 249.297 114.817 252.856 115.194 256.397Z" stroke="#808080" stroke-linecap="round" stroke-linejoin="round"/>
<path d="M102.75 257.759L96.3757 258.453" stroke="#808080" stroke-linecap="round" stroke-linejoin="round"/>
<path d="M212.971 245.735L118.297 315.568" stroke="#808080" stroke-linecap="round" stroke-linejoin="round"/>
<path d="M165.589 353.975L168.173 348.076L173.233 336.512" stroke="#808080" stroke-linecap="round" stroke-linejoin="round"/>
<path d="M210.37 251.679L210.781 250.732L211.201 249.776L211.308 249.533L212.971 245.735" stroke="#808080" stroke-linecap="round" stroke-linejoin="round"/>
<path d="M226.488 379.339L224.888 356.943L223.538 344.387" stroke="#808080" stroke-linecap="round" stroke-linejoin="round"/>
<path d="M282.185 341.257L278.394 336.034L271.01 325.833" stroke="#808080" stroke-linecap="round" stroke-linejoin="round"/>
<path d="M212.971 245.735L320.251 293.541" stroke="#808080" stroke-linecap="round" stroke-linejoin="round"/>
<path d="M212.971 245.735L329.567 233.017" stroke="#808080" stroke-linecap="round" stroke-linejoin="round"/>
<path d="M307.646 175.902L302.469 179.727" stroke="#808080" stroke-linecap="round" stroke-linejoin="round"/>
<path d="M292.358 187.177L212.971 245.735" stroke="#808080" stroke-linecap="round" stroke-linejoin="round"/>
<path d="M212.971 170.851C201.993 181.17 173.894 191.597 141.129 213.705C141.129 213.705 143.177 288.436 212.971 329.287V170.851Z" fill="#407BFF" stroke="#263238" stroke-linecap="round" stroke-linejoin="round"/>
<path d="M212.971 170.851C223.95 181.17 252.048 191.597 284.813 213.705C284.813 213.705 282.766 288.436 212.971 329.287V170.851Z" fill="#263238" stroke="#263238" stroke-linecap="round" stroke-linejoin="round"/>
<path d="M212.971 177.21C199.722 186.492 176.755 195.331 146.395 215.825C146.395 215.825 148.299 285.071 212.971 322.919C277.643 285.071 279.538 215.87 279.538 215.87C249.187 195.331 226.328 186.492 212.971 177.21Z" fill="#263238" stroke="#263238" stroke-linecap="round" stroke-linejoin="round"/>
<path d="M279.538 215.87C249.142 195.377 226.328 186.537 212.971 177.255V322.919C277.643 285.071 279.538 215.87 279.538 215.87Z" fill="#407BFF" stroke="#263238" stroke-linecap="round" stroke-linejoin="round"/>
<path d="M238.191 247.025H188.574C188.039 247.031 187.507 246.931 187.01 246.729C186.514 246.528 186.061 246.23 185.678 245.852C185.295 245.475 184.99 245.024 184.78 244.528C184.57 244.031 184.458 243.497 184.453 242.957V219.875C184.453 204.117 197.425 191.29 213.382 191.29C229.34 191.29 242.348 204.144 242.348 219.875V242.93C242.345 243.475 242.234 244.014 242.023 244.516C241.811 245.018 241.503 245.472 241.117 245.853C240.73 246.234 240.272 246.534 239.77 246.735C239.268 246.936 238.731 247.035 238.191 247.025ZM192.695 238.907H234.07V219.875C233.911 214.445 231.662 209.292 227.8 205.508C223.938 201.724 218.766 199.607 213.382 199.607C207.999 199.607 202.827 201.724 198.965 205.508C195.102 209.292 192.853 214.445 192.695 219.875V238.907Z" fill="white" stroke="#263238" stroke-linecap="round" stroke-linejoin="round"/>
<path d="M244.556 235.903H181.386V288.625H244.556V235.903Z" fill="white" stroke="#263238" stroke-linecap="round" stroke-linejoin="round"/>
<path d="M219.542 257.795C219.478 255.997 218.725 254.295 217.442 253.046C216.159 251.798 214.445 251.1 212.663 251.1C210.88 251.1 209.167 251.798 207.884 253.046C206.601 254.295 205.848 255.997 205.783 257.795C205.785 259.025 206.119 260.232 206.749 261.286C207.379 262.34 208.281 263.2 209.359 263.775L208.206 275.754H217.048L215.895 263.775C216.986 263.21 217.903 262.353 218.546 261.299C219.189 260.245 219.534 259.033 219.542 257.795Z" fill="#263238" stroke="#263238" stroke-linecap="round" stroke-linejoin="round"/>
<path d="M369.046 133.292H386.988V122.161H376.573L375.518 119.446H369.046V133.292Z" fill="#407BFF" stroke="#263238" stroke-miterlimit="10"/>
<path d="M369.046 151.278H386.988V140.156H376.573L375.518 137.432H369.046V151.278Z" fill="#407BFF" stroke="#263238" stroke-miterlimit="10"/>
<path d="M369.046 169.273H386.988V158.142H376.573L375.518 155.418H369.046V169.273Z" fill="#263238" stroke="#263238" stroke-miterlimit="10"/>
<path d="M369.046 282.122H386.988V270.991H376.573L375.518 268.276H369.046V282.122Z" fill="#407BFF" stroke="#263238" stroke-miterlimit="10"/>
<path d="M369.046 300.108H386.988V288.986H376.573L375.518 286.262H369.046V300.108Z" fill="#407BFF" stroke="#263238" stroke-miterlimit="10"/>
<path d="M369.046 318.103H386.988V306.972H376.573L375.518 304.257H369.046V318.103Z" fill="#263238" stroke="#263238" stroke-miterlimit="10"/>
<path d="M369.046 337.144H386.988V326.013H376.573L375.518 323.298H369.046V337.144Z" fill="#407BFF" stroke="#263238" stroke-miterlimit="10"/>
<path d="M369.046 355.13H386.988V344.008H376.573L375.518 341.284H369.046V355.13Z" fill="#407BFF" stroke="#263238" stroke-miterlimit="10"/>
<path d="M369.046 373.125H386.988V361.994H376.573L375.518 359.279H369.046V373.125Z" fill="#263238" stroke="#263238" stroke-miterlimit="10"/>
<path d="M342.378 222.653C342.248 220.851 342.248 219.043 342.378 217.241" stroke="#263238" stroke-linecap="round" stroke-linejoin="round"/>
<path d="M348.198 222.184C348.09 220.662 348.09 219.133 348.198 217.611" stroke="#263238" stroke-linecap="round" stroke-linejoin="round"/>
<path d="M342.261 219.956L348.099 219.911" stroke="#263238" stroke-linecap="round" stroke-linejoin="round"/>
<path d="M342.387 216.537C342.541 214.738 342.815 212.951 343.209 211.189" stroke="#263238" stroke-linecap="round" stroke-linejoin="round"/>
<path d="M348.207 217.025C348.34 215.507 348.573 214.001 348.904 212.515" stroke="#263238" stroke-linecap="round" stroke-linejoin="round"/>
<path d="M342.708 213.85L348.475 214.752" stroke="#263238" stroke-linecap="round" stroke-linejoin="round"/>
<path d="M343.37 210.503C343.797 208.746 344.356 207.024 345.042 205.353" stroke="#263238" stroke-linecap="round" stroke-linejoin="round"/>
<path d="M349.038 211.928C349.402 210.447 349.871 208.994 350.442 207.581" stroke="#263238" stroke-linecap="round" stroke-linejoin="round"/>
<path d="M344.112 207.896L349.664 209.727" stroke="#263238" stroke-linecap="round" stroke-linejoin="round"/>
<path d="M345.31 204.703C346.018 203.043 346.842 201.437 347.777 199.896" stroke="#263238" stroke-linecap="round" stroke-linejoin="round"/>
<path d="M350.674 207.03C351.273 205.63 351.969 204.274 352.757 202.971" stroke="#263238" stroke-linecap="round" stroke-linejoin="round"/>
<path d="M346.454 202.259L351.64 204.965" stroke="#263238" stroke-linecap="round" stroke-linejoin="round"/>
<path d="M348.144 199.3C348.618 198.534 349.127 197.794 349.673 197.072L351.353 194.971" stroke="#263238" stroke-linecap="round" stroke-linejoin="round"/>
<path d="M353.07 202.466C353.47 201.816 353.903 201.187 354.366 200.581L355.788 198.777" stroke="#263238" stroke-linecap="round" stroke-linejoin="round"/>
<path d="M349.673 197.072L354.366 200.581" stroke="#263238" stroke-linecap="round" stroke-linejoin="round"/>
<path d="M351.792 194.42C352.399 193.762 353.043 193.131 353.669 192.481C353.991 192.165 354.286 191.832 354.625 191.579L355.654 190.677" stroke="#263238" stroke-linecap="round" stroke-linejoin="round"/>
<path d="M356.154 198.335L357.745 196.703C358.014 196.432 358.264 196.143 358.55 195.891L359.444 195.169" stroke="#263238" stroke-linecap="round" stroke-linejoin="round"/>
<path d="M353.669 192.481L357.746 196.703" stroke="#263238" stroke-linecap="round" stroke-linejoin="round"/>
<path d="M356.199 190.217C356.87 189.618 357.584 189.069 358.336 188.576C359.078 188.079 359.811 187.556 360.571 187.078" stroke="#263238" stroke-linecap="round" stroke-linejoin="round"/>
<path d="M359.882 194.781C360.443 194.276 361.041 193.815 361.67 193.401C362.305 192.986 362.922 192.499 363.557 192.138" stroke="#263238" stroke-linecap="round" stroke-linejoin="round"/>
<path d="M358.336 188.576L361.679 193.401" stroke="#263238" stroke-linecap="round" stroke-linejoin="round"/>
<path d="M361.187 186.744L363.548 185.455C364.361 185.085 365.193 184.751 366.015 184.399" stroke="#263238" stroke-linecap="round" stroke-linejoin="round"/>
<path d="M364.093 191.85L366.087 190.767L368.17 189.874" stroke="#263238" stroke-linecap="round" stroke-linejoin="round"/>
<path d="M363.548 185.455L366.087 190.767" stroke="#263238" stroke-linecap="round" stroke-linejoin="round"/>
<path d="M366.668 184.12C367.49 183.786 368.366 183.569 369.216 183.281L370.494 182.884L371.808 182.604" stroke="#263238" stroke-linecap="round" stroke-linejoin="round"/>
<path d="M368.715 189.64C369.421 189.351 370.154 189.171 370.869 188.936L371.96 188.594L373.069 188.359" stroke="#263238" stroke-linecap="round" stroke-linejoin="round"/>
<path d="M369.216 183.281L370.869 188.936" stroke="#263238" stroke-linecap="round" stroke-linejoin="round"/>
<path d="M372.497 182.496C373.365 182.291 374.246 182.143 375.134 182.054C376.028 181.964 376.922 181.838 377.816 181.783" stroke="#263238" stroke-linecap="round" stroke-linejoin="round"/>
<path d="M373.65 188.242C374.384 188.056 375.131 187.93 375.885 187.863C376.636 187.791 377.387 187.674 378.138 187.628" stroke="#263238" stroke-linecap="round" stroke-linejoin="round"/>
<path d="M375.134 182.018L375.885 187.863" stroke="#263238" stroke-linecap="round" stroke-linejoin="round"/>
<path d="M378.504 181.729L381.186 181.693L383.868 181.91" stroke="#263238" stroke-linecap="round" stroke-linejoin="round"/>
<path d="M378.728 187.619L380.998 187.583L383.26 187.773" stroke="#263238" stroke-linecap="round" stroke-linejoin="round"/>
<path d="M381.186 181.693L380.998 187.583" stroke="#263238" stroke-linecap="round" stroke-linejoin="round"/>
<path d="M384.566 181.964C385.46 182.072 386.354 182.271 387.248 182.424C387.686 182.505 388.142 182.577 388.562 182.667L389.858 183.037" stroke="#263238" stroke-linecap="round" stroke-linejoin="round"/>
<path d="M383.85 187.818C384.601 187.908 385.343 188.079 386.085 188.206C386.452 188.269 386.827 188.332 387.203 188.413L388.285 188.72" stroke="#263238" stroke-linecap="round" stroke-linejoin="round"/>
<path d="M387.212 182.424L386.085 188.206" stroke="#263238" stroke-linecap="round" stroke-linejoin="round"/>
<path d="M390.493 183.236C392.214 183.733 393.899 184.351 395.535 185.085" stroke="#263238" stroke-linecap="round" stroke-linejoin="round"/>
<path d="M388.857 188.891C390.307 189.314 391.729 189.832 393.112 190.443" stroke="#263238" stroke-linecap="round" stroke-linejoin="round"/>
<path d="M393.041 184.075L391.011 189.604" stroke="#263238" stroke-linecap="round" stroke-linejoin="round"/>
<path d="M396.161 185.409L398.548 186.645C399.325 187.087 400.059 187.61 400.81 188.097" stroke="#263238" stroke-linecap="round" stroke-linejoin="round"/>
<path d="M393.64 190.722L395.66 191.769C396.313 192.138 396.93 192.589 397.573 192.995" stroke="#263238" stroke-linecap="round" stroke-linejoin="round"/>
<path d="M398.548 186.645L395.66 191.769" stroke="#263238" stroke-linecap="round" stroke-linejoin="round"/>
<path d="M401.4 188.476C402.142 188.979 402.855 189.524 403.536 190.109C404.25 190.653 404.931 191.241 405.575 191.868" stroke="#263238" stroke-linecap="round" stroke-linejoin="round"/>
<path d="M398.065 193.32C398.689 193.742 399.286 194.203 399.853 194.7C400.463 195.157 401.042 195.654 401.587 196.188" stroke="#263238" stroke-linecap="round" stroke-linejoin="round"/>
<path d="M403.536 190.109L399.871 194.7" stroke="#263238" stroke-linecap="round" stroke-linejoin="round"/>
<path d="M406.075 192.364C406.701 193.004 407.371 193.609 407.962 194.285L409.669 196.378" stroke="#263238" stroke-linecap="round" stroke-linejoin="round"/>
<path d="M402.025 196.603C402.553 197.154 403.125 197.659 403.617 198.227L405.065 200.031" stroke="#263238" stroke-linecap="round" stroke-linejoin="round"/>
<path d="M407.962 194.285L403.617 198.227" stroke="#263238" stroke-linecap="round" stroke-linejoin="round"/>
<path d="M410.116 196.928C411.17 198.391 412.129 199.922 412.986 201.51" stroke="#263238" stroke-linecap="round" stroke-linejoin="round"/>
<path d="M405.44 200.446C406.325 201.683 407.132 202.975 407.854 204.315" stroke="#263238" stroke-linecap="round" stroke-linejoin="round"/>
<path d="M411.618 199.165L406.71 202.349" stroke="#263238" stroke-linecap="round" stroke-linejoin="round"/>
<path d="M413.317 202.124L413.942 203.314L414.47 204.568C414.801 205.398 415.194 206.219 415.462 207.076" stroke="#263238" stroke-linecap="round" stroke-linejoin="round"/>
<path d="M408.131 204.839L408.668 205.849L409.106 206.904C409.383 207.617 409.732 208.302 410 209.024" stroke="#263238" stroke-linecap="round" stroke-linejoin="round"/>
<path d="M414.47 204.568L409.106 206.904" stroke="#263238" stroke-linecap="round" stroke-linejoin="round"/>
<path d="M415.677 207.752C415.936 208.654 416.222 209.466 416.446 210.341L417 212.993" stroke="#263238" stroke-linecap="round" stroke-linejoin="round"/>
<path d="M410.125 209.601C410.34 210.332 410.59 211.053 410.787 211.793L411.251 214.03" stroke="#263238" stroke-linecap="round" stroke-linejoin="round"/>
<path d="M416.446 210.341L410.787 211.793" stroke="#263238" stroke-linecap="round" stroke-linejoin="round"/>
<path d="M417.143 213.687C417.399 215.48 417.542 217.288 417.572 219.099" stroke="#263238" stroke-linecap="round" stroke-linejoin="round"/>
<path d="M411.377 214.616C411.583 216.111 411.703 217.617 411.734 219.126" stroke="#263238" stroke-linecap="round" stroke-linejoin="round"/>
<path d="M417.438 216.375L411.618 216.889" stroke="#263238" stroke-linecap="round" stroke-linejoin="round"/>
<path d="M417.572 219.785C417.572 220.236 417.572 220.687 417.572 221.138L417.465 222.482C417.375 223.384 417.366 224.286 417.197 225.188" stroke="#263238" stroke-linecap="round" stroke-linejoin="round"/>
<path d="M411.743 219.776C411.743 220.155 411.743 220.533 411.743 220.912L411.654 222.058C411.617 222.819 411.539 223.578 411.421 224.331" stroke="#263238" stroke-linecap="round" stroke-linejoin="round"/>
<path d="M417.474 222.482L411.654 222.058" stroke="#263238" stroke-linecap="round" stroke-linejoin="round"/>
<path d="M417.08 225.873C416.91 226.775 416.785 227.677 416.58 228.534L415.847 231.141" stroke="#263238" stroke-linecap="round" stroke-linejoin="round"/>
<path d="M411.314 224.89C411.162 225.639 411.064 226.396 410.885 227.136L410.268 229.337" stroke="#263238" stroke-linecap="round" stroke-linejoin="round"/>
<path d="M416.58 228.534L410.894 227.163" stroke="#263238" stroke-linecap="round" stroke-linejoin="round"/>
<path d="M415.65 231.817C415.057 233.523 414.353 235.186 413.54 236.796" stroke="#263238" stroke-linecap="round" stroke-linejoin="round"/>
<path d="M410.116 229.941C409.609 231.376 409.012 232.777 408.328 234.136" stroke="#263238" stroke-linecap="round" stroke-linejoin="round"/>
<path d="M414.675 234.343L409.285 232.07" stroke="#263238" stroke-linecap="round" stroke-linejoin="round"/>
<path d="M413.218 237.428L412.601 238.627C412.378 239.015 412.119 239.385 411.886 239.773L410.42 242.028" stroke="#263238" stroke-linecap="round" stroke-linejoin="round"/>
<path d="M408.06 234.668L407.541 235.687C407.354 236.021 407.13 236.327 406.933 236.652L405.691 238.573" stroke="#263238" stroke-linecap="round" stroke-linejoin="round"/>
<path d="M411.886 239.773L406.933 236.652" stroke="#263238" stroke-linecap="round" stroke-linejoin="round"/>
<path d="M409.982 242.587L408.292 244.734C407.729 245.438 407.059 246.042 406.442 246.691" stroke="#263238" stroke-linecap="round" stroke-linejoin="round"/>
<path d="M405.315 239.033L403.894 240.837C403.42 241.433 402.848 241.938 402.329 242.488" stroke="#263238" stroke-linecap="round" stroke-linejoin="round"/>
<path d="M408.292 244.689L403.894 240.819" stroke="#263238" stroke-linecap="round" stroke-linejoin="round"/>
<path d="M405.95 247.151C405.318 247.795 404.646 248.398 403.938 248.955C403.266 249.551 402.558 250.105 401.82 250.615" stroke="#263238" stroke-linecap="round" stroke-linejoin="round"/>
<path d="M401.909 242.93C401.379 243.475 400.812 243.982 400.211 244.445C399.645 244.952 399.047 245.422 398.423 245.852" stroke="#263238" stroke-linecap="round" stroke-linejoin="round"/>
<path d="M403.939 248.946L400.211 244.409" stroke="#263238" stroke-linecap="round" stroke-linejoin="round"/>
<path d="M401.248 251.048C400.488 251.535 399.781 252.094 398.986 252.518L396.626 253.754" stroke="#263238" stroke-linecap="round" stroke-linejoin="round"/>
<path d="M397.904 246.141C397.26 246.556 396.67 247.043 396 247.386L394.006 248.477" stroke="#263238" stroke-linecap="round" stroke-linejoin="round"/>
<path d="M398.986 252.473L396.036 247.386" stroke="#263238" stroke-linecap="round" stroke-linejoin="round"/>
<path d="M396 254.07C394.374 254.825 392.698 255.467 390.984 255.991" stroke="#263238" stroke-linecap="round" stroke-linejoin="round"/>
<path d="M393.514 248.739C392.139 249.373 390.723 249.915 389.277 250.362" stroke="#263238" stroke-linecap="round" stroke-linejoin="round"/>
<path d="M393.523 255.125L391.422 249.623" stroke="#263238" stroke-linecap="round" stroke-linejoin="round"/>
<path d="M390.314 256.198C389.462 256.474 388.593 256.691 387.712 256.848C386.828 257.055 385.932 257.212 385.03 257.317" stroke="#263238" stroke-linecap="round" stroke-linejoin="round"/>
<path d="M388.705 250.534C387.986 250.769 387.251 250.95 386.506 251.075C385.773 251.259 385.029 251.395 384.279 251.481" stroke="#263238" stroke-linecap="round" stroke-linejoin="round"/>
<path d="M387.712 256.848L386.505 251.075" stroke="#263238" stroke-linecap="round" stroke-linejoin="round"/>
<path d="M384.378 257.362C383.484 257.443 382.59 257.615 381.696 257.606H379.014" stroke="#263238" stroke-linecap="round" stroke-linejoin="round"/>
<path d="M383.689 251.544C382.94 251.654 382.185 251.723 381.428 251.752H379.157" stroke="#263238" stroke-linecap="round" stroke-linejoin="round"/>
<path d="M381.705 257.642L381.428 251.752" stroke="#263238" stroke-linecap="round" stroke-linejoin="round"/>
<path d="M378.325 257.66C376.525 257.575 374.732 257.361 372.961 257.019" stroke="#263238" stroke-linecap="round" stroke-linejoin="round"/>
<path d="M378.567 251.77C377.066 251.692 375.573 251.511 374.097 251.228" stroke="#263238" stroke-linecap="round" stroke-linejoin="round"/>
<path d="M375.652 257.443L376.305 251.589" stroke="#263238" stroke-linecap="round" stroke-linejoin="round"/>
<path d="M372.309 256.893C371.429 256.731 370.56 256.514 369.707 256.244C368.838 256.026 367.984 255.752 367.15 255.423" stroke="#263238" stroke-linecap="round" stroke-linejoin="round"/>
<path d="M373.489 251.12C372.745 250.986 372.01 250.802 371.29 250.57C370.558 250.387 369.839 250.158 369.135 249.884" stroke="#263238" stroke-linecap="round" stroke-linejoin="round"/>
<path d="M369.707 256.244L371.29 250.57" stroke="#263238" stroke-linecap="round" stroke-linejoin="round"/>
<path d="M366.498 255.17C365.666 254.818 364.808 254.539 364.012 254.133L361.625 252.852" stroke="#263238" stroke-linecap="round" stroke-linejoin="round"/>
<path d="M368.581 249.668C367.884 249.37 367.159 249.145 366.489 248.766L364.477 247.72" stroke="#263238" stroke-linecap="round" stroke-linejoin="round"/>
<path d="M364.012 254.133L366.489 248.793" stroke="#263238" stroke-linecap="round" stroke-linejoin="round"/>
<path d="M361.009 252.563C359.525 251.553 357.969 250.66 356.539 249.506" stroke="#263238" stroke-linecap="round" stroke-linejoin="round"/>
<path d="M363.932 247.44C362.68 246.538 361.348 245.834 360.186 244.86" stroke="#263238" stroke-linecap="round" stroke-linejoin="round"/>
<path d="M358.756 251.084L362.046 246.213" stroke="#263238" stroke-linecap="round" stroke-linejoin="round"/>
<path d="M356.038 249.073C354.651 247.927 353.349 246.682 352.14 245.347" stroke="#263238" stroke-linecap="round" stroke-linejoin="round"/>
<path d="M359.739 244.518C358.572 243.546 357.473 242.494 356.449 241.37" stroke="#263238" stroke-linecap="round" stroke-linejoin="round"/>
<path d="M354.026 247.278L358.041 242.993" stroke="#263238" stroke-linecap="round" stroke-linejoin="round"/>
<path d="M351.666 244.833C350.489 243.472 349.405 242.031 348.421 240.522" stroke="#263238" stroke-linecap="round" stroke-linejoin="round"/>
<path d="M356.047 240.928C355.05 239.791 354.133 238.585 353.302 237.32" stroke="#263238" stroke-linecap="round" stroke-linejoin="round"/>
<path d="M349.968 242.732L354.617 239.16" stroke="#263238" stroke-linecap="round" stroke-linejoin="round"/>
<path d="M348.037 239.926C347.086 238.394 346.244 236.797 345.516 235.146" stroke="#263238" stroke-linecap="round" stroke-linejoin="round"/>
<path d="M352.981 236.796C352.179 235.501 351.468 234.151 350.853 232.755" stroke="#263238" stroke-linecap="round" stroke-linejoin="round"/>
<path d="M346.696 237.581L351.854 234.812" stroke="#263238" stroke-linecap="round" stroke-linejoin="round"/>
<path d="M345.23 234.505C344.543 232.836 343.969 231.121 343.513 229.373" stroke="#263238" stroke-linecap="round" stroke-linejoin="round"/>
<path d="M350.611 232.214C350.031 230.803 349.548 229.353 349.163 227.876" stroke="#263238" stroke-linecap="round" stroke-linejoin="round"/>
<path d="M344.291 231.971L349.816 230.068" stroke="#263238" stroke-linecap="round" stroke-linejoin="round"/>
<path d="M343.37 228.696C342.951 226.939 342.653 225.155 342.476 223.357" stroke="#263238" stroke-linecap="round" stroke-linejoin="round"/>
<path d="M349.011 227.298C348.66 225.813 348.406 224.307 348.251 222.788" stroke="#263238" stroke-linecap="round" stroke-linejoin="round"/>
<path d="M342.798 226.045L348.555 225.052" stroke="#263238" stroke-linecap="round" stroke-linejoin="round"/>
<path d="M380.203 196.703C383.432 196.743 386.617 197.475 389.544 198.851C392.472 200.227 395.077 202.215 397.186 204.683C399.295 207.151 400.86 210.043 401.778 213.168C402.695 216.292 402.944 219.578 402.508 222.806" stroke="#263238" stroke-width="2" stroke-miterlimit="10"/>
<path d="M358.666 211.432C360.34 207.054 363.299 203.297 367.148 200.665C370.998 198.032 375.553 196.649 380.203 196.703" stroke="#407BFF" stroke-width="5" stroke-miterlimit="10"/>
<path d="M384.038 242.299C380.057 243.033 375.954 242.685 372.15 241.29C368.347 239.895 364.98 237.503 362.396 234.359C359.813 231.216 358.105 227.436 357.45 223.406C356.794 219.377 357.214 215.244 358.666 211.432" stroke="#263238" stroke-width="2" stroke-miterlimit="10"/>
<path d="M402.508 222.806C401.855 227.603 399.718 232.07 396.401 235.57C393.085 239.07 388.758 241.425 384.038 242.299" stroke="#407BFF" stroke-width="5" stroke-miterlimit="10"/>
<path d="M190.121 356.943H208.063V345.812H197.648L196.593 343.088H190.121V356.943Z" fill="#407BFF" stroke="#263238" stroke-miterlimit="10"/>
<path d="M190.121 374.929H208.063V363.798H197.648L196.593 361.083H190.121V374.929Z" fill="#407BFF" stroke="#263238" stroke-miterlimit="10"/>
<path d="M190.121 392.915H208.063V381.784H197.648L196.593 379.069H190.121V392.915Z" fill="#263238" stroke="#263238" stroke-miterlimit="10"/>
<path d="M218.729 356.943H236.671V345.812H226.256L225.201 343.088H218.729V356.943Z" fill="#407BFF" stroke="#263238" stroke-miterlimit="10"/>
<path d="M218.729 374.929H236.671V363.798H226.256L225.201 361.083H218.729V374.929Z" fill="#263238" stroke="#263238" stroke-miterlimit="10"/>
<path d="M218.729 392.915H236.671V381.784H226.256L225.201 379.069H218.729V392.915Z" fill="#407BFF" stroke="#263238" stroke-miterlimit="10"/>
<path d="M190.121 130.541H208.063V119.41H197.648L196.593 116.686H190.121V130.541Z" fill="#407BFF" stroke="#263238" stroke-miterlimit="10"/>
<path d="M190.121 148.527H208.063V137.396H197.648L196.593 134.681H190.121V148.527Z" fill="#407BFF" stroke="#263238" stroke-miterlimit="10"/>
<path d="M190.121 166.513H208.063V155.382H197.648L196.593 152.667H190.121V166.513Z" fill="#407BFF" stroke="#263238" stroke-miterlimit="10"/>
<path d="M218.729 130.541H236.671V119.41H226.256L225.201 116.686H218.729V130.541Z" fill="#263238" stroke="#263238" stroke-miterlimit="10"/>
<path d="M218.729 148.527H236.671V137.396H226.256L225.201 134.681H218.729V148.527Z" fill="#407BFF" stroke="#263238" stroke-miterlimit="10"/>
<path d="M218.729 166.513H236.671V155.382H226.256L225.201 152.667H218.729V166.513Z" fill="#263238" stroke="#263238" stroke-miterlimit="10"/>
<path d="M319.295 449.587C346.45 449.587 368.465 446.155 368.465 441.92C368.465 437.686 346.45 434.253 319.295 434.253C292.139 434.253 270.125 437.686 270.125 441.92C270.125 446.155 292.139 449.587 319.295 449.587Z" fill="#263238"/>
<path d="M310.158 431.376C310.158 431.376 300.771 437.464 295.63 438.592C290.49 439.719 288.925 441.298 293.172 443.327C297.418 445.357 310.381 446.033 316.416 444.68C322.45 443.327 324.685 445.131 325.356 442.425C325.853 439.885 325.776 437.265 325.132 434.758C324.685 432.729 313.734 429.572 310.158 431.376Z" fill="white" stroke="#263238" stroke-linecap="round" stroke-linejoin="round"/>
<path d="M297.865 309.606C297.865 309.606 298.983 327.195 302.112 340.95C305.241 354.706 306.805 373.197 308.37 383.344C309.934 393.492 311.052 410.179 311.275 417.62C311.499 425.062 311.946 427.317 311.499 427.993C311.052 428.67 309.934 428.895 309.934 429.797C309.934 430.699 309.711 432.729 309.711 432.729C309.711 432.729 311.722 434.533 317.086 436.562C322.45 438.592 326.026 439.719 326.026 439.719C327.635 438.161 328.661 436.09 328.932 433.856C329.602 429.797 327.591 425.062 327.591 422.356C327.591 419.65 333.402 395.972 331.39 386.276C329.379 376.579 325.356 365.53 325.356 359.667C325.356 353.804 327.591 336.44 327.591 336.44C327.591 336.44 333.402 326.744 333.625 319.753C333.764 315.618 333.689 311.478 333.402 307.351C333.402 307.351 307.029 311.184 297.865 309.606Z" fill="#263238" stroke="#263238" stroke-linecap="round" stroke-linejoin="round"/>
<path d="M302.47 246.818C300.432 252.423 299.327 258.329 299.197 264.298C299.197 273.363 297.892 292.991 296.578 301.56C295.264 310.129 294.298 310.634 296.578 311.951C298.858 313.268 305.572 314.756 315.54 314.098C325.508 313.439 336.102 310.138 336.629 308.686C337.157 307.234 336.79 305.222 336.298 303.274C335.807 301.325 338.086 280.516 333.196 263.207C328.306 245.898 324.855 237.148 322.567 234.839L320.278 232.53L302.47 246.818Z" fill="#407BFF" stroke="#263238" stroke-linecap="round" stroke-linejoin="round"/>
<path d="M287.102 202.944C287.102 202.944 286.78 209.051 287.593 211.198C288.407 213.344 288.738 215.807 287.924 217.458C287.111 219.108 285.466 221.066 286.61 222.076C287.365 222.714 288.186 223.267 289.06 223.726C289.06 223.726 292.332 229.662 293.968 232.963C295.604 236.264 296.417 237.085 298.053 236.427C299.243 235.917 300.391 235.314 301.486 234.623C301.486 234.623 306.063 239.899 306.716 241.216C307.303 242.189 308.082 243.031 309.005 243.688L320.126 231.475C318.207 229.319 316.858 226.71 316.201 223.889C315.057 219.108 314.735 218.477 315.88 216.303C317.024 214.129 319.313 213.994 317.998 208.717C316.684 203.44 318.49 201.79 313.752 198.497C309.014 195.205 300.02 194.7 297.41 194.7C295.307 194.642 293.242 195.275 291.527 196.504C290.204 197.505 287.102 202.944 287.102 202.944Z" fill="white" stroke="#263238" stroke-linecap="round" stroke-linejoin="round"/>
<path d="M297.722 190.749C297.722 190.749 285.957 194.538 284.312 196.026C282.667 197.514 286.771 206.579 286.771 206.579L294.942 201.79L291.518 205.948C291.518 205.948 289.73 206.435 296.095 206.11C302.461 205.786 305.572 203.467 305.572 203.467C305.572 203.467 301.486 208.086 301.817 209.403C302.148 210.72 304.427 212.866 305.08 213.859C305.733 214.851 306.716 213.534 306.716 213.534C306.716 213.534 307.699 217.656 308.021 216.664C308.332 215.194 308.55 213.706 308.674 212.208C308.674 212.208 310.149 208.916 312.25 209.736C314.351 210.557 315.513 215.834 314.038 218.314C313.115 219.807 311.648 220.873 309.952 221.282C309.952 221.282 313.385 225.07 314.36 224.25C315.334 223.429 315.674 221.778 316.327 220.948C316.979 220.118 325.15 213.038 326.161 207.923C327.171 202.809 319.786 190.443 314.065 189.288C308.343 188.133 297.722 190.749 297.722 190.749Z" fill="#263238" stroke="#263238" stroke-linecap="round" stroke-linejoin="round"/>
<path d="M287.987 212.082L289.319 217.494C289.382 217.781 289.534 218.04 289.752 218.235C289.971 218.429 290.245 218.549 290.535 218.576C292.028 218.711 294.754 218.847 295.112 218.134C295.604 217.151 294.951 210.72 294.129 209.727C293.127 208.51 290.848 209.484 289.739 210.016C289.29 210.268 288.857 210.548 288.443 210.855C288.258 210.994 288.117 211.183 288.036 211.401C287.955 211.618 287.938 211.855 287.987 212.082Z" fill="white" stroke="#263238" stroke-linecap="round" stroke-linejoin="round"/>
<path d="M295.273 212.343L308.844 211.026L295.335 213.831L295.273 212.343Z" fill="#263238" stroke="#263238" stroke-linecap="round" stroke-linejoin="round"/>
<path d="M309.166 221.282C309.166 221.282 311.132 227.055 309.818 228.696C308.504 230.338 304.266 232.99 304.266 232.99" fill="white"/>
<path d="M309.166 221.282C309.166 221.282 311.132 227.055 309.818 228.696C308.504 230.338 304.266 232.99 304.266 232.99" stroke="#263238" stroke-linecap="round" stroke-linejoin="round"/>
<path d="M320.126 228.182C320.126 228.182 299.206 247.476 299.698 247.972C300.19 248.468 303.918 254.196 303.918 254.196C306.777 249.892 309.86 245.743 313.153 241.766C316.6 238.09 320.238 234.601 324.051 231.312L320.126 228.182Z" fill="#263238" stroke="#263238" stroke-linecap="round" stroke-linejoin="round"/>
<path d="M270.956 279.957C270.956 279.957 265.074 279.957 263.929 281.283C262.785 282.609 265.887 283.917 267.031 284.079C268.463 284.073 269.89 283.909 271.287 283.592L270.956 279.957Z" fill="white" stroke="#263238" stroke-linecap="round" stroke-linejoin="round"/>
<path d="M273.54 278.478C273.54 278.478 270.92 277.486 270.268 279.632C269.615 281.779 271.251 288.201 272.225 288.373C273.2 288.544 273.701 287.877 273.701 285.901C273.701 283.926 273.54 278.478 273.54 278.478Z" fill="white" stroke="#263238" stroke-linecap="round" stroke-linejoin="round"/>
<path d="M278.108 278.108C278.108 278.108 274.675 276.133 273.361 277.612C272.047 279.091 273.531 287.841 273.531 287.841C274.505 288.337 276.141 282.564 277.616 280.751C278.283 279.981 278.881 279.154 279.404 278.279L278.108 278.108Z" fill="white" stroke="#263238" stroke-linecap="round" stroke-linejoin="round"/>
<path d="M299.358 278.315C299.358 278.315 290.865 286.226 289.39 286.226C287.915 286.226 281.872 279.136 280.406 278.315C278.939 277.495 276.973 282.104 276.481 283.592C276.11 285.215 275.892 286.87 275.828 288.535C275.927 288.668 276.058 288.772 276.208 288.839C276.359 288.906 276.524 288.932 276.687 288.916C276.851 288.899 277.007 288.841 277.142 288.746C277.276 288.651 277.384 288.522 277.455 288.373C278.475 286.619 279.404 284.813 280.236 282.961L281.219 284.287" fill="white"/>
<path d="M299.358 278.315C299.358 278.315 290.865 286.226 289.39 286.226C287.915 286.226 281.872 279.136 280.406 278.315C278.939 277.495 276.973 282.104 276.481 283.592C276.11 285.215 275.892 286.87 275.828 288.535C275.927 288.668 276.058 288.772 276.208 288.839C276.359 288.906 276.524 288.932 276.687 288.916C276.851 288.899 277.007 288.841 277.142 288.746C277.276 288.651 277.384 288.522 277.455 288.373C278.475 286.619 279.404 284.813 280.236 282.961L281.219 284.287" stroke="#263238" stroke-linecap="round" stroke-linejoin="round"/>
<path d="M285.796 283.917C285.796 283.917 280.727 284.747 279.914 286.226C279.1 287.705 278.931 287.877 280.727 288.03C282.524 288.183 286.78 288.688 287.432 287.868C288.085 287.047 286.449 284.079 285.796 283.917Z" fill="white" stroke="#263238" stroke-linecap="round" stroke-linejoin="round"/>
<path d="M256.375 293.974L236.108 249.289L248.526 249.948L266.021 291.836L256.375 293.974Z" fill="#7D7D7D" stroke="#263238" stroke-linecap="round" stroke-linejoin="round"/>
<path d="M264.877 288.697L255.883 292.657H305.08L298.384 288.373L264.877 288.697Z" fill="#7D7D7D" stroke="#263238" stroke-linecap="round" stroke-linejoin="round"/>
<path d="M318.159 246.484C318.159 246.484 311.946 247.638 310.963 253.249C309.979 258.859 312.751 280.309 312.751 280.787V284.747C312.751 285.73 316.675 285.405 321.252 287.543C325.83 289.681 328.61 293.153 328.61 290.511C328.61 287.868 327.957 256.235 327.957 256.235" fill="#407BFF"/>
<path d="M318.159 246.484C318.159 246.484 311.946 247.638 310.963 253.249C309.979 258.859 312.751 280.309 312.751 280.787V284.747C312.751 285.73 316.675 285.405 321.252 287.543C325.83 289.681 328.61 293.153 328.61 290.511C328.61 287.868 327.957 256.235 327.957 256.235" stroke="#263238" stroke-linecap="round" stroke-linejoin="round"/>
<path d="M328.288 268.908L330.908 259.842" stroke="#263238" stroke-linecap="round" stroke-linejoin="round"/>
<path d="M309.657 282.104L310.471 289.194C310.471 289.194 328.288 299.747 328.78 299.422C329.272 299.098 329.763 298.096 329.763 296.455C329.763 294.813 332.374 286.226 329.272 284.251C326.169 282.275 314.762 281.942 314.762 281.942C314.762 281.942 311.454 281.283 309.657 282.104Z" fill="#263238" stroke="#263238" stroke-linecap="round" stroke-linejoin="round"/>
<path d="M311.785 288.869C311.785 288.869 294.951 294.966 283.999 295.625C273.048 296.283 271.743 295.625 271.743 295.625C271.743 295.625 270.759 291.665 269.123 290.682C267.487 289.699 262.257 290.51 261.274 289.852C260.291 289.194 260.3 287.056 259.647 286.388C258.994 285.721 256.071 286.064 256.071 286.064C256.071 286.064 254.605 286.884 254.605 288.039C254.605 289.194 253.621 296.617 254.927 297.275C256.232 297.934 273.236 301.235 279.61 301.235C285.984 301.235 304.785 303.039 314.422 301.56C324.06 300.081 327.662 298.926 327.341 296.283C327.019 293.64 314.887 288.201 311.785 288.869Z" fill="white" stroke="#263238" stroke-linecap="round" stroke-linejoin="round"/>
<path d="M255.231 287.056L255.561 295.787" stroke="#263238" stroke-linecap="round" stroke-linejoin="round"/>
<path d="M257.85 286.226L258.333 294.804" stroke="#263238" stroke-linecap="round" stroke-linejoin="round"/>
<path d="M261.274 289.834C261.274 289.834 260.621 291.818 261.766 292.639C262.91 293.46 267.326 294.128 267.326 294.128" fill="white"/>
<path d="M261.274 289.834C261.274 289.834 260.621 291.818 261.766 292.639C262.91 293.46 267.326 294.128 267.326 294.128" stroke="#263238" stroke-linecap="round" stroke-linejoin="round"/>
<path d="M309.988 265.615H302.139V278.64H309.988V265.615Z" fill="white" stroke="#263238" stroke-linecap="round" stroke-linejoin="round"/>
</svg>
