<svg width="500" height="500" viewBox="0 0 500 500" fill="none" xmlns="http://www.w3.org/2000/svg">
<g clip-path="url(#clip0_1_2)">
<rect width="500" height="500" fill="white"/>
<path d="M449.901 442.494H416.779V442.744H449.901V442.494Z" fill="#EBEBEB"/>
<path d="M331.22 445.208H322.527V445.458H331.22V445.208Z" fill="#EBEBEB"/>
<path d="M415.778 433.208H396.586V433.458H415.778V433.208Z" fill="#EBEBEB"/>
<path d="M95.652 434.888H52.459V435.138H95.652V434.888Z" fill="#EBEBEB"/>
<path d="M110.889 434.888H104.556V435.138H110.889V434.888Z" fill="#EBEBEB"/>
<path d="M225.147 439.111H131.471V439.361H225.147V439.111Z" fill="#EBEBEB"/>
<path d="M237.014 381.8H43.915C40.768 381.8 38.207 379.239 38.207 376.092V104.66C38.207 101.513 40.768 98.952 43.915 98.952H237.014C240.16 98.952 242.721 101.513 242.721 104.66V376.092C242.721 379.239 240.16 381.8 237.014 381.8ZM43.915 99.203C40.905 99.203 38.457 101.651 38.457 104.661V376.093C38.457 379.103 40.905 381.551 43.915 381.551H237.014C240.023 381.551 242.471 379.103 242.471 376.093V104.66C242.471 101.651 240.023 99.202 237.014 99.202L43.915 99.203Z" fill="#EBEBEB"/>
<path d="M453.31 381.8H260.212C257.065 381.8 254.505 379.239 254.505 376.092V104.66C254.505 101.513 257.066 98.952 260.212 98.952H453.31C456.458 98.952 459.018 101.513 459.018 104.66V376.092C459.019 379.239 456.458 381.8 453.31 381.8ZM260.212 99.203C257.203 99.203 254.755 101.651 254.755 104.661V376.093C254.755 379.103 257.203 381.551 260.212 381.551H453.31C456.32 381.551 458.768 379.103 458.768 376.093V104.66C458.768 101.651 456.32 99.202 453.31 99.202L260.212 99.203Z" fill="#EBEBEB"/>
<path d="M500 426.398H0V426.648H500V426.398Z" fill="#EBEBEB"/>
<path d="M250.592 409.952C319.212 409.952 374.84 354.324 374.84 285.704C374.84 217.084 319.212 161.456 250.592 161.456C181.972 161.456 126.344 217.084 126.344 285.704C126.344 354.324 181.972 409.952 250.592 409.952Z" fill="#F0F0F0"/>
<path d="M250.945 412.721C180.897 412.721 123.904 355.728 123.904 285.677C123.904 215.623 180.897 158.631 250.945 158.631V164.222C183.976 164.222 129.495 218.706 129.495 285.677C129.495 352.646 183.977 407.13 250.945 407.13V412.721Z" fill="white"/>
<path d="M250.945 412.721V407.13C317.913 407.13 372.399 352.646 372.399 285.677C372.399 218.706 317.912 164.222 250.945 164.222V158.631C320.999 158.631 377.991 215.624 377.991 285.677C377.99 355.728 320.998 412.721 250.945 412.721Z" fill="white"/>
<path d="M315.865 285.705H310.274C310.274 244.527 289.378 189.435 249.437 163.81L252.451 159.104C294.085 185.812 315.865 243.009 315.865 285.705Z" fill="white"/>
<path d="M252.451 408.514L249.437 403.807C289.378 378.183 310.274 323.09 310.274 281.913H315.865C315.865 324.608 294.085 381.806 252.451 408.514Z" fill="white"/>
<path d="M191.62 285.677H186.029C186.029 242.982 207.809 185.787 249.432 159.073L252.457 163.78C212.516 189.407 191.62 244.502 191.62 285.677Z" fill="white"/>
<path d="M249.432 408.487C207.809 381.773 186.029 324.578 186.029 281.886H191.62C191.62 323.06 212.516 378.154 252.457 403.781L249.432 408.487Z" fill="white"/>
<path d="M253.74 161.426H248.149V409.925H253.74V161.426Z" fill="white"/>
<path d="M356.118 216.697H145.777V222.288H356.118V216.697Z" fill="white"/>
<path d="M375.141 284.997H126.754V290.589H375.141V284.997Z" fill="white"/>
<path d="M353.338 353.241H148.556V358.832H353.338V353.241Z" fill="white"/>
<path d="M397.119 373.901C401.399 369.488 408.472 369.379 412.886 373.659C417.3 377.939 417.408 385.013 413.128 389.426C408.847 393.84 401.774 393.948 397.36 389.668C392.946 385.388 392.839 378.314 397.119 373.901ZM408.874 385.301C410.88 383.233 410.829 379.919 408.761 377.913C406.693 375.907 403.379 375.958 401.373 378.026C399.367 380.094 399.418 383.409 401.486 385.414C403.554 387.42 406.868 387.369 408.874 385.301Z" fill="#F0F0F0"/>
<path d="M411.065 384.244L408.119 387.282L427.661 406.234L430.607 403.196L411.065 384.244Z" fill="#F0F0F0"/>
<path d="M429.564 402.45L424.032 408.155L427.07 411.101L432.602 405.397L429.564 402.45Z" fill="#F0F0F0"/>
<path d="M425.287 399.041L420.085 404.403L423.123 407.35L428.324 401.987L425.287 399.041Z" fill="#F0F0F0"/>
<path d="M419.11 394.393L414.57 399.075L417.607 402.021L422.148 397.34L419.11 394.393Z" fill="#F0F0F0"/>
<path d="M48.739 137.315C47.635 137.315 46.739 136.419 46.739 135.315C46.739 118.838 60.144 105.433 76.621 105.433C77.725 105.433 78.621 106.329 78.621 107.433C78.621 108.537 77.725 109.433 76.621 109.433C62.35 109.433 50.739 121.043 50.739 135.315C50.739 136.42 49.843 137.315 48.739 137.315Z" fill="#F0F0F0"/>
<path d="M61.008 135.277C59.904 135.277 59.008 134.381 59.008 133.277C59.008 123.422 67.026 115.404 76.881 115.404C77.985 115.404 78.881 116.3 78.881 117.404C78.881 118.508 77.985 119.404 76.881 119.404C69.232 119.404 63.008 125.627 63.008 133.277C63.008 134.381 62.112 135.277 61.008 135.277Z" fill="#F0F0F0"/>
<path d="M71.323 135.894C70.219 135.894 69.323 134.998 69.323 133.894C69.323 128.415 73.781 123.958 79.26 123.958C80.364 123.958 81.26 124.854 81.26 125.958C81.26 127.062 80.364 127.958 79.26 127.958C75.987 127.958 73.323 130.621 73.323 133.894C73.323 134.998 72.427 135.894 71.323 135.894Z" fill="#F0F0F0"/>
<path d="M95.104 374.201L96.467 397.477C96.063 405.059 83.155 411.958 83.155 411.958C83.155 411.958 69.412 406.922 67.957 399.47L66.052 376.231L79.967 370.547L95.104 374.201Z" fill="#EBEBEB"/>
<path d="M446.129 114.837L446.965 124.392C447.041 125.253 446.403 126.012 445.542 126.088C444.681 126.163 443.922 125.526 443.847 124.665L443.011 115.11C442.741 112.024 440.011 109.732 436.925 110.002L433.507 110.301C430.421 110.571 428.131 113.303 428.401 116.388L429.152 124.978L426.034 125.251L425.283 116.661C424.862 111.855 428.431 107.602 433.235 107.182L436.653 106.883C441.456 106.463 445.708 110.031 446.129 114.837Z" fill="#F0F0F0"/>
<g opacity="0.5">
<path d="M446.129 114.837L446.965 124.392C447.041 125.253 446.403 126.012 445.542 126.088C444.681 126.163 443.922 125.526 443.847 124.665L443.011 115.11C442.741 112.024 440.011 109.732 436.925 110.002L433.507 110.301C430.421 110.571 428.131 113.303 428.401 116.388L429.152 124.978L426.034 125.251L425.283 116.661C424.862 111.855 428.431 107.602 433.235 107.182L436.653 106.883C441.456 106.463 445.708 110.031 446.129 114.837Z" fill="#F0F0F0"/>
</g>
<path d="M447.965 123.952L449.594 142.568C449.697 143.746 448.828 144.782 447.649 144.885L429.033 146.514C427.856 146.617 426.818 145.748 426.716 144.569L425.087 125.953C425.02 125.192 425.362 124.489 425.929 124.06C426.239 123.825 426.616 123.672 427.032 123.635L445.648 122.006C446.052 121.971 446.438 122.051 446.775 122.215C447.426 122.536 447.897 123.177 447.965 123.952Z" fill="#F0F0F0"/>
<path d="M250 471.016C357.082 471.016 443.889 465.947 443.889 459.693C443.889 453.439 357.082 448.37 250 448.37C142.918 448.37 56.111 453.439 56.111 459.693C56.111 465.947 142.918 471.016 250 471.016Z" fill="#F5F5F5"/>
<mask id="mask0_1_2" style="mask-type:luminance" maskUnits="userSpaceOnUse" x="38" y="257" width="84" height="84">
<path d="M112.41 340.618H47.139C42.206 340.618 38.207 336.619 38.207 331.686V266.414C38.207 261.481 42.206 257.482 47.139 257.482H112.411C117.344 257.482 121.343 261.481 121.343 266.414V331.686C121.342 336.619 117.343 340.618 112.41 340.618Z" fill="white"/>
</mask>
<g mask="url(#mask0_1_2)">
<path d="M84.151 306.201H74.435V325.938H84.151V306.201Z" fill="#407BFF"/>
<path d="M84.151 306.201H74.435V325.938H84.151V306.201Z" fill="#407BFF"/>
<path d="M88.537 326.292H70.131L74.62 322.339H84.048L88.537 326.292Z" fill="#407BFF"/>
<path d="M88.537 326.292H70.131L74.62 322.339H84.048L88.537 326.292Z" fill="#407BFF"/>
<path opacity="0.2" d="M84.151 313.817H74.377V317.802H84.151V313.817Z" fill="black"/>
<path d="M46.546 272.7H112.631C113.323 272.7 113.885 273.261 113.885 273.954V314.478C113.885 315.17 113.324 315.732 112.631 315.732H46.546C45.854 315.732 45.292 315.171 45.292 314.478V273.954C45.292 273.261 45.853 272.7 46.546 272.7Z" fill="#407BFF"/>
<path opacity="0.3" d="M46.546 272.7H112.631C113.323 272.7 113.885 273.261 113.885 273.954V314.478C113.885 315.17 113.324 315.732 112.631 315.732H46.546C45.854 315.732 45.292 315.171 45.292 314.478V273.954C45.292 273.261 45.853 272.7 46.546 272.7Z" fill="white"/>
<path opacity="0.8" d="M111.323 277.183V311.094C111.323 312.085 110.519 312.889 109.528 312.889H49.579C48.588 312.889 47.784 312.085 47.784 311.094V277.183C47.784 276.192 48.588 275.388 49.579 275.388H109.528C110.519 275.388 111.323 276.192 111.323 277.183Z" fill="#407BFF"/>
<path opacity="0.4" d="M111.323 277.183V311.094C111.323 312.085 110.519 312.889 109.528 312.889H49.579C48.588 312.889 47.784 312.085 47.784 311.094V277.183C47.784 276.192 48.588 275.388 49.579 275.388H109.528C110.519 275.388 111.323 276.192 111.323 277.183Z" fill="black"/>
<path fill-rule="evenodd" clip-rule="evenodd" d="M87.82 288.221L79.249 293.348L70.678 288.373V288.223L79.249 283.247L87.813 288.217L87.82 288.221Z" fill="#407BFF"/>
<path fill-rule="evenodd" clip-rule="evenodd" d="M88.742 289.81V299.761L80.171 304.737V294.785L88.742 289.81Z" fill="#407BFF"/>
<path fill-rule="evenodd" clip-rule="evenodd" d="M78.409 294.785V304.737L69.844 299.761V289.81L78.415 294.785H78.409Z" fill="#407BFF"/>
<g opacity="0.7">
<path fill-rule="evenodd" clip-rule="evenodd" d="M87.82 288.221L79.249 293.348L70.678 288.373V288.223L79.249 283.247L87.813 288.217L87.82 288.221Z" fill="white"/>
<path fill-rule="evenodd" clip-rule="evenodd" d="M88.742 289.81V299.761L80.171 304.737V294.785L88.742 289.81Z" fill="white"/>
<path fill-rule="evenodd" clip-rule="evenodd" d="M78.409 294.785V304.737L69.844 299.761V289.81L78.415 294.785H78.409Z" fill="white"/>
</g>
</g>
<path d="M112.41 340.618H47.139C42.206 340.618 38.207 336.619 38.207 331.686V266.414C38.207 261.481 42.206 257.482 47.139 257.482H112.411C117.344 257.482 121.343 261.481 121.343 266.414V331.686C121.342 336.619 117.343 340.618 112.41 340.618Z" stroke="#407BFF" stroke-miterlimit="10"/>
<path d="M112.41 340.618H47.139C42.206 340.618 38.207 336.619 38.207 331.686V266.414C38.207 261.481 42.206 257.482 47.139 257.482H112.411C117.344 257.482 121.343 261.481 121.343 266.414V331.686C121.342 336.619 117.343 340.618 112.41 340.618Z" stroke="#407BFF" stroke-miterlimit="10"/>
<path d="M163.634 322.06C163.519 322.38 163.334 322.668 163.09 322.906L188.867 335.67L189.306 334.772L163.634 322.06Z" fill="#407BFF"/>
<path d="M128.42 304.624L121.782 301.337L121.343 302.235L128.069 305.566C128.12 305.228 128.24 304.908 128.42 304.624Z" fill="#407BFF"/>
<path d="M149.615 315.119L132.45 306.619C132.367 306.948 132.224 307.257 132.013 307.519L149.594 316.225C149.523 315.86 149.533 315.481 149.615 315.119Z" fill="#407BFF"/>
<path d="M153.627 317.105C153.428 317.402 153.161 317.654 152.816 317.82L159.295 321.028C159.315 320.683 159.399 320.345 159.551 320.039L153.627 317.105Z" fill="#407BFF"/>
<mask id="mask1_1_2" style="mask-type:luminance" maskUnits="userSpaceOnUse" x="75" y="129" width="115" height="116">
<path d="M180.955 244.568H84.216C79.283 244.568 75.284 240.569 75.284 235.636V138.897C75.284 133.964 79.283 129.965 84.216 129.965H180.955C185.888 129.965 189.887 133.964 189.887 138.897V235.636C189.887 240.569 185.888 244.568 180.955 244.568Z" fill="white"/>
</mask>
<g mask="url(#mask1_1_2)">
<path d="M183.412 241.846V331.743H180.89L177.717 241.846H183.412Z" fill="#407BFF"/>
<path opacity="0.5" d="M183.412 241.846V331.743H180.89L177.717 241.846H183.412Z" fill="black"/>
<path d="M227.324 235.754H30.921V239.822H227.324V235.754Z" fill="#407BFF"/>
<path d="M85.65 238.673V335.709H83.128L79.955 238.673H85.65Z" fill="#407BFF"/>
<path d="M214.964 244.176H44.231L37.647 239.823H221.548L214.964 244.176Z" fill="#407BFF"/>
<path opacity="0.5" d="M214.964 244.176H44.231L37.647 239.823H221.548L214.964 244.176Z" fill="black"/>
<path d="M190.901 244.176H79.955L75.638 239.823H190.901V244.176Z" fill="#407BFF"/>
<path d="M155.927 222.29H82.232C80.212 222.29 78.489 220.653 78.383 218.632L75.962 172.435C75.856 170.415 77.408 168.778 79.428 168.778H153.123C155.143 168.778 156.866 170.416 156.972 172.435L159.393 218.632C159.499 220.653 157.947 222.29 155.927 222.29Z" fill="#407BFF"/>
<path opacity="0.4" d="M155.927 222.29H82.232C80.212 222.29 78.489 220.653 78.383 218.632L75.962 172.435C75.856 170.415 77.408 168.778 79.428 168.778H153.123C155.143 168.778 156.866 170.416 156.972 172.435L159.393 218.632C159.499 220.653 157.947 222.29 155.927 222.29Z" fill="white"/>
<path d="M124.958 235.813H114.462L116.575 218.322H124.958V235.813Z" fill="#407BFF"/>
<path opacity="0.4" d="M124.958 235.813H114.462L116.575 218.322H124.958V235.813Z" fill="white"/>
<path d="M134.086 234.346H114.64L114.463 235.813H134.087C134.492 235.813 134.821 235.484 134.821 235.079C134.821 234.674 134.491 234.346 134.086 234.346Z" fill="#407BFF"/>
<path opacity="0.3" d="M134.086 234.346H114.64L114.463 235.813H134.087C134.492 235.813 134.821 235.484 134.821 235.079C134.821 234.674 134.491 234.346 134.086 234.346Z" fill="white"/>
<path opacity="0.1" d="M115.575 226.598H124.958V221.579H116.182L115.575 226.598Z" fill="black"/>
<path d="M156.55 222.29H82.855C80.835 222.29 79.112 220.653 79.006 218.632L76.585 172.435C76.479 170.415 78.031 168.778 80.051 168.778H153.746C155.766 168.778 157.489 170.416 157.595 172.435L160.016 218.632C160.122 220.653 158.57 222.29 156.55 222.29Z" fill="#407BFF"/>
<path d="M82.757 220.421H156.452C157.438 220.421 158.198 219.619 158.146 218.633L155.725 172.436C155.673 171.45 154.829 170.648 153.843 170.648H80.149C79.163 170.648 78.403 171.45 78.455 172.436L80.876 218.633C80.927 219.619 81.771 220.421 82.757 220.421Z" fill="#407BFF"/>
<path opacity="0.4" d="M82.757 220.421H156.452C157.438 220.421 158.198 219.619 158.146 218.633L155.725 172.436C155.673 171.45 154.829 170.648 153.843 170.648H80.149C79.163 170.648 78.403 171.45 78.455 172.436L80.876 218.633C80.927 219.619 81.771 220.421 82.757 220.421Z" fill="black"/>
<path d="M152.064 229.597H107.774L115.777 235.771H160.059L152.064 229.597Z" fill="#407BFF"/>
<path opacity="0.4" d="M152.064 229.597H107.774L115.777 235.771H160.059L152.064 229.597Z" fill="white"/>
<path d="M108.797 235.771L107.774 229.597L115.777 235.771H108.797Z" fill="#407BFF"/>
<path opacity="0.5" d="M108.797 235.771L107.774 229.597L115.777 235.771H108.797Z" fill="black"/>
<path d="M177.592 243.891C177.592 243.891 137.831 247.246 138.806 264.513C139.585 278.266 142.369 267.987 137.585 316.835L147.588 317.387C147.588 317.387 157.764 283.01 156.391 269.351C167.599 269.351 193.257 270.335 196.985 260.222C198.836 255.087 199.737 249.658 199.642 244.2L177.592 243.891Z" fill="#407BFF"/>
<path d="M165.758 243.891C165.496 243.891 121.182 248.452 121.127 263.482C121.032 288.34 113.933 316.835 113.933 316.835L122.691 321.174C122.691 321.174 137.942 290.283 137.712 270.906C149.903 267.408 181.439 273.285 185.167 263.181C188.221 254.916 186.571 243.891 186.571 243.891H165.758Z" fill="#407BFF"/>
<path d="M180.812 195.934C181.978 198.44 182.938 200.852 183.897 203.358C184.857 205.864 185.705 208.371 186.491 210.941C187.276 213.511 187.958 216.144 188.506 218.873C189.103 221.708 189.401 224.598 189.394 227.495C189.385 229.196 189.131 230.887 188.64 232.516C188.331 233.514 187.886 234.464 187.315 235.34C186.984 235.836 186.604 236.299 186.181 236.72L185.84 237.053C185.65 237.212 185.443 237.386 185.245 237.521C184.91 237.75 184.555 237.947 184.182 238.108C183.632 238.351 183.058 238.535 182.469 238.655C182.006 238.754 181.537 238.822 181.065 238.861C180.259 238.912 179.451 238.912 178.646 238.861C177.215 238.793 175.79 238.634 174.379 238.385C169.114 237.428 163.957 235.951 158.984 233.975L160.134 229.605C165.171 230.208 170.31 230.85 175.157 231.072C176.363 231.072 177.537 231.128 178.631 231.072C179.119 231.046 179.604 230.985 180.083 230.89C180.48 230.819 180.821 230.676 180.702 230.684C180.623 230.711 180.548 230.748 180.48 230.795C180.401 230.843 180.326 230.899 180.258 230.962C180.258 230.962 180.298 230.898 180.329 230.827C180.432 230.6 180.512 230.364 180.567 230.121C180.744 229.25 180.816 228.36 180.781 227.472C180.664 225.2 180.327 222.945 179.774 220.738C179.235 218.358 178.537 216.042 177.775 213.687C177.014 211.331 176.189 208.975 175.285 206.628C174.381 204.28 173.429 201.924 172.493 199.712L180.812 195.934Z" fill="#FFB273"/>
<path d="M162.323 230.793L157.064 227.835L154.423 233.53C154.423 233.53 160.57 236.092 161.863 234.49L162.323 230.793Z" fill="#FFB273"/>
<path d="M152.805 228.914L150.402 232.721L154.423 233.49L157.065 227.795L152.805 228.914Z" fill="#FFB273"/>
<path d="M168.55 200.457C167.543 202.987 166.488 205.406 165.377 207.857C164.267 210.308 163.156 212.719 161.982 215.13C159.619 220.04 156.97 224.807 154.05 229.407C153.257 230.581 152.464 231.747 151.575 232.913C151.131 233.5 150.639 234.079 150.116 234.674C149.83 234.975 149.6 235.253 149.267 235.562L148.791 236.022L148.521 236.276C147.766 236.922 146.878 237.394 145.919 237.656C145.414 237.799 144.9 237.908 144.38 237.981C143.533 238.083 142.679 238.118 141.826 238.084C140.353 238.037 138.885 237.891 137.432 237.648C132.054 236.698 126.787 235.205 121.711 233.19L122.869 228.812C128.001 229.431 133.244 230.089 138.177 230.295C139.34 230.34 140.505 230.324 141.667 230.247C142.135 230.21 142.599 230.136 143.055 230.025C143.204 229.99 143.348 229.937 143.483 229.866C143.531 229.866 143.483 229.81 143.269 229.945C143.191 229.989 143.119 230.042 143.055 230.104C143.055 230.104 143.111 230.033 143.134 230.009L143.356 229.763C143.499 229.62 143.673 229.382 143.84 229.192C144.165 228.78 144.498 228.335 144.832 227.852C145.49 226.908 146.133 225.861 146.767 224.798C148.036 222.672 149.218 220.412 150.376 218.127C151.534 215.843 152.644 213.511 153.739 211.163C155.92 206.483 158.054 201.685 160.084 196.965L168.55 200.457Z" fill="#FFB273"/>
<path d="M125.124 229.955L119.857 226.957L117.216 232.652C117.216 232.652 123.363 235.222 124.664 233.62L125.124 229.955Z" fill="#FFB273"/>
<path d="M115.606 228.083L113.195 231.882L117.216 232.652L119.857 226.956L115.606 228.083Z" fill="#FFB273"/>
<path d="M182.168 172.316L178.805 176.21L173.673 181.519C173.778 181.78 173.92 182.12 174.066 182.481C174.461 183.46 174.695 184.499 174.751 185.553C174.863 187.681 174.659 189.481 171.303 190.924C171.303 190.924 167.781 195.524 176.157 194.247C184.533 192.97 185.794 188.623 185.794 188.623C182.081 185.982 181.875 177.201 182.168 172.316Z" fill="#FFB273"/>
<path d="M165.092 167.921C165.092 168.444 164.83 168.889 164.481 168.905C164.132 168.921 163.854 168.508 163.846 167.985C163.838 167.461 164.116 167.017 164.457 167.001C164.798 166.985 165.084 167.398 165.092 167.921Z" fill="#263238"/>
<path d="M166.844 165.97C166.74 165.969 166.645 165.915 166.59 165.827C166.174 165.144 165.465 164.693 164.671 164.606C164.502 164.597 164.369 164.458 164.37 164.289C164.374 164.118 164.516 163.983 164.687 163.988C165.689 164.077 166.59 164.636 167.114 165.495C167.202 165.64 167.16 165.829 167.019 165.923C166.966 165.954 166.906 165.97 166.844 165.97Z" fill="#263238"/>
<path d="M164.901 168.215C164.476 169.644 163.862 171.009 163.077 172.276C163.736 172.648 164.528 172.706 165.234 172.435L164.901 168.215Z" fill="#630F0F"/>
<path d="M182.644 165.28C182.335 171.752 182.477 175.591 179.265 179.018C176.136 182.467 170.804 182.725 167.355 179.596C166.09 178.449 165.204 176.944 164.813 175.282C163.354 169.547 164.115 159.926 170.365 157.039C174.581 154.951 179.691 156.675 181.78 160.891C182.454 162.251 182.753 163.766 182.644 165.28Z" fill="#FFB273"/>
<path d="M185.581 167.439C184.645 170.183 183.225 172.737 181.377 174.974L172.953 176.56C172.953 176.56 166.298 173.776 168.075 169.192C166.949 168.24 167.369 165.298 168.162 163.68C169.431 164.695 171.517 164.783 172.659 163.561C173.579 165.25 176.339 165.488 177.537 163.966C178.909 165.489 181.836 165.021 182.661 163.141C183.676 163.807 185.136 163.712 186.056 162.919C186.096 162.879 186.135 162.848 186.175 162.808C186.311 163.965 186.176 165.479 185.581 167.439Z" fill="#263238"/>
<path opacity="0.1" d="M185.581 167.439C184.645 170.183 183.225 172.737 181.377 174.974L172.953 176.56C172.953 176.56 166.298 173.776 168.075 169.192C166.949 168.24 167.369 165.298 168.162 163.68C169.431 164.695 171.517 164.783 172.659 163.561C173.579 165.25 176.339 165.488 177.537 163.966C178.909 165.489 181.836 165.021 182.661 163.141C183.676 163.807 185.136 163.712 186.056 162.919C186.096 162.879 186.135 162.848 186.175 162.808C186.311 163.965 186.176 165.479 185.581 167.439Z" fill="white"/>
<path d="M186.795 159.594C187.271 160.657 187.009 161.997 186.176 162.806C186.136 162.846 186.097 162.877 186.057 162.917C185.137 163.71 183.677 163.805 182.662 163.139C181.837 165.019 178.91 165.487 177.538 163.964C176.34 165.487 173.58 165.249 172.66 163.559C171.518 164.78 169.432 164.693 168.163 163.678C167.83 163.416 167.552 163.083 167.37 162.695C167.322 162.608 167.291 162.521 167.259 162.433C167.188 162.512 167.116 162.584 167.037 162.647C166.268 163.281 165.054 163.377 164.213 162.814C163.523 162.354 163.142 161.497 163.198 160.68C163.206 160.506 163.238 160.339 163.285 160.172C163.222 160.291 163.142 160.402 163.047 160.497C162.357 161.235 160.898 161.266 160.223 160.426C159.382 159.387 159.858 157.658 161.008 156.968C161.468 156.698 161.976 156.571 162.499 156.571C163.308 156.571 164.133 156.864 164.775 157.356C164.085 156.365 164.331 154.85 165.298 154.128C166.266 153.414 167.788 153.612 168.534 154.556C168.431 153.43 168.804 152.756 169.383 152.407C170.478 151.772 172.302 152.32 173.19 153.383C173.19 153.383 174.411 150.432 176.521 150.765C176.981 150.829 179.146 151.788 179.091 152.566C179.091 152.621 179.075 152.669 179.051 152.717C179.083 152.654 179.114 152.598 179.154 152.543C179.566 151.893 180.399 151.567 181.185 151.583C182.034 151.591 182.843 151.916 183.628 152.233C185.27 152.907 187.015 153.661 187.967 155.16C188.913 156.668 188.5 159.118 186.795 159.594Z" fill="#263238"/>
<path d="M171.794 169.793C171.564 171.392 170.83 172.875 169.7 174.028C168.264 175.4 167.043 174.028 167.027 171.942C167.027 170.054 167.733 167.064 169.407 166.509C171.08 165.954 172.103 167.739 171.794 169.793Z" fill="#FFB273"/>
<path d="M197.159 190.876C196.564 189.29 193.788 187.703 192.083 187.703H190.957C188.99 187.703 186.539 187.862 184.16 188.139C179.626 188.641 175.124 189.398 170.676 190.407C168.63 190.946 166.655 191.628 165.084 192.215C163.085 193.008 161.911 193.54 161.911 193.54C161.911 193.54 164.102 208.122 165.234 222.606C165.864 230.666 165.604 238.671 165.805 244.175H199.641C200.807 237.56 200.623 231.791 200.718 219.846C200.775 212.677 199.61 197.403 197.159 190.876Z" fill="#407BFF"/>
<path opacity="0.2" d="M164.503 214.511C164.757 217.549 165.019 220.737 165.296 223.926C169.262 218.136 171.459 202.296 171.459 202.296L164.503 214.511Z" fill="black"/>
<path d="M159.999 194.607C155.153 197.336 150.402 211.298 150.402 211.298L161.498 219.671C165.734 215.665 171.928 205.727 172.602 201.753C173.689 195.654 167.764 190.26 159.999 194.607Z" fill="#407BFF"/>
<path d="M169.202 279.953V197.715C169.202 194.601 170.546 191.639 172.888 189.588L178.749 184.457C180.718 182.733 183.246 181.783 185.864 181.783H207.038L217.385 192.792V279.953H169.202Z" fill="#407BFF"/>
<path opacity="0.3" d="M217.387 192.796V279.957H129.806C126.657 279.957 124.095 277.403 124.095 274.246C124.095 273.223 124.365 272.215 124.888 271.335C127.561 266.822 132.407 264.046 137.65 264.046H161.979C165.968 264.046 169.202 260.812 169.202 256.823V197.714C169.202 194.605 170.542 191.638 172.89 189.592L178.752 184.46C180.719 182.731 183.249 181.787 185.867 181.787H207.036L217.387 192.796Z" fill="white"/>
<path d="M176.249 279.953V197.715C176.249 194.601 177.593 191.639 179.935 189.588L185.796 184.457C187.765 182.733 190.293 181.783 192.911 181.783H209.414C212.395 181.783 215.243 183.015 217.285 185.187L221.502 189.674C223.385 191.677 224.433 194.322 224.433 197.071V271.719C224.433 276.267 220.746 279.953 216.199 279.953H176.249Z" fill="#407BFF"/>
<path opacity="0.7" d="M176.249 279.953V197.715C176.249 194.601 177.593 191.639 179.935 189.588L185.796 184.457C187.765 182.733 190.293 181.783 192.911 181.783H209.414C212.395 181.783 215.243 183.015 217.285 185.187L221.502 189.674C223.385 191.677 224.433 194.322 224.433 197.071V271.719C224.433 276.267 220.746 279.953 216.199 279.953H176.249Z" fill="white"/>
<path d="M136.051 216.221H94.721L92.908 190.297H134.238L136.051 216.221Z" fill="#407BFF"/>
<path opacity="0.5" d="M136.051 216.221H94.721L92.908 190.297H134.238L136.051 216.221Z" fill="black"/>
<path d="M134.355 191.962H93.024L92.908 190.297H134.238L134.355 191.962Z" fill="#407BFF"/>
<path d="M151.855 202.051H110.524L108.711 176.126H150.042L151.855 202.051Z" fill="#407BFF"/>
<path opacity="0.8" d="M151.855 202.051H110.524L108.711 176.126H150.042L151.855 202.051Z" fill="white"/>
<path d="M150.158 177.792H108.827L108.711 176.126H150.042L150.158 177.792Z" fill="#407BFF"/>
</g>
<path d="M138.624 250.693L132.955 244.471L132.216 245.145L138.2 251.712C138.261 251.342 138.408 250.994 138.624 250.693Z" fill="#407BFF"/>
<path d="M147.874 260.843C147.761 261.175 147.569 261.472 147.318 261.718L159.481 275.065C159.709 274.826 160 274.643 160.349 274.532L147.874 260.843Z" fill="#407BFF"/>
<path d="M145.069 257.765L141.72 254.09C141.442 254.284 141.098 254.409 140.697 254.452L144.187 258.282C144.419 258.048 144.714 257.869 145.069 257.765Z" fill="#407BFF"/>
<path d="M180.413 296.552L163.181 277.642C163.061 277.969 162.868 278.263 162.612 278.502L179.946 297.524C180.028 297.167 180.18 296.831 180.413 296.552Z" fill="#407BFF"/>
<path d="M183.54 299.983C183.281 300.194 182.961 300.345 182.58 300.414L199.217 318.672L199.956 317.998L183.54 299.983Z" fill="#407BFF"/>
<path d="M180.955 244.568H84.216C79.283 244.568 75.284 240.569 75.284 235.636V138.897C75.284 133.964 79.283 129.965 84.216 129.965H180.955C185.888 129.965 189.887 133.964 189.887 138.897V235.636C189.887 240.569 185.888 244.568 180.955 244.568Z" stroke="#407BFF" stroke-miterlimit="10"/>
<mask id="mask2_1_2" style="mask-type:luminance" maskUnits="userSpaceOnUse" x="207" y="100" width="84" height="84">
<path d="M281.249 183.335H215.977C211.044 183.335 207.045 179.336 207.045 174.403V109.132C207.045 104.199 211.044 100.2 215.977 100.2H281.249C286.182 100.2 290.181 104.199 290.181 109.132V174.404C290.181 179.336 286.182 183.335 281.249 183.335Z" fill="white"/>
</mask>
<g mask="url(#mask2_1_2)">
<path d="M237.04 135.28L230.895 138.474C230.895 138.474 230.299 161.515 230.895 164.693C231.491 167.871 234.548 168.849 234.548 168.849L240.751 163.999L237.04 135.28Z" fill="#FF8B7B"/>
<path d="M230.895 138.474C230.895 138.474 223.381 151.235 218.008 168.848C214.884 179.089 233.067 179.736 236.396 176.128C237.224 175.23 243.391 165.898 243.391 165.898L230.895 138.474Z" fill="#FF8B7B"/>
<path d="M256.437 169.227H235.694C233.727 169.227 232.271 167.632 232.443 165.665L236.392 120.527C236.564 118.56 238.299 116.965 240.266 116.965H261.009C262.976 116.965 264.432 118.56 264.26 120.527L260.311 165.665C260.139 167.632 258.404 169.227 256.437 169.227Z" fill="#407BFF"/>
<path opacity="0.1" d="M256.437 169.227H235.694C233.727 169.227 232.271 167.632 232.443 165.665L236.392 120.527C236.564 118.56 238.299 116.965 240.266 116.965H261.009C262.976 116.965 264.432 118.56 264.26 120.527L260.311 165.665C260.139 167.632 258.404 169.227 256.437 169.227Z" fill="black"/>
<g opacity="0.8">
<path d="M246.152 167.713C245.667 167.713 245.226 167.524 244.911 167.18C244.595 166.834 244.444 166.375 244.486 165.888C244.573 164.893 245.453 164.084 246.448 164.084C246.933 164.084 247.374 164.273 247.689 164.617C248.006 164.963 248.156 165.422 248.114 165.909C248.027 166.904 247.146 167.713 246.152 167.713ZM246.448 164.323C245.574 164.323 244.8 165.034 244.724 165.909C244.687 166.329 244.816 166.723 245.087 167.019C245.356 167.312 245.734 167.474 246.152 167.474C247.026 167.474 247.8 166.763 247.876 165.888C247.913 165.468 247.784 165.074 247.513 164.778C247.244 164.485 246.866 164.323 246.448 164.323Z" fill="white"/>
</g>
<g opacity="0.8">
<path d="M253.658 121.119H246.941C246.739 121.119 246.555 121.04 246.424 120.896C246.292 120.752 246.229 120.561 246.247 120.358L246.261 120.202C246.297 119.794 246.658 119.462 247.066 119.462H253.782C253.984 119.462 254.168 119.541 254.3 119.685C254.432 119.829 254.495 120.021 254.477 120.224L254.463 120.379C254.428 120.787 254.067 121.119 253.658 121.119ZM247.066 119.701C246.778 119.701 246.524 119.935 246.499 120.223L246.486 120.378C246.474 120.514 246.515 120.64 246.602 120.734C246.688 120.828 246.809 120.879 246.943 120.879H253.66C253.948 120.879 254.202 120.645 254.227 120.357L254.241 120.201C254.253 120.066 254.212 119.939 254.125 119.845C254.039 119.751 253.918 119.7 253.784 119.7L247.066 119.701Z" fill="white"/>
</g>
<path opacity="0.1" d="M252.32 117.127L240.752 169.227H247.704L259.157 117.127H252.32Z" fill="white"/>
<path opacity="0.1" d="M246.911 117.127L235.343 169.227H238.848L250.3 117.127H246.911Z" fill="white"/>
<path d="M258.602 161.899H234.711L238.08 123.394H261.97L258.602 161.899Z" fill="#407BFF"/>
<path opacity="0.7" d="M258.602 161.899H234.711L238.08 123.394H261.97L258.602 161.899Z" fill="white"/>
<path d="M258.741 137.729C258.736 137.789 258.726 137.849 258.715 137.908C258.641 138.295 258.434 138.645 258.15 138.905C257.823 139.206 257.391 139.393 256.931 139.393H239.974C239.115 139.393 238.465 138.743 238.45 137.908C238.449 137.85 238.45 137.79 238.455 137.729C238.495 137.271 238.718 136.854 239.045 136.555C239.372 136.254 239.804 136.067 240.264 136.067H257.221C258.142 136.067 258.821 136.812 258.741 137.729Z" fill="#407BFF"/>
<path opacity="0.8" d="M258.741 137.729C258.736 137.789 258.726 137.849 258.715 137.908C258.641 138.295 258.434 138.645 258.15 138.905C257.823 139.206 257.391 139.393 256.931 139.393H239.974C239.115 139.393 238.465 138.743 238.45 137.908C238.449 137.85 238.45 137.79 238.455 137.729C238.495 137.271 238.718 136.854 239.045 136.555C239.372 136.254 239.804 136.067 240.264 136.067H257.221C258.142 136.067 258.821 136.812 258.741 137.729Z" fill="white"/>
<path d="M238.451 137.907C238.451 137.961 238.455 138.015 238.463 138.068C238.515 137.635 238.734 137.241 239.047 136.956C239.374 136.655 239.806 136.468 240.265 136.468L258.298 136.496C258.027 136.229 257.65 136.066 257.222 136.066H240.265C239.805 136.066 239.374 136.253 239.047 136.554C238.72 136.853 238.495 137.27 238.455 137.728C238.451 137.789 238.449 137.849 238.451 137.907Z" fill="#407BFF"/>
<path opacity="0.5" d="M238.451 137.907C238.451 137.961 238.455 138.015 238.463 138.068C238.515 137.635 238.734 137.241 239.047 136.956C239.374 136.655 239.806 136.468 240.265 136.468L258.298 136.496C258.027 136.229 257.65 136.066 257.222 136.066H240.265C239.805 136.066 239.374 136.253 239.047 136.554C238.72 136.853 238.495 137.27 238.455 137.728C238.451 137.789 238.449 137.849 238.451 137.907Z" fill="white"/>
<path d="M241.79 136.869L241.72 137.672L242.531 137.401L242.64 137.799L241.831 138.055L242.259 138.735L241.879 138.991L241.47 138.284L240.93 138.991L240.584 138.735L241.138 138.055L240.366 137.799L240.546 137.399L241.301 137.681L241.372 136.87L241.79 136.869Z" fill="#263238"/>
<path d="M246.428 136.869L246.358 137.672L247.169 137.401L247.278 137.799L246.468 138.055L246.896 138.735L246.516 138.991L246.107 138.284L245.567 138.991L245.221 138.735L245.775 138.055L245.003 137.799L245.182 137.399L245.937 137.681L246.008 136.87L246.428 136.869Z" fill="#263238"/>
<path d="M251.065 136.869L250.995 137.672L251.806 137.401L251.915 137.799L251.105 138.055L251.533 138.735L251.153 138.991L250.744 138.284L250.204 138.991L249.858 138.735L250.412 138.055L249.64 137.799L249.82 137.399L250.575 137.681L250.646 136.87L251.065 136.869Z" fill="#263238"/>
<path d="M255.703 136.869L255.633 137.672L256.444 137.401L256.553 137.799L255.744 138.055L256.172 138.735L255.792 138.991L255.383 138.284L254.843 138.991L254.497 138.735L255.051 138.055L254.279 137.799L254.458 137.399L255.213 137.681L255.284 136.87L255.703 136.869Z" fill="#263238"/>
<path d="M244.834 135.28H244.044V135.481H244.834V135.28Z" fill="#407BFF"/>
<path d="M243.224 135.28H240.644V135.481H243.224V135.28Z" fill="#407BFF"/>
<path d="M265.581 120.524L261.636 165.666C261.459 167.634 259.725 169.225 257.758 169.225H256.439C258.402 169.225 260.141 167.634 260.313 165.666L264.258 120.524C264.43 118.561 262.978 116.965 261.01 116.965H262.333C264.301 116.965 265.753 118.561 265.581 120.524Z" fill="#407BFF"/>
<path opacity="0.5" d="M265.581 120.524L261.636 165.666C261.459 167.634 259.725 169.225 257.758 169.225H256.439C258.402 169.225 260.141 167.634 260.313 165.666L264.258 120.524C264.43 118.561 262.978 116.965 261.01 116.965H262.333C264.301 116.965 265.753 118.561 265.581 120.524Z" fill="white"/>
<path d="M264.572 128.398L264.446 130.137L264.806 130.163L264.932 128.424L264.572 128.398Z" fill="#407BFF"/>
<path d="M265.042 121.814L264.677 126.857L265.037 126.883L265.402 121.84L265.042 121.814Z" fill="#407BFF"/>
<path d="M251.856 154.412H241.609C240.363 154.412 239.442 153.402 239.55 152.156C239.659 150.91 240.757 149.9 242.003 149.9H252.25C253.496 149.9 254.418 150.91 254.309 152.156C254.2 153.402 253.102 154.412 251.856 154.412Z" fill="#407BFF"/>
<path opacity="0.4" d="M251.856 154.412H241.609C240.363 154.412 239.442 153.402 239.55 152.156C239.659 150.91 240.757 149.9 242.003 149.9H252.25C253.496 149.9 254.418 150.91 254.309 152.156C254.2 153.402 253.102 154.412 251.856 154.412Z" fill="black"/>
<path d="M230.895 150.505L240.173 149.017L241.459 149.153C242.816 149.297 243.698 150.646 243.292 151.948C242.913 153.164 242.498 154.363 242.33 154.363C241.989 154.363 232.773 161.898 232.773 161.898C232.773 161.898 230.786 163.726 230.895 161.373V150.505Z" fill="#FF8B7B"/>
<path d="M218.009 168.849L233.449 177.61L226.094 202.438H201.2L218.009 168.849Z" fill="#FF8B7B"/>
</g>
<path d="M281.249 183.335H215.977C211.044 183.335 207.045 179.336 207.045 174.403V109.132C207.045 104.199 211.044 100.2 215.977 100.2H281.249C286.182 100.2 290.181 104.199 290.181 109.132V174.404C290.181 179.336 286.182 183.335 281.249 183.335Z" stroke="#407BFF" stroke-miterlimit="10"/>
<path d="M281.249 183.335H215.977C211.044 183.335 207.045 179.336 207.045 174.403V109.132C207.045 104.199 211.044 100.2 215.977 100.2H281.249C286.182 100.2 290.181 104.199 290.181 109.132V174.404C290.181 179.336 286.182 183.335 281.249 183.335Z" stroke="#407BFF" stroke-miterlimit="10"/>
<path d="M258.723 196.946C259.031 196.946 259.298 197.005 259.543 197.093L260.734 183.48L259.738 183.393L258.551 196.963C258.609 196.959 258.661 196.946 258.723 196.946Z" fill="#407BFF"/>
<path d="M258.788 205.719L259.151 201.566C259.014 201.589 258.875 201.608 258.723 201.608C258.517 201.608 258.328 201.582 258.15 201.541L257.803 205.503C258.179 205.508 258.507 205.586 258.788 205.719Z" fill="#407BFF"/>
<path d="M256.43 232.673L258.407 210.076C258.211 210.127 258.004 210.163 257.772 210.163C257.639 210.163 257.52 210.143 257.399 210.126L255.47 232.174C255.859 232.258 256.174 232.439 256.43 232.673Z" fill="#407BFF"/>
<path d="M253.97 250.174C254.316 250.174 254.617 250.242 254.883 250.351L256.098 236.462C255.812 236.632 255.47 236.74 255.068 236.762L253.894 250.181C253.921 250.18 253.943 250.174 253.97 250.174Z" fill="#407BFF"/>
<path d="M253.97 254.836C253.8 254.836 253.642 254.817 253.491 254.788L248.777 308.673L249.773 308.761L254.495 254.783C254.332 254.818 254.157 254.836 253.97 254.836Z" fill="#407BFF"/>
<mask id="mask3_1_2" style="mask-type:luminance" maskUnits="userSpaceOnUse" x="306" y="145" width="116" height="115">
<path d="M412.667 259.752H315.928C310.995 259.752 306.996 255.753 306.996 250.82V154.081C306.996 149.148 310.995 145.149 315.928 145.149H412.667C417.6 145.149 421.599 149.148 421.599 154.081V250.82C421.598 255.753 417.599 259.752 412.667 259.752Z" fill="white"/>
</mask>
<g mask="url(#mask3_1_2)">
<path d="M310.504 169.222C310.504 169.222 311.252 174.879 321.451 178.057C331.649 181.235 328.131 174.834 328.131 174.834C323.381 171.877 323.48 168.432 325.007 165.043C325.378 164.192 325.801 163.364 326.274 162.565L321.566 155.072L318.112 149.581C317.552 155.728 315.632 166.633 310.504 169.222Z" fill="#7F3E3B"/>
<path d="M341.195 146.314C341.617 146.398 341.879 147.005 341.77 147.656C341.661 148.307 341.237 148.768 340.805 148.683C340.373 148.597 340.131 147.994 340.23 147.341C340.339 146.689 340.773 146.229 341.195 146.314Z" fill="#263238"/>
<path d="M339.197 152.939C340.026 153.411 341.024 153.489 341.916 153.15C341.177 151.422 340.671 149.604 340.411 147.742L339.197 152.939Z" fill="#630F0F"/>
<path d="M320.759 135.416C324.161 130.557 330.858 129.375 335.717 132.777C342.96 137.56 342.087 149.696 339.181 156.568C338.379 158.566 336.989 160.273 335.196 161.464C330.305 164.711 323.708 163.378 320.461 158.487C317.106 153.607 318.011 148.85 318.852 140.724C319.003 138.815 319.662 136.983 320.759 135.416Z" fill="#7F3E3B"/>
<path d="M335.119 144.763C337.1 145.772 337.413 149.633 337.055 151.986C336.64 154.583 334.858 156.062 333.328 154.08C332.138 152.428 331.504 150.44 331.52 148.404C331.525 145.785 333.138 143.754 335.119 144.763Z" fill="#7F3E3B"/>
<path d="M338.96 156.846C338.525 156.864 338.097 156.708 337.774 156.406C337.384 156.04 337.198 155.506 337.274 154.978L337.292 154.864L337.786 154.939L337.769 155.051C337.716 155.422 337.842 155.783 338.116 156.041C338.391 156.299 338.759 156.4 339.129 156.323L339.233 156.812C339.143 156.832 339.051 156.843 338.96 156.846Z" fill="black"/>
<path d="M343.895 137.075C343.075 138.438 342.069 139.735 340.767 140.607C340.512 140.799 340.244 140.951 339.965 141.095C338.261 141.959 336.334 142.2 334.85 141.009C335.238 142.171 335.121 143.415 334.727 144.591C334.214 146.149 333.231 147.595 332.281 148.598C332.56 147.491 332.652 146.43 332.336 145.523C332.136 144.927 331.751 144.398 331.123 143.968C329.781 143.036 327.898 143.434 327.093 144.855C326.418 146.035 326.642 147.522 327.012 148.825C327.392 150.138 327.904 151.47 327.756 152.817C327.598 154.175 326.488 155.551 325.131 155.393C324.759 156.347 323.931 157.008 322.984 157.328C321.832 157.715 320.499 157.615 319.529 156.923C319.327 156.789 319.153 156.623 318.987 156.436C318.448 157.073 317.671 157.499 316.851 157.657C316.24 157.788 315.605 157.761 315.008 157.58C313.607 157.145 312.534 155.819 312.393 154.366C310.644 154.692 308.737 153.606 308.126 151.931C307.515 150.256 308.267 148.196 309.809 147.315C308.1 146.675 306.897 144.878 306.956 143.057C307.015 141.236 308.338 139.52 310.081 139.004C308.433 136.924 309.847 133.775 311.647 132.743C311.81 132.659 311.984 132.575 312.151 132.53C312.463 132.424 312.781 132.387 313.087 132.442L313.241 132.479C313.395 132.516 313.551 132.584 313.699 132.672C313.72 132.68 313.759 132.667 313.805 132.623C314.02 132.435 314.485 131.754 314.976 131.02C315.029 130.935 315.083 130.86 315.136 130.776C315.199 130.69 315.262 130.605 315.315 130.52C316.039 129.456 316.742 128.495 316.78 128.953C316.487 125.907 318.233 122.771 320.969 121.41C323.716 120.048 327.269 120.545 329.518 122.615C330.646 121.096 332.668 120.306 334.523 120.663C336.378 121.01 337.976 122.483 338.478 124.298C341.32 123.239 344.617 125.483 345.521 128.378C346.424 131.285 345.454 134.466 343.895 137.075Z" fill="#263238"/>
<path d="M300.534 239.823C300.986 246.69 302.685 253.417 305.547 259.676C311.288 271.992 343.424 268.075 357.505 266.903C358.604 202.754 401.101 398.808 374.913 330.433L387.585 326.502C387.585 326.502 379.723 282.856 379.092 258.986C378.513 237.189 328.205 237.13 328.205 237.13L300.534 239.823Z" fill="#407BFF"/>
<path opacity="0.4" d="M300.534 239.823C300.986 246.69 302.685 253.417 305.547 259.676C311.288 271.992 343.424 268.075 357.505 266.903C358.604 202.775 400.899 398.242 374.71 329.889L387.549 325.617C387.549 325.617 379.724 282.856 379.093 258.986C378.514 237.189 328.206 237.13 328.206 237.13L300.534 239.823Z" fill="black"/>
<path d="M316.925 238.068C316.925 238.068 316.005 252.093 320.705 262.158C326.445 274.464 365.454 263.783 381.136 266.904C382.873 291.274 405.788 331.513 405.788 331.513L418.231 325.25C418.231 325.25 409.432 288.112 401.198 255.843C398.443 231.648 343.403 235.866 343.074 235.893L316.925 238.068Z" fill="#407BFF"/>
<path opacity="0.4" d="M316.925 238.068C316.925 238.068 316.005 252.093 320.705 262.158C326.445 274.464 365.454 263.783 381.136 266.904C382.873 291.274 405.788 331.513 405.788 331.513L418.231 325.25C418.231 325.25 409.432 288.112 401.198 255.843C398.278 230.017 334.956 235.656 334.627 235.683L316.925 238.068Z" fill="black"/>
<path d="M390.827 231.637L331.908 230.279L336.036 193.004L394.955 194.362L390.827 231.637Z" fill="#407BFF"/>
<path d="M389.949 234.542L331.889 233.204C330.242 233.166 329.054 231.803 329.236 230.159L333.339 193.117C333.521 191.473 335.004 190.172 336.651 190.209L394.712 191.547C396.359 191.585 397.547 192.948 397.365 194.592L393.262 231.634C393.079 233.278 391.596 234.58 389.949 234.542Z" fill="#407BFF"/>
<g opacity="0.5">
<path d="M390.827 231.637L331.908 230.279L336.036 193.004L394.955 194.362L390.827 231.637Z" fill="black"/>
<path opacity="0.9" d="M390.827 231.637L331.908 230.279L336.036 193.004L394.955 194.362L390.827 231.637Z" fill="black"/>
</g>
<path opacity="0.9" d="M390.697 231.781L331.778 230.424L335.906 193.149L394.825 194.507L390.697 231.781Z" fill="white"/>
<path d="M387.618 205.037L376.8 204.788L377.472 198.715L388.291 198.964L387.618 205.037Z" fill="#407BFF"/>
<path d="M386.292 217.016L375.473 216.767L376.146 210.694L386.964 210.943L386.292 217.016Z" fill="#407BFF"/>
<path d="M384.965 228.995L374.146 228.746L374.819 222.673L385.637 222.922L384.965 228.995Z" fill="#407BFF"/>
<path opacity="0.1" d="M382.122 191.195L369.621 233.973L373.493 234.062L385.866 191.281L382.122 191.195Z" fill="white"/>
<path opacity="0.1" d="M388.096 191.333L375.596 234.111L383.275 234.288L395.648 191.507L388.096 191.333Z" fill="white"/>
<path d="M338.616 223.264L338.577 223.61L369.799 224.33L369.838 223.983L338.616 223.264Z" fill="#407BFF"/>
<path d="M370.277 220.019L339.094 219.301L341.474 197.805L372.658 198.524L370.277 220.019Z" fill="#407BFF"/>
<path d="M339.753 227.812C338.871 227.792 338.234 227.061 338.332 226.181C338.43 225.3 339.224 224.603 340.106 224.623C340.989 224.643 341.625 225.374 341.527 226.254C341.43 227.135 340.635 227.832 339.753 227.812Z" fill="#407BFF"/>
<path d="M354.393 222.302L338.801 221.943L338.953 220.569L354.545 220.928L354.393 222.302Z" fill="#407BFF"/>
<path d="M369.419 227.586L363.395 227.447L363.547 226.073L369.571 226.212L369.419 227.586Z" fill="#407BFF"/>
<path d="M369.984 222.661L368.607 222.63L368.759 221.255L370.136 221.287L369.984 222.661Z" fill="#407BFF"/>
<path d="M367.651 222.608L366.274 222.576L366.426 221.202L367.803 221.233L367.651 222.608Z" fill="#407BFF"/>
<path d="M365.317 222.554L363.94 222.522L364.093 221.148L365.47 221.18L365.317 222.554Z" fill="#407BFF"/>
<path opacity="0.2" d="M354.393 222.302L338.801 221.943L338.953 220.569L354.545 220.928L354.393 222.302Z" fill="white"/>
<path opacity="0.2" d="M369.838 223.983L338.616 223.264L338.577 223.61L369.799 224.33L369.838 223.983Z" fill="black"/>
<path d="M371.534 233.823L391.125 234.533C391.316 236.824 390.291 237.615 389.044 237.566L382.779 237.322L378.595 237.144L372.091 236.91L342.191 236.165L342.054 233.308L371.534 233.823Z" fill="#407BFF"/>
<path opacity="0.4" d="M371.534 233.823L391.125 234.533C391.316 236.824 390.291 237.615 389.044 237.566L382.779 237.322L378.595 237.144L372.091 236.91L342.191 236.165L342.054 233.308L371.534 233.823Z" fill="black"/>
<path opacity="0.2" d="M391.125 234.533L391.191 235.331C391.294 236.566 390.291 237.615 389.043 237.566L382.778 237.322L371.141 236.99L371.534 233.824L391.125 234.533Z" fill="black"/>
<path d="M309.019 168.222L328.12 169.874C328.12 169.874 325.979 165.001 319.194 164.513C312.409 164.025 309.019 168.222 309.019 168.222Z" fill="#407BFF"/>
<path d="M296.699 201.319C298.067 216.317 298.376 231.604 300.532 239.794L305.15 240.827C313.237 242.637 321.648 242.389 329.614 240.106L343.045 236.257C342.384 222.031 342.477 194.246 342.574 180.433C342.609 175.518 339.298 171.207 334.541 169.969C333.208 169.622 332.027 169.337 331.305 169.21C325.611 168.407 319.875 167.926 314.126 167.769C311.107 167.669 308.011 167.726 305.54 167.931L304.125 168.049C301.983 168.227 298.66 170.511 298.079 172.566C295.683 181.023 295.879 192.316 296.699 201.319Z" fill="#407BFF"/>
<path d="M296.699 201.319C298.067 216.317 298.376 231.604 300.532 239.794L305.15 240.827C313.237 242.637 321.648 242.389 329.614 240.106L343.045 236.257C342.384 222.031 342.477 194.246 342.574 180.433C342.609 175.518 339.298 171.207 334.541 169.969C333.208 169.622 332.027 169.337 331.305 169.21C325.611 168.407 319.875 167.926 314.126 167.769C311.107 167.669 308.011 167.726 305.54 167.931L304.125 168.049C301.983 168.227 298.66 170.511 298.079 172.566C295.683 181.023 295.879 192.316 296.699 201.319Z" fill="#407BFF"/>
<path opacity="0.7" d="M296.699 201.319C298.067 216.317 298.376 231.604 300.532 239.794L305.15 240.827C313.237 242.637 321.648 242.389 329.614 240.106L343.045 236.257C342.384 222.031 342.477 194.246 342.574 180.433C342.609 175.518 339.298 171.207 334.541 169.969C333.208 169.622 332.027 169.337 331.305 169.21C325.611 168.407 319.875 167.926 314.126 167.769C311.107 167.669 308.011 167.726 305.54 167.931L304.125 168.049C301.983 168.227 298.66 170.511 298.079 172.566C295.683 181.023 295.879 192.316 296.699 201.319Z" fill="white"/>
<path opacity="0.2" d="M322.069 179.792C321.572 185.002 320.784 196.219 323.58 205.628L329.115 205.713C332.95 205.806 336.771 205.226 340.405 203.999C340.405 203.999 343.25 189.845 338.963 181.324C335.299 174.045 322.843 171.679 322.069 179.792Z" fill="black"/>
<path d="M334.904 172.284C335.608 178.723 336.406 185.296 337.306 191.743C337.758 194.977 338.235 198.199 338.786 201.38C339.338 204.561 339.927 207.723 340.671 210.754C341.043 212.27 341.431 213.769 341.875 215.15C342.098 215.856 342.335 216.515 342.575 217.132C342.705 217.423 342.828 217.774 342.947 217.999L343.124 218.377C343.144 218.415 343.184 218.521 343.184 218.521C343.129 218.423 343.062 218.332 342.984 218.251C342.776 218.009 342.698 218.059 342.755 218.076C342.892 218.211 343.046 218.329 343.213 218.426C343.722 218.728 344.254 218.989 344.804 219.207C346.176 219.728 347.574 220.178 348.993 220.554C355.016 222.128 362.322 225.159 368.737 226.309L368.515 232.014C361.652 232.567 347.147 230.722 341.717 228.594C340.677 228.32 339.66 227.963 338.676 227.526C338.077 227.246 337.497 226.925 336.941 226.566C335.883 225.895 334.986 224.999 334.315 223.941L334.084 223.535L333.68 222.805C333.393 222.309 333.218 221.889 332.985 221.421C332.574 220.511 332.195 219.631 331.876 218.759C331.236 217.025 330.711 215.327 330.188 213.618C328.368 206.994 326.937 200.269 325.903 193.478C325.379 190.138 324.931 186.821 324.499 183.456C324.495 183.422 324.49 183.389 324.486 183.355C323.785 177.898 327.774 172.953 333.252 172.439L334.904 172.284Z" fill="#7F3E3B"/>
<path d="M365.718 230.61C366.458 233.105 374.858 233.084 374.858 233.084L374.536 225.176L366.954 226.121L365.718 230.61Z" fill="#7F3E3B"/>
<path d="M374.536 225.176L374.858 233.085L379.912 234.133L378.941 228.543L374.536 225.176Z" fill="#7F3E3B"/>
<path d="M322.509 176.738C321.266 181.665 323.36 196.281 326.21 203.056L343.621 200.488C343.621 200.488 344.887 180.514 340.683 174.902C333.934 165.938 324.356 169.148 322.509 176.738Z" fill="#407BFF"/>
<path opacity="0.3" d="M322.509 176.738C321.266 181.665 323.36 196.281 326.21 203.056L343.621 200.488C343.621 200.488 344.887 180.514 340.683 174.902C333.934 165.938 324.356 169.148 322.509 176.738Z" fill="white"/>
</g>
<path d="M412.667 259.327H315.928C310.995 259.327 306.996 255.328 306.996 250.395V153.656C306.996 148.723 310.995 144.724 315.928 144.724H412.667C417.6 144.724 421.599 148.723 421.599 153.656V250.395C421.598 255.328 417.599 259.327 412.667 259.327Z" stroke="#407BFF" stroke-miterlimit="10"/>
<path d="M359.093 264.095L364.608 259.719L363.986 258.936L358.153 263.566C358.534 263.663 358.847 263.85 359.093 264.095Z" fill="#407BFF"/>
<path d="M333.638 283.02L301.079 308.859L301.701 309.642L334.237 283.821C333.972 283.604 333.775 283.328 333.638 283.02Z" fill="#407BFF"/>
<path d="M337.742 281.04L355.528 266.925C355.368 266.592 355.281 266.223 355.276 265.848L337.182 280.207C337.433 280.439 337.621 280.723 337.742 281.04Z" fill="#407BFF"/>
<path d="M441.433 287.42H409.246V339.632H441.433V287.42Z" fill="#407BFF"/>
<path opacity="0.4" d="M441.433 287.42H409.246V339.632H441.433V287.42Z" fill="black"/>
<path d="M421.909 287.42H392.125V339.632H421.909V287.42Z" fill="#407BFF"/>
<path opacity="0.7" d="M421.909 287.42H392.125V339.632H421.909V287.42Z" fill="white"/>
<path d="M420.187 289.777H393.848V296.361H420.187V289.777Z" fill="#407BFF"/>
<path d="M396.668 291.588H395.905V295.725H396.668V291.588Z" fill="white"/>
<path d="M399.6 291.588H398.838V295.725H399.6V291.588Z" fill="white"/>
<path d="M398.134 292.764H397.372V295.725H398.134V292.764Z" fill="white"/>
<path d="M412.28 294.409C412.914 294.409 413.427 293.895 413.427 293.262C413.427 292.629 412.914 292.115 412.28 292.115C411.647 292.115 411.133 292.629 411.133 293.262C411.133 293.895 411.647 294.409 412.28 294.409Z" fill="white"/>
<path d="M415.061 294.409C415.695 294.409 416.208 293.895 416.208 293.262C416.208 292.629 415.695 292.115 415.061 292.115C414.428 292.115 413.914 292.629 413.914 293.262C413.914 293.895 414.428 294.409 415.061 294.409Z" fill="white"/>
<path d="M417.842 294.409C418.476 294.409 418.989 293.895 418.989 293.262C418.989 292.629 418.476 292.115 417.842 292.115C417.209 292.115 416.695 292.629 416.695 293.262C416.695 293.895 417.209 294.409 417.842 294.409Z" fill="white"/>
<path d="M420.187 298.359H393.848V304.943H420.187V298.359Z" fill="#407BFF"/>
<path d="M396.668 300.17H395.905V304.307H396.668V300.17Z" fill="white"/>
<path d="M399.6 300.17H398.838V304.307H399.6V300.17Z" fill="white"/>
<path d="M398.134 301.346H397.372V304.307H398.134V301.346Z" fill="white"/>
<path d="M412.28 302.991C412.914 302.991 413.427 302.477 413.427 301.844C413.427 301.211 412.914 300.697 412.28 300.697C411.647 300.697 411.133 301.211 411.133 301.844C411.133 302.477 411.647 302.991 412.28 302.991Z" fill="white"/>
<path d="M415.061 302.991C415.695 302.991 416.208 302.477 416.208 301.844C416.208 301.211 415.695 300.697 415.061 300.697C414.428 300.697 413.914 301.211 413.914 301.844C413.914 302.477 414.428 302.991 415.061 302.991Z" fill="white"/>
<path d="M417.842 302.991C418.476 302.991 418.989 302.477 418.989 301.844C418.989 301.211 418.476 300.697 417.842 300.697C417.209 300.697 416.695 301.211 416.695 301.844C416.695 302.477 417.209 302.991 417.842 302.991Z" fill="white"/>
<path d="M420.187 306.942H393.848V313.526H420.187V306.942Z" fill="#407BFF"/>
<path d="M396.668 308.753H395.905V312.89H396.668V308.753Z" fill="white"/>
<path d="M399.6 308.753H398.838V312.89H399.6V308.753Z" fill="white"/>
<path d="M398.134 309.928H397.372V312.889H398.134V309.928Z" fill="white"/>
<path d="M413.427 310.427C413.427 311.061 412.913 311.574 412.28 311.574C411.646 311.574 411.133 311.06 411.133 310.427C411.133 309.793 411.647 309.28 412.28 309.28C412.914 309.279 413.427 309.793 413.427 310.427Z" fill="white"/>
<path d="M416.208 310.427C416.208 311.061 415.694 311.574 415.061 311.574C414.427 311.574 413.914 311.06 413.914 310.427C413.914 309.793 414.428 309.28 415.061 309.28C415.694 309.279 416.208 309.793 416.208 310.427Z" fill="white"/>
<path d="M418.989 310.427C418.989 311.061 418.475 311.574 417.842 311.574C417.208 311.574 416.695 311.06 416.695 310.427C416.695 309.793 417.209 309.28 417.842 309.28C418.475 309.279 418.989 309.793 418.989 310.427Z" fill="white"/>
<path d="M420.187 315.524H393.848V322.108H420.187V315.524Z" fill="#407BFF"/>
<path d="M396.668 317.335H395.905V321.472H396.668V317.335Z" fill="white"/>
<path d="M399.6 317.335H398.838V321.472H399.6V317.335Z" fill="white"/>
<path d="M398.134 318.511H397.372V321.472H398.134V318.511Z" fill="white"/>
<path d="M412.28 320.156C412.914 320.156 413.427 319.642 413.427 319.009C413.427 318.376 412.914 317.862 412.28 317.862C411.647 317.862 411.133 318.376 411.133 319.009C411.133 319.642 411.647 320.156 412.28 320.156Z" fill="white"/>
<path d="M415.061 320.156C415.695 320.156 416.208 319.642 416.208 319.009C416.208 318.376 415.695 317.862 415.061 317.862C414.428 317.862 413.914 318.376 413.914 319.009C413.914 319.642 414.428 320.156 415.061 320.156Z" fill="white"/>
<path d="M417.842 320.156C418.476 320.156 418.989 319.642 418.989 319.009C418.989 318.376 418.476 317.862 417.842 317.862C417.209 317.862 416.695 318.376 416.695 319.009C416.695 319.642 417.209 320.156 417.842 320.156Z" fill="white"/>
<path d="M410.824 330.587C410.824 332.549 409.233 334.14 407.271 334.14C405.309 334.14 403.718 332.549 403.718 330.587C403.718 328.625 405.309 327.034 407.271 327.034C409.234 327.035 410.824 328.625 410.824 330.587Z" fill="#263238"/>
<path d="M449.415 355.234H384.143C379.21 355.234 375.211 351.235 375.211 346.302V281.03C375.211 276.097 379.21 272.098 384.143 272.098H449.415C454.348 272.098 458.347 276.097 458.347 281.03V346.302C458.347 351.235 454.348 355.234 449.415 355.234Z" stroke="#407BFF" stroke-miterlimit="10"/>
<path d="M449.415 355.234H384.143C379.21 355.234 375.211 351.235 375.211 346.302V281.03C375.211 276.097 379.21 272.098 384.143 272.098H449.415C454.348 272.098 458.347 276.097 458.347 281.03V346.302C458.347 351.235 454.348 355.234 449.415 355.234Z" stroke="#407BFF" stroke-miterlimit="10"/>
<path d="M328.239 336.696L309.153 345.306L309.561 346.218L328.467 337.689C328.327 337.379 328.248 337.041 328.239 336.696Z" fill="#407BFF"/>
<path d="M347.461 329.121L375.566 316.442L375.158 315.53L347.3 328.097C347.422 328.421 347.475 328.771 347.461 329.121Z" fill="#407BFF"/>
<path d="M343.148 329.97L332.102 334.953C332.335 335.2 332.506 335.496 332.609 335.82L343.723 330.806C343.466 330.576 343.273 330.29 343.148 329.97Z" fill="#407BFF"/>
<path d="M317.619 345.308C317.422 345.308 317.227 345.321 317.03 345.323C317.03 345.318 317.03 345.313 317.03 345.308C317.03 306.779 285.796 275.544 247.266 275.544C214.785 275.544 187.49 297.741 179.72 327.794C150.251 329.713 126.94 354.208 126.94 384.161C126.94 415.366 152.237 440.663 183.442 440.663H317.618C343.95 440.663 365.296 419.317 365.296 392.985C365.297 366.654 343.951 345.308 317.619 345.308Z" fill="#407BFF"/>
<path opacity="0.3" d="M317.619 345.308C317.422 345.308 317.227 345.321 317.03 345.323C317.03 345.318 317.03 345.313 317.03 345.308C317.03 306.779 285.796 275.544 247.266 275.544C214.785 275.544 187.49 297.741 179.72 327.794C150.251 329.713 126.94 354.208 126.94 384.161C126.94 415.366 152.237 440.663 183.442 440.663H317.618C343.95 440.663 365.296 419.317 365.296 392.985C365.297 366.654 343.951 345.308 317.619 345.308Z" fill="white"/>
<path opacity="0.1" d="M246.119 462.797C311.939 462.797 365.297 460.759 365.297 458.245C365.297 455.731 311.939 453.693 246.119 453.693C180.299 453.693 126.941 455.731 126.941 458.245C126.941 460.759 180.299 462.797 246.119 462.797Z" fill="black"/>
<path d="M257.603 394.433C256.679 401.906 243.43 407.839 243.43 407.839C243.43 407.839 230.182 401.906 229.257 394.433L228.98 371.967L243.14 367.306L257.864 371.967L257.603 394.433Z" fill="#F5F5F5"/>
<path d="M248.968 381.503V386.347C248.968 386.783 248.614 387.137 248.178 387.137C247.742 387.137 247.388 386.783 247.388 386.347V381.503C247.388 379.939 246.115 378.665 244.551 378.665H242.818C241.254 378.665 239.981 379.938 239.981 381.503V386.544H238.4V381.503C238.4 379.067 240.382 377.085 242.818 377.085H244.551C246.986 377.085 248.968 379.067 248.968 381.503Z" fill="#407BFF"/>
<path d="M249.491 386.169V395.606C249.491 396.203 249.008 396.686 248.411 396.686H238.974C238.378 396.686 237.894 396.203 237.894 395.606V386.169C237.894 385.784 238.097 385.444 238.401 385.254C238.567 385.15 238.764 385.089 238.975 385.089H248.412C248.617 385.089 248.807 385.146 248.97 385.244C249.282 385.434 249.491 385.777 249.491 386.169Z" fill="#407BFF"/>
<g opacity="0.3">
<path d="M248.968 381.503V386.347C248.968 386.783 248.614 387.137 248.178 387.137C247.742 387.137 247.388 386.783 247.388 386.347V381.503C247.388 379.939 246.115 378.665 244.551 378.665H242.818C241.254 378.665 239.981 379.938 239.981 381.503V386.544H238.4V381.503C238.4 379.067 240.382 377.085 242.818 377.085H244.551C246.986 377.085 248.968 379.067 248.968 381.503Z" fill="white"/>
<path d="M249.491 386.169V395.606C249.491 396.203 249.008 396.686 248.411 396.686H238.974C238.378 396.686 237.894 396.203 237.894 395.606V386.169C237.894 385.784 238.097 385.444 238.401 385.254C238.567 385.15 238.764 385.089 238.975 385.089H248.412C248.617 385.089 248.807 385.146 248.97 385.244C249.282 385.434 249.491 385.777 249.491 386.169Z" fill="white"/>
</g>
<path opacity="0.2" d="M207.347 338.159C207.347 338.159 201.13 342.719 206.145 354.815C212.906 371.121 267.526 357.113 267.526 357.113C265.621 367.853 268.5 375.92 270.454 386.651L275.595 414.895L270.155 415.502L272.362 423.407H277.656L278.223 430.065C276.932 430.16 275.981 431.313 276.133 432.599L277.334 438.823L278.465 440.1L302.63 436.371L285.72 430.061L280.138 341.531L207.347 338.159Z" fill="black"/>
<path opacity="0.2" d="M291.41 349.112H296.456C296.456 349.112 294.948 352.495 296.856 367.494C298.764 382.492 305.079 401.663 305.079 401.663H300.568L301.776 409.919H306.18V416.962C305.025 417.108 304.146 418.071 304.106 419.234L303.95 423.746L307.129 425.774L326.667 424.208L329.067 422.665L318.253 417.583L310.942 340.058L287.257 341.851L291.41 349.112Z" fill="black"/>
<path d="M311.05 418.724L319.606 417.792L320.414 397.678L311.85 398.616L311.05 418.724Z" fill="#FF8B7B"/>
<path d="M320.474 414.182L310.808 414.088C310.473 414.052 310.171 414.294 310.135 414.629C310.133 414.649 310.131 414.67 310.131 414.69L309.582 422.331C309.576 423.168 310.242 423.855 311.079 423.876C314.439 423.85 315.848 423.684 320.093 423.425C322.705 423.256 328.938 422.839 332.492 422.17C336.045 421.502 335.275 418.006 333.711 417.973C330.006 417.908 324.33 416.686 321.918 414.753C321.512 414.408 321.005 414.207 320.474 414.182Z" fill="#263238"/>
<path opacity="0.2" d="M311.848 398.628L320.414 397.678L320.024 407.372L311.47 408.021L311.848 398.628Z" fill="black"/>
<path d="M250.741 313.352C250.741 313.352 315.974 310.061 320.306 334.351C323.882 371.157 321.621 403.056 321.621 403.056L309.945 402.11C309.945 402.11 300.079 363.3 301.033 342.579C283.061 340.627 234.128 349.389 226.49 336.012C220.242 325.097 221.4 318.298 221.4 318.298L250.741 313.352Z" fill="#407BFF"/>
<path opacity="0.5" d="M250.741 313.352C250.741 313.352 315.974 310.061 320.306 334.351C323.882 371.157 321.621 403.056 321.621 403.056L309.945 402.11C309.945 402.11 300.079 363.3 301.033 342.579C283.061 340.627 234.128 349.389 226.49 336.012C220.242 325.097 221.4 318.298 221.4 318.298L250.741 313.352Z" fill="black"/>
<path d="M305.688 405.893L324.035 405.013L325.293 398.128L304.967 398.845L305.688 405.893Z" fill="#407BFF"/>
<path d="M325.127 415.274C325.403 414.988 325.504 414.575 325.391 414.193C325.345 413.934 325.169 413.718 324.925 413.62C323.864 413.179 321.429 414.836 321.154 415.023C321.109 415.051 321.077 415.096 321.065 415.147C321.041 415.253 321.108 415.359 321.214 415.383C321.962 415.582 322.73 415.693 323.504 415.715C324.082 415.773 324.659 415.616 325.127 415.274ZM324.791 413.982C324.909 414.035 324.988 414.15 324.993 414.279C325.081 414.524 325.024 414.798 324.845 414.988C324.44 415.383 323.307 415.426 321.772 415.102C322.771 414.476 324.211 413.768 324.791 413.982Z" fill="#407BFF"/>
<path d="M321.391 415.339C322.251 414.83 323.557 413.062 323.364 412.107C323.291 411.768 322.998 411.521 322.651 411.506C322.325 411.454 321.994 411.562 321.762 411.796C320.893 412.626 321.056 415.101 321.062 415.205C321.067 415.275 321.11 415.338 321.173 415.368C321.202 415.382 321.233 415.39 321.265 415.392L321.391 415.339ZM322.537 411.898C322.834 411.935 322.897 412.077 322.921 412.191C323.049 412.81 322.185 414.158 321.426 414.783C321.413 413.966 321.495 412.553 322.016 412.057C322.133 411.943 322.292 411.882 322.455 411.889C322.503 411.911 322.533 411.923 322.537 411.898Z" fill="#407BFF"/>
<path d="M285.325 430.221L293.646 429.996L292.989 409.812L284.668 410.038L285.325 430.221Z" fill="#FF8B7B"/>
<path d="M293.779 427.508L284.14 428.136C283.8 428.143 283.529 428.423 283.533 428.763L283.563 436.421C283.614 437.26 284.333 437.9 285.173 437.853C288.516 437.529 290.116 437.274 294.354 436.963C296.963 436.791 302.114 436.68 305.636 435.869C309.158 435.058 308.273 431.616 306.714 431.632C303.011 431.693 297.839 429.632 295.288 427.886C294.839 427.597 294.309 427.464 293.779 427.508Z" fill="#263238"/>
<path d="M298.506 428.241C298.758 427.932 298.824 427.512 298.679 427.141C298.615 426.887 298.425 426.684 298.176 426.603C297.103 426.238 294.783 428.087 294.523 428.293C294.482 428.324 294.455 428.369 294.447 428.419C294.43 428.527 294.503 428.628 294.611 428.645C295.372 428.781 296.146 428.833 296.918 428.8C297.499 428.822 298.066 428.621 298.506 428.241ZM298.06 426.993C298.182 427.032 298.275 427.133 298.302 427.258C298.398 427.5 298.36 427.775 298.201 427.981C297.863 428.402 296.702 428.523 295.148 428.322C296.099 427.617 297.482 426.806 298.06 426.993Z" fill="#407BFF"/>
<path d="M294.808 428.635C295.628 428.068 296.787 426.151 296.53 425.274C296.435 424.933 296.117 424.702 295.763 424.717C295.435 424.677 295.109 424.803 294.893 425.054C294.077 425.945 294.441 428.4 294.452 428.508C294.46 428.575 294.503 428.633 294.566 428.659C294.596 428.664 294.627 428.661 294.656 428.65C294.707 428.662 294.761 428.656 294.808 428.635ZM295.699 425.075C295.989 425.092 296.084 425.227 296.095 425.343C296.271 425.948 295.505 427.358 294.796 428.041C294.728 427.245 294.699 425.831 295.188 425.296C295.291 425.173 295.441 425.099 295.602 425.093L295.699 425.075Z" fill="#407BFF"/>
<path opacity="0.2" d="M283.923 409.847L293.223 408.279L293.309 420.89L285.162 421.848L283.923 409.847Z" fill="black"/>
<path d="M230.034 316.842C230.034 316.842 294.447 321.578 295.325 340.293C300.103 370.871 296.564 411.12 296.564 411.12L281.141 414.348C281.141 414.348 273.176 376.687 272.003 348.986C256.239 351.644 223.808 356.566 212.684 348.692C202.592 339.633 205.375 321.044 205.375 321.044L230.034 316.842Z" fill="#407BFF"/>
<path opacity="0.4" d="M230.034 316.842C230.034 316.842 294.447 321.578 295.325 340.293C300.103 370.871 296.564 411.12 296.564 411.12L281.141 414.348C281.141 414.348 273.176 376.687 272.003 348.986C256.239 351.644 223.808 356.566 212.684 348.692C202.592 339.633 205.375 321.044 205.375 321.044L230.034 316.842Z" fill="black"/>
<path d="M279.647 419.426L298.499 417.822L298.889 409.576L278.223 411.738L279.647 419.426Z" fill="#407BFF"/>
<path d="M234.493 260.84C234.859 262.308 235.192 263.582 235.59 264.918C235.988 266.253 236.383 267.517 236.829 268.862C237.693 271.449 238.673 274.016 239.751 276.631C241.905 282.045 244.784 287.143 248.308 291.784C249.345 293.08 250.49 294.285 251.73 295.388C253.119 296.634 254.687 297.665 256.381 298.448C259.631 299.896 263.204 300.469 266.744 300.108C269.843 299.792 272.871 298.974 275.708 297.686C277.049 297.091 278.352 296.415 279.611 295.662C280.241 295.292 280.848 294.898 281.437 294.443C282.025 293.989 282.58 293.604 283.257 293.08L279.929 287.548L278.273 288.046L276.532 288.522C275.362 288.82 274.203 289.079 273.016 289.279C270.87 289.678 268.682 289.793 266.507 289.62C264.767 289.501 263.083 288.956 261.603 288.033C260.964 287.609 260.374 287.116 259.843 286.563C259.184 285.846 258.575 285.084 258.02 284.284C256.741 282.41 255.619 280.433 254.665 278.374C253.614 276.247 252.678 273.991 251.788 271.682C250.898 269.373 250.092 267.022 249.282 264.654L248.141 261.076C247.778 259.898 247.383 258.635 247.092 257.609L234.493 260.84Z" fill="#FF8B7B"/>
<path d="M233.223 253.631C238.409 246.572 246.713 248.825 251.685 259.627C254.438 265.377 256.667 271.363 258.344 277.513L239.307 284.912C233.9 274.721 227.885 260.87 233.223 253.631Z" fill="#407BFF"/>
<path opacity="0.1" d="M233.223 253.631C238.409 246.572 246.713 248.825 251.685 259.627C254.438 265.377 256.667 271.363 258.344 277.513L239.307 284.912C233.9 274.721 227.885 260.87 233.223 253.631Z" fill="black"/>
<path opacity="0.3" d="M241.648 264.872C240.026 263.843 236.983 270.212 235.723 277.648C236.862 280.188 238.081 282.615 239.292 284.879L250.746 280.425C248.616 273.57 245.291 267.19 241.648 264.872Z" fill="black"/>
<path d="M280.816 284.664L284.959 282.226L286.738 291.59C286.738 291.59 279.841 296.059 277.703 292.621L277.839 290.184C278.005 288.006 279.087 286 280.816 284.664Z" fill="#FF8B7B"/>
<path d="M290.227 281.593L294.168 289.035L286.703 291.596L284.924 282.232L290.227 281.593Z" fill="#FF8B7B"/>
<path d="M232.941 247.476L223.035 246.413L210.788 247.895C206.964 248.352 203.919 251.313 203.354 255.123C202.237 262.598 201.84 273.157 201.761 282.251C201.66 292.46 203.285 307.497 205.377 321.043L250.749 313.394C247.03 285.011 247.805 267.73 247.826 258.236C247.846 254.41 245.31 251.041 241.628 250L232.941 247.476Z" fill="#407BFF"/>
<path opacity="0.3" d="M207.232 251.616C215.371 249.909 215.572 268.506 212.295 282.226C211.347 286.196 206.635 284.704 205.025 283.729C199.755 280.54 197.264 257.886 207.232 251.616Z" fill="black"/>
<path d="M208.777 276.585C207.239 284.49 203.791 288.005 207.347 291.595C210.903 295.186 233.654 309.154 234.493 308.266C232.855 309.875 231.321 311.22 229.683 312.829C222.832 310.099 215.95 307.446 209.039 304.87C203.998 302.991 195.932 299.688 192.629 295.44C189.64 291.595 192.316 283.417 195.151 274.147C198.929 272.99 208.777 276.585 208.777 276.585Z" fill="#FF8B7B"/>
<path d="M203.95 248.441C212.286 245.697 215.69 252.33 213.509 263.973C212.428 270.255 210.779 276.425 208.584 282.409L190.813 277.433C192.34 266.019 195.425 251.253 203.95 248.441Z" fill="#407BFF"/>
<path d="M230.167 261.248L230.496 301.824L236.692 307.118L240.413 301.185L232.664 261.248H230.167Z" fill="#263238"/>
<path d="M230.189 261.248H232.664L233.842 259.065L232.237 258.174L230.496 258.016L228.652 259.057L230.189 261.248Z" fill="#263238"/>
<path d="M216.143 247.988C215.898 249.747 216.556 251.537 217.577 252.99C218.598 254.444 219.962 255.615 221.311 256.771C223.025 258.239 225.061 259.804 227.287 259.436C229.344 259.096 230.495 258.016 231.247 255.53C233.113 258.321 233.242 259.739 235.191 259.855C236.455 259.93 237.523 258.973 238.377 258.038C239.885 256.385 240.552 255.442 240.764 253.215C241.109 249.591 238.069 246.34 234.617 245.184C230.912 243.943 227.648 243.725 223.832 243.411C220.643 243.148 216.66 244.272 216.143 247.988Z" fill="#263238"/>
<path d="M224.176 230.382L228.798 235.377L235.082 242.178C234.547 242.941 234.154 243.794 233.922 244.696C233.347 246.687 233.601 248.632 235.777 250.005C236.718 250.406 237.343 255.218 231.248 254.915C227.098 254.823 224.431 253.471 221.929 251.035C220.763 249.575 220.447 248.78 221.541 247.111C224.679 242.393 224.715 235.693 224.176 230.382Z" fill="#FF8B7B"/>
<path opacity="0.2" d="M233.568 240.494L229.586 235.564C229.545 235.717 229.499 235.879 229.449 236.052C229.29 236.771 229.188 237.5 229.143 238.235C228.993 240.747 231.453 243.884 233.794 245.184L233.954 244.674C234.194 243.827 234.547 243.017 235.005 242.265C235.035 242.223 235.072 242.186 235.114 242.155L233.568 240.494Z" fill="black"/>
<path d="M239.092 228.844C242.775 221.67 241.985 217.607 245.526 213.782C247.429 212.937 250.758 216.444 248.545 222.416C246.332 228.388 239.092 228.844 239.092 228.844Z" fill="#263238"/>
<path d="M224.281 220.901C223.862 229.224 223.259 234.071 226.975 238.663C232.592 245.613 243.22 242.746 246.084 234.667C248.666 227.401 248.847 215.019 241.092 210.998C235.407 208.094 228.444 210.348 225.54 216.033C224.768 217.545 224.338 219.206 224.281 220.901Z" fill="#FF8B7B"/>
<path d="M223.304 228.288L227.813 230.966L228.382 223.678L232.074 221.567L236.569 214.817C236.569 214.817 226.806 211.967 223.895 211.582C222.876 211.447 219.306 214.222 218.778 215.389C217.284 218.688 218.066 222.524 220.355 225.331C221.235 226.41 222.222 227.4 223.304 228.288Z" fill="#263238"/>
<path d="M220.208 226.889C220.441 228.737 221.343 230.435 222.743 231.662C224.572 233.221 226.676 231.381 226.852 229.02C226.997 226.91 225.838 223.872 223.673 223.235C221.506 222.598 219.929 224.586 220.208 226.889Z" fill="#FF8B7B"/>
<path d="M236.891 225.47C236.787 226.152 237.057 226.781 237.508 226.86C237.959 226.939 238.352 226.463 238.501 225.782C238.65 225.101 238.335 224.471 237.883 224.383C237.431 224.295 236.993 224.779 236.891 225.47Z" fill="#263238"/>
<path d="M244.602 226.902C244.491 227.595 244.77 228.222 245.22 228.301C245.67 228.38 246.108 227.896 246.213 227.223C246.318 226.549 246.038 225.914 245.596 225.833C245.155 225.753 244.705 226.22 244.602 226.902Z" fill="#263238"/>
<path d="M242.05 226.95C242.348 228.892 242.9 230.787 243.692 232.584C242.471 233.282 240.846 232.399 240.846 232.399L242.05 226.95Z" fill="#FF5652"/>
<path d="M239.63 236.311C238.021 236.067 236.583 235.173 235.652 233.839C235.591 233.743 235.619 233.617 235.713 233.555C235.812 233.5 235.936 233.531 235.998 233.625C237.033 235.063 238.679 235.937 240.45 235.99C240.564 235.985 240.66 236.074 240.664 236.188C240.668 236.302 240.579 236.398 240.465 236.402C240.456 236.402 240.446 236.402 240.437 236.401C240.167 236.39 239.897 236.36 239.63 236.311Z" fill="#263238"/>
<path d="M235.752 222.765C235.686 222.746 235.625 222.709 235.579 222.658C235.429 222.489 235.442 222.231 235.609 222.079C236.552 221.181 237.881 220.814 239.151 221.099C239.367 221.155 239.497 221.375 239.441 221.591C239.44 221.596 239.438 221.601 239.437 221.606C239.371 221.822 239.145 221.945 238.928 221.883C237.93 221.679 236.895 221.976 236.157 222.678C236.05 222.784 235.892 222.817 235.752 222.765Z" fill="#263238"/>
<path d="M245.329 222.463C245.301 222.399 245.289 222.329 245.295 222.259C245.35 222.04 245.571 221.905 245.79 221.957C247.066 222.219 248.126 223.105 248.61 224.314C248.683 224.525 248.571 224.756 248.36 224.83C248.148 224.903 247.918 224.792 247.844 224.58C247.445 223.639 246.607 222.956 245.605 222.753C245.469 222.71 245.365 222.601 245.329 222.463Z" fill="#263238"/>
<path d="M248.197 320.805L300.332 313.931C300.871 313.86 301.253 313.361 301.182 312.822C301.111 312.283 300.612 311.901 300.073 311.972L247.938 318.846C247.399 318.917 247.017 319.416 247.088 319.955C247.159 320.494 247.658 320.876 248.197 320.805Z" fill="#407BFF"/>
<path opacity="0.5" d="M248.197 320.805L300.332 313.931C300.871 313.86 301.253 313.361 301.182 312.822C301.111 312.283 300.612 311.901 300.073 311.972L247.938 318.846C247.399 318.917 247.017 319.416 247.088 319.955C247.159 320.494 247.658 320.876 248.197 320.805Z" fill="black"/>
<path d="M222.501 320.536L247.797 320.82C248.341 320.826 248.79 320.386 248.796 319.843C248.802 319.3 248.362 318.851 247.819 318.844L222.522 318.559C221.979 318.553 221.529 318.993 221.524 319.536C221.518 320.081 221.957 320.53 222.501 320.536Z" fill="#407BFF"/>
<path opacity="0.5" d="M222.501 320.536L247.797 320.82C248.341 320.826 248.79 320.386 248.796 319.843C248.802 319.3 248.362 318.851 247.819 318.844L222.522 318.559C221.979 318.553 221.529 318.993 221.524 319.536C221.518 320.081 221.957 320.53 222.501 320.536Z" fill="white"/>
<path d="M249.374 319.654L221.525 319.473C221.525 319.473 220.587 318.922 222.459 318.56C224.331 318.198 248.503 314.977 248.503 314.977L249.374 319.654Z" fill="#407BFF"/>
<path d="M249.374 319.654L222.185 319.386C222.185 319.386 221.247 318.834 223.119 318.473C224.991 318.111 248.502 314.978 248.502 314.978L249.374 319.654Z" fill="#407BFF"/>
<path opacity="0.2" d="M249.374 319.654L222.185 319.386C222.185 319.386 221.247 318.834 223.119 318.473C224.991 318.111 248.502 314.978 248.502 314.978L249.374 319.654Z" fill="white"/>
<path d="M249.36 318.659L297.974 312.249C299.689 312.023 301.031 310.418 300.955 308.683L299.863 283.783C299.787 282.048 298.321 280.813 296.606 281.039L247.992 287.448C246.276 287.674 244.935 289.279 245.011 291.014L246.103 315.914C246.178 317.651 247.644 318.885 249.36 318.659Z" fill="#407BFF"/>
<path opacity="0.4" d="M249.36 318.659L297.974 312.249C299.689 312.023 301.031 310.418 300.955 308.683L299.863 283.783C299.787 282.048 298.321 280.813 296.606 281.039L247.992 287.448C246.276 287.674 244.935 289.279 245.011 291.014L246.103 315.914C246.178 317.651 247.644 318.885 249.36 318.659Z" fill="black"/>
<path d="M250.776 318.365L299.39 311.955C301.105 311.729 302.447 310.124 302.371 308.389L301.279 283.489C301.203 281.754 299.737 280.519 298.022 280.745L249.408 287.155C247.692 287.381 246.351 288.986 246.427 290.721L247.519 315.621C247.594 317.356 249.06 318.591 250.776 318.365Z" fill="#407BFF"/>
<path opacity="0.7" d="M250.776 318.365L299.39 311.955C301.105 311.729 302.447 310.124 302.371 308.389L301.279 283.489C301.203 281.754 299.737 280.519 298.022 280.745L249.408 287.155C247.692 287.381 246.351 288.986 246.427 290.721L247.519 315.621C247.594 317.356 249.06 318.591 250.776 318.365Z" fill="white"/>
<path d="M279.062 301.055C278.896 303.425 276.841 305.346 274.471 305.346C272.101 305.346 270.314 303.425 270.48 301.055C270.646 298.685 272.701 296.764 275.071 296.764C277.441 296.764 279.228 298.685 279.062 301.055Z" fill="#407BFF"/>
<path d="M237.379 307.839L241.529 308.36L237.266 317.276C237.266 317.276 228.457 315.701 229.548 311.801L231.438 310.262C233.053 308.924 235.14 307.47 237.379 307.839Z" fill="#FF8B7B"/>
<path d="M245.953 313.262L242.66 317.879L237.265 317.267L241.529 308.36L245.953 313.262Z" fill="#FF8B7B"/>
<path d="M218.354 214.611C217.615 213.239 216.866 211.84 216.572 210.31C216.278 208.78 216.503 207.07 217.532 205.9C218.55 204.743 220.137 204.308 221.631 203.93C226.728 202.637 231.824 201.343 236.921 200.05C239.028 199.515 241.269 198.983 243.341 199.641C246.981 200.798 249.26 202.369 250.337 206.034C251.046 208.449 250.938 213.976 249.256 215.849C247.973 217.277 245.846 217.494 243.928 217.568C235.534 217.893 227.105 217.326 218.83 215.882L218.354 214.611Z" fill="#407BFF"/>
<path d="M227.291 216.934C227.355 216.405 227.227 217.462 227.291 216.934C229.702 213.658 235.068 210.907 237.461 210.582C241.388 210.049 245.546 210.992 248.7 213.39C251.855 215.788 253.905 219.666 253.845 223.628C253.831 224.564 253.471 225.741 252.539 225.82C251.693 225.892 251.253 224.082 250.748 223.399C249.059 221.116 245.559 221.206 243.007 222.452C241.67 223.105 240.342 224.282 238.908 223.884C237.931 223.614 227.291 216.934 227.291 216.934Z" fill="#263238"/>
<path d="M214.956 266.214H227.673V269.55L222.383 272.304L215.316 270.208L214.956 266.214Z" fill="#263238"/>
<path d="M237.342 266.214H248.078V269.55L243.612 272.304L237.646 270.208L237.342 266.214Z" fill="#263238"/>
<path d="M281.24 239.978C280.69 240.528 280.08 240.808 279.46 240.898C278.04 241.098 276.54 240.308 275.43 239.378C275.35 239.628 275.25 239.888 275.13 240.138L272.53 237.688L269.93 235.238C270.18 235.098 270.42 234.988 270.67 234.888C269.31 233.458 268.18 231.288 269.52 229.448C269.59 229.358 269.67 229.258 269.75 229.168C269.83 229.078 269.93 229.048 270.02 229.068C270.23 229.088 270.4 229.358 270.2 229.588C268.69 231.278 270.1 233.438 271.4 234.688C272.21 234.518 273.01 234.558 273.7 234.848C273.7 234.838 273.7 234.828 273.71 234.818C274.64 233.568 274.88 232.188 273.76 231.128C273.34 230.728 272.8 230.398 272.25 230.208C272.15 230.178 272.19 230.018 272.29 230.058C273.01 230.298 273.71 230.748 274.18 231.338C275.07 232.448 274.67 233.768 273.83 234.908C273.87 234.928 273.91 234.938 273.95 234.958C274.11 234.668 274.41 234.458 274.76 234.438L274.75 235.358L275.67 235.298C275.66 235.638 275.47 235.948 275.19 236.128C275.21 236.158 275.23 236.198 275.25 236.238C276.34 235.348 277.65 234.878 278.82 235.698C279.43 236.138 279.92 236.808 280.21 237.508C280.25 237.608 280.09 237.648 280.05 237.558C279.83 237.018 279.47 236.508 279.05 236.108C277.93 235.058 276.55 235.368 275.34 236.358C275.34 236.368 275.33 236.368 275.32 236.368C275.64 237.038 275.73 237.828 275.61 238.648C276.73 239.688 278.53 240.768 280.04 240.078C280.3 239.958 280.55 239.788 280.79 239.558C281.09 239.258 281.54 239.688 281.24 239.978Z" fill="#263238"/>
<path d="M272.526 237.687L269.269 234.621C268.975 234.783 268.687 234.972 268.407 235.18C266.333 235.003 263.857 235.492 263.218 237.786C263.106 238.188 263.723 238.312 263.835 237.909C264.311 236.198 266.078 235.746 267.7 235.777C267.605 235.867 267.509 235.955 267.417 236.052C265.069 238.516 264.738 241.994 266.678 243.82C268.618 245.646 272.095 245.13 274.443 242.666C274.562 242.541 274.673 242.413 274.781 242.283C274.939 243.936 274.621 245.825 272.865 246.411C272.467 246.544 272.624 247.15 273.022 247.017C275.365 246.235 275.671 243.617 275.332 241.534C275.498 241.278 275.652 241.017 275.781 240.752L272.526 237.687Z" fill="#263238"/>
<path d="M288.074 254.357H283.655L284.351 249.938H288.77L288.074 254.357Z" fill="#263238"/>
<path d="M293.286 253.758C293.21 254.239 292.964 254.676 292.616 255.004C292.213 255.396 291.669 255.642 291.106 255.642H280.026C279.616 255.642 279.258 255.512 278.987 255.287C278.562 254.949 278.34 254.39 278.439 253.758C278.439 253.758 283.644 252.147 284.272 252.147C284.896 252.147 288.206 252.147 288.206 252.147L293.286 253.758Z" fill="#263238"/>
<path d="M294.49 243.538L294.46 243.728C294.37 244.308 293.85 244.748 293.27 244.748H281.53C281.21 244.748 280.94 244.618 280.75 244.408C280.55 244.188 280.45 243.878 280.5 243.538H283.57C284.59 241.648 286.37 240.338 288.19 240.338C290.02 240.338 291.39 241.648 291.81 243.538H294.49Z" fill="#263238"/>
<path d="M283.05 244.75C282.93 245.1 282.84 245.48 282.78 245.86C282.46 247.88 283.07 249.64 284.25 250.6C284.85 251.1 285.6 251.38 286.45 251.38C287.2 251.38 287.95 251.16 288.64 250.75C290.24 249.84 291.52 247.99 291.86 245.86C291.92 245.48 291.95 245.1 291.95 244.75H283.05ZM289.2 246.66L287.17 245.73L285.15 246.66L284.03 245.21L287.17 245.7L290.31 245.21L289.2 246.66Z" fill="#263238"/>
<path d="M269.753 229.172C269.673 229.262 269.593 229.362 269.523 229.452C269.683 229.322 269.853 229.192 270.023 229.072C269.933 229.052 269.833 229.082 269.753 229.172Z" fill="#407BFF"/>
<path d="M281.323 222.232C269.663 222.232 259.513 231.722 258.693 243.382C258.063 252.462 263.273 260.222 271.113 263.212C271.153 263.232 271.193 263.242 271.233 263.262C272.433 263.702 273.683 264.052 274.983 264.262H274.993C275.393 264.332 275.793 264.382 276.203 264.422C276.913 264.492 277.633 264.532 278.363 264.532C290.023 264.532 300.173 255.042 300.993 243.382C301.803 231.722 292.983 222.232 281.323 222.232ZM261.893 243.382C262.283 237.762 265.233 232.742 269.523 229.452C269.593 229.362 269.673 229.262 269.753 229.172C269.833 229.082 269.933 229.052 270.023 229.072C273.193 226.782 277.033 225.432 281.093 225.432C284.023 225.432 286.743 226.142 289.103 227.392L280.043 240.082C280.303 239.962 280.553 239.792 280.793 239.562C281.093 239.262 281.543 239.692 281.243 239.982C280.693 240.532 280.083 240.812 279.463 240.902L267.673 257.412C263.783 254.112 261.493 249.052 261.893 243.382ZM297.793 243.382C297.103 253.282 288.483 261.332 278.583 261.332C275.503 261.332 272.663 260.552 270.223 259.172L280.753 244.412C280.553 244.192 280.453 243.882 280.503 243.542H281.373L291.693 229.092C295.773 232.382 298.203 237.562 297.793 243.382Z" fill="#407BFF"/>
<path d="M269.753 229.172C269.673 229.262 269.593 229.362 269.523 229.452C269.683 229.322 269.853 229.192 270.023 229.072C269.933 229.052 269.833 229.082 269.753 229.172Z" fill="#407BFF"/>
<path opacity="0.3" d="M281.323 222.232C269.663 222.232 259.513 231.722 258.693 243.382C258.063 252.462 263.273 260.222 271.113 263.212C271.153 263.232 271.193 263.242 271.233 263.262C272.433 263.702 273.683 264.052 274.983 264.262H274.993C275.393 264.332 275.793 264.382 276.203 264.422C276.913 264.492 277.633 264.532 278.363 264.532C290.023 264.532 300.173 255.042 300.993 243.382C301.803 231.722 292.983 222.232 281.323 222.232ZM261.893 243.382C262.283 237.762 265.233 232.742 269.523 229.452C269.593 229.362 269.673 229.262 269.753 229.172C269.833 229.082 269.933 229.052 270.023 229.072C273.193 226.782 277.033 225.432 281.093 225.432C284.023 225.432 286.743 226.142 289.103 227.392L280.043 240.082C280.303 239.962 280.553 239.792 280.793 239.562C281.093 239.262 281.543 239.692 281.243 239.982C280.693 240.532 280.083 240.812 279.463 240.902L267.673 257.412C263.783 254.112 261.493 249.052 261.893 243.382ZM297.793 243.382C297.103 253.282 288.483 261.332 278.583 261.332C275.503 261.332 272.663 260.552 270.223 259.172L280.753 244.412C280.553 244.192 280.453 243.882 280.503 243.542H281.373L291.693 229.092C295.773 232.382 298.203 237.562 297.793 243.382Z" fill="white"/>
<path d="M276.579 262.03L270.459 270.58L271.489 260.82C273.09 261.43 274.789 261.85 276.579 262.03Z" fill="#407BFF"/>
<path opacity="0.3" d="M276.579 262.03L270.459 270.58L271.489 260.82C273.09 261.43 274.789 261.85 276.579 262.03Z" fill="white"/>
<path d="M288.22 245.71L288.17 245.73L288.12 245.71L288.17 245.7L288.22 245.71Z" fill="#F0F0F0"/>
</g>
<defs>
<clipPath id="clip0_1_2">
<rect width="500" height="500" fill="white"/>
</clipPath>
</defs>
</svg>
