<svg width="473" height="437" viewBox="0 0 473 437" fill="none" xmlns="http://www.w3.org/2000/svg">
<path d="M59.274 364.233H79.3661L79.3661 254.951H59.274L59.274 364.233Z" fill="#E0E0E0"/>
<path d="M63.0897 364.233H59.2735V353.355H67.0912L63.0897 364.233Z" fill="#EBEBEB"/>
<path d="M154.461 249.298H134.368V364.233H154.461V249.298Z" fill="#E0E0E0"/>
<path d="M59.2731 357.557H137.698V249.297H59.2731L59.2731 357.557Z" fill="#EBEBEB"/>
<path d="M62.2336 300.997V343.958H97.2044V300.997H62.2336Z" fill="#E0E0E0"/>
<path d="M99.7664 300.997V343.958H134.737V300.997H99.7664Z" fill="#E0E0E0"/>
<path d="M113.793 304.04H120.712C123.718 304.04 126.591 302.802 128.658 300.616H105.848C107.915 302.802 110.788 304.04 113.793 304.04Z" fill="#EBEBEB"/>
<path d="M75.907 304.04H82.8261C85.8315 304.04 88.7045 302.802 90.7715 300.616H67.9616C70.0286 302.802 72.9016 304.04 75.907 304.04Z" fill="#EBEBEB"/>
<path d="M62.2337 252.664V295.625H97.2045V252.664H62.2337Z" fill="#E0E0E0"/>
<path d="M99.7664 252.664V295.626H134.737V252.664H99.7664Z" fill="#E0E0E0"/>
<path d="M113.793 255.707H120.712C123.718 255.707 126.591 254.469 128.658 252.283H105.848C107.915 254.469 110.788 255.707 113.793 255.707Z" fill="#EBEBEB"/>
<path d="M75.907 255.707H82.8261C85.8315 255.707 88.7045 254.469 90.7715 252.283H67.9616C70.0286 254.469 72.9016 255.707 75.907 255.707Z" fill="#EBEBEB"/>
<path d="M133.882 364.233H137.699V353.355H129.881L133.882 364.233Z" fill="#EBEBEB"/>
<path d="M253.812 138.698H301.708V82.8596H253.812V138.698Z" fill="#E0E0E0"/>
<path d="M248.315 138.698H300.729V82.8596H248.315V138.698Z" fill="#F5F5F5"/>
<path d="M296.338 134.298V87.26L252.706 87.26V134.298H296.338Z" fill="#FAFAFA"/>
<path d="M285.763 122.896V98.6616H263.282V122.896H285.763Z" fill="#F5F5F5"/>
<path d="M343.437 204.661H415.818V70.1429H343.437V204.661Z" fill="#E0E0E0"/>
<path d="M338.291 204.661H413.412V70.1429H338.291V204.661Z" fill="#EBEBEB"/>
<path d="M343.437 214.246H415.818V204.661H343.437V214.246Z" fill="#E0E0E0"/>
<path d="M329.716 214.246H404.838V204.661H329.716V214.246Z" fill="#EBEBEB"/>
<path d="M406.207 197.44V77.3641L345.497 77.3641V197.44H406.207Z" fill="#F5F5F5"/>
<path d="M395.326 197.44L370.042 77.3644H358.106L383.391 197.44H395.326Z" fill="#FAFAFA"/>
<path d="M402.87 156.701C402.585 156.701 402.356 156.469 402.356 156.185V82.0627C402.356 81.7783 402.585 81.5469 402.87 81.5469C403.155 81.5469 403.385 81.7783 403.385 82.0627V156.185C403.385 156.47 403.155 156.701 402.87 156.701Z" fill="#EBEBEB"/>
<path d="M380.826 197.44L355.543 77.3644H350.889L376.173 197.44H380.826Z" fill="#FAFAFA"/>
<path d="M346.412 197.44V77.3641H345.497V197.44H346.412Z" fill="#E0E0E0"/>
<path d="M336.586 86.6026H408.966L409.629 80.1714H337.249L336.586 86.6026Z" fill="#E0E0E0"/>
<path d="M336.586 91.3104H408.966L409.629 84.8792H337.249L336.586 91.3104Z" fill="#E0E0E0"/>
<path d="M336.586 96.9605H408.966L409.629 90.5283H337.249L336.586 96.9605Z" fill="#E0E0E0"/>
<path d="M336.586 103.247H408.966L409.629 96.8145H337.249L336.586 103.247Z" fill="#E0E0E0"/>
<path d="M336.586 110.779H408.966L409.629 104.347H337.249L336.586 110.779Z" fill="#E0E0E0"/>
<path d="M336.586 119.253H408.966L409.629 112.821H337.249L336.586 119.253Z" fill="#E0E0E0"/>
<path d="M372.928 234.169C372.928 237.039 370.935 239.039 373.799 239.039C376.662 239.039 383.297 237.039 383.297 234.169C383.297 231.3 380.976 228.973 378.112 228.973C375.25 228.973 372.928 231.3 372.928 234.169Z" fill="#E0E0E0"/>
<path d="M364.053 236.645C364.053 239.515 362.06 241.515 364.923 241.515C367.787 241.515 374.422 239.515 374.422 236.645C374.422 233.776 372.101 231.449 369.237 231.449C366.374 231.449 364.053 233.776 364.053 236.645Z" fill="#E0E0E0"/>
<path d="M355.551 235.119C355.551 237.989 353.558 239.989 356.422 239.989C359.285 239.989 365.92 237.989 365.92 235.119C365.92 232.25 363.599 229.923 360.735 229.923C357.872 229.924 355.551 232.25 355.551 235.119Z" fill="#E0E0E0"/>
<path d="M386.476 235.798C386.476 235.798 386.052 245.935 369.8 245.935C353.548 245.935 353.124 235.798 353.124 235.798H386.476Z" fill="#EBEBEB"/>
<path d="M195.089 362.513H202.459L202.459 245.937H195.089V362.513Z" fill="#E0E0E0"/>
<path d="M192.763 362.513H197.882L197.882 245.937H192.763V362.513Z" fill="#F0F0F0"/>
<path d="M344.189 245.937H191.178V255.012H344.189V245.937Z" fill="#F0F0F0"/>
<path d="M347.489 362.512H354.859V255.012H347.489V362.512Z" fill="#E0E0E0"/>
<path d="M345.163 362.512H350.282V255.012H345.163V362.512Z" fill="#F0F0F0"/>
<path d="M394.129 362.512H401.5V255.012H394.129V362.512Z" fill="#E0E0E0"/>
<path d="M391.803 362.512H396.922V255.012H391.803V362.512Z" fill="#F0F0F0"/>
<path d="M241.73 362.512H249.1V255.012H241.73V362.512Z" fill="#E0E0E0"/>
<path d="M239.403 362.512H244.522V255.012H239.403V362.512Z" fill="#F0F0F0"/>
<path d="M344.189 255.012H401.5V245.937H344.189V255.012Z" fill="#E0E0E0"/>
<path d="M345.162 207.525H283.655L274.741 243.923H336.248L345.162 207.525Z" fill="#E0E0E0"/>
<path d="M336.248 243.923L335.999 245.935H274.489L274.737 243.923H336.248Z" fill="#E0E0E0"/>
<path d="M343.269 207.525H281.762L272.847 243.923H334.355L343.269 207.525Z" fill="#F0F0F0"/>
<path d="M333.054 242.26L341.154 209.188H283.063L274.962 242.26H333.054Z" fill="#FAFAFA"/>
<path d="M318.329 243.923L318.08 245.935H250.348L250.596 243.923H318.329Z" fill="#F0F0F0"/>
<path d="M199.504 231.107C199.684 231.107 199.855 231.139 200.029 231.16V229.969C200.029 229.14 200.7 228.468 201.526 228.468H213.193C214.02 228.468 214.691 229.14 214.691 229.969V245.935H200.028V243.244C199.854 243.265 199.683 243.298 199.503 243.298C197.069 243.298 195.088 241.312 195.088 238.873V235.532C195.089 233.092 197.07 231.107 199.504 231.107ZM196.981 238.874C196.981 240.269 198.112 241.402 199.504 241.402C199.685 241.402 199.86 241.382 200.029 241.346V233.061C199.86 233.025 199.684 233.004 199.504 233.004C198.112 233.004 196.981 234.138 196.981 235.532V238.874Z" fill="#E0E0E0"/>
<path d="M262.916 362.513H264.964L270.813 333.621L271.842 328.56L278.223 297.074H302.693L315.951 362.513H317.999L304.489 295.866C304.393 295.399 303.986 295.066 303.505 295.066H277.402C276.929 295.066 276.515 295.4 276.426 295.866L270.821 323.521L269.793 328.575L262.916 362.513Z" fill="#F0F0F0"/>
<path d="M223.636 362.513H225.684L238.95 297.074H263.412L269.794 328.575L270.814 333.621L276.671 362.513H278.719L271.842 328.56L270.821 323.521L265.216 295.866C265.119 295.399 264.706 295.066 264.232 295.066H238.129C237.648 295.066 237.242 295.4 237.145 295.866L223.636 362.513Z" fill="#F0F0F0"/>
<path d="M283.946 296.068H238.989C230.406 296.068 223.4 289.188 223.225 280.589L221.548 212.12C221.418 205.673 226.596 200.377 233.031 200.377H261.213C267.053 200.377 271.963 204.768 272.624 210.582L283.946 296.068Z" fill="#F0F0F0"/>
<path d="M303.422 287.435H259.426V296.068H307.334C308.574 296.068 309.579 295.06 309.579 293.817V293.606C309.579 290.198 306.823 287.435 303.422 287.435Z" fill="#F0F0F0"/>
<path d="M54.7603 204.661H127.141L127.141 70.1429H54.7603L54.7603 204.661Z" fill="#E0E0E0"/>
<path d="M49.6136 204.661H124.735L124.735 70.1429H49.6136L49.6136 204.661Z" fill="#EBEBEB"/>
<path d="M54.7603 214.246H127.141V204.661H54.7603V214.246Z" fill="#E0E0E0"/>
<path d="M41.0389 214.246H116.161V204.661H41.0389V214.246Z" fill="#EBEBEB"/>
<path d="M117.53 197.44L117.53 77.3643L56.8202 77.3643L56.8202 197.44H117.53Z" fill="#F5F5F5"/>
<path d="M106.649 197.44L81.3655 77.3644H69.4298L94.7135 197.44H106.649Z" fill="#FAFAFA"/>
<path d="M114.194 156.701C113.91 156.701 113.679 156.469 113.679 156.185V82.0627C113.679 81.7783 113.91 81.5469 114.194 81.5469C114.477 81.5469 114.708 81.7783 114.708 82.0627V156.185C114.708 156.47 114.477 156.701 114.194 156.701Z" fill="#EBEBEB"/>
<path d="M92.1499 197.44L66.8661 77.3644H62.2127L87.4965 197.44H92.1499Z" fill="#FAFAFA"/>
<path d="M57.7349 197.44L57.7349 77.3643H56.8201L56.8201 197.44H57.7349Z" fill="#E0E0E0"/>
<path d="M47.9092 86.6026H120.29L120.953 80.1714H48.5724L47.9092 86.6026Z" fill="#E0E0E0"/>
<path d="M47.9092 91.3104H120.29L120.953 84.8792H48.5724L47.9092 91.3104Z" fill="#E0E0E0"/>
<path d="M47.9092 96.9605H120.29L120.953 90.5283H48.5724L47.9092 96.9605Z" fill="#E0E0E0"/>
<path d="M47.9092 103.247H120.29L120.953 96.8145H48.5724L47.9092 103.247Z" fill="#E0E0E0"/>
<path d="M47.9092 110.779H120.29L120.953 104.347H48.5724L47.9092 110.779Z" fill="#E0E0E0"/>
<path d="M47.9092 119.253H120.29L120.953 112.821H48.5724L47.9092 119.253Z" fill="#E0E0E0"/>
<path d="M282.821 195.261H318.625V153.836H282.821V195.261Z" fill="#E0E0E0"/>
<path d="M278.743 195.261H317.628V153.836H278.743V195.261Z" fill="#F5F5F5"/>
<path d="M314.371 191.997V157.101H282.002V191.997H314.371Z" fill="#FAFAFA"/>
<path d="M306.525 175.182V173.915C306.525 169.3 302.791 165.559 298.186 165.559C293.581 165.559 289.847 169.3 289.847 173.915V175.182C289.847 179.797 293.581 183.538 298.186 183.538C302.791 183.538 306.525 179.797 306.525 175.182Z" fill="#F5F5F5"/>
<path d="M172.889 178.215H215.186V129.458H172.889V178.215Z" fill="#E0E0E0"/>
<path d="M168.09 178.215H213.857V129.458H168.09V178.215Z" fill="#F5F5F5"/>
<path d="M210.022 174.373V133.301H171.924V174.373H210.022Z" fill="#FAFAFA"/>
<path d="M190.973 143.454L201.392 161.539H180.554L190.973 143.454Z" fill="#F5F5F5"/>
<path d="M236.5 405.328C337.8 405.328 419.919 400.522 419.919 394.594C419.919 388.665 337.8 383.859 236.5 383.859C135.2 383.859 53.081 388.665 53.081 394.594C53.081 400.522 135.2 405.328 236.5 405.328Z" fill="#F5F5F5"/>
<path d="M298.744 99.7874C299.56 99.7874 300.366 99.8291 301.166 99.8936C306.934 88.9281 318.415 81.4484 331.645 81.4484C348.24 81.4484 362.091 93.2112 365.355 108.87C367.942 108.008 370.706 107.536 373.582 107.536C387.994 107.536 399.677 119.245 399.677 133.688C399.677 148.131 387.994 159.839 373.582 159.839H298.743C282.196 159.839 268.781 146.397 268.781 129.814C268.782 113.23 282.197 99.7874 298.744 99.7874Z" fill="#407BFF"/>
<path opacity="0.3" d="M298.744 99.7874C299.56 99.7874 300.366 99.8291 301.166 99.8936C306.934 88.9281 318.415 81.4484 331.645 81.4484C348.24 81.4484 362.091 93.2112 365.355 108.87C367.942 108.008 370.706 107.536 373.582 107.536C387.994 107.536 399.677 119.245 399.677 133.688C399.677 148.131 387.994 159.839 373.582 159.839H298.743C282.196 159.839 268.781 146.397 268.781 129.814C268.782 113.23 282.197 99.7874 298.744 99.7874Z" fill="black"/>
<path d="M303.681 124.973L309.173 115.442C309.825 114.31 311.454 114.31 312.106 115.442L317.599 124.973C318.251 126.105 317.436 127.519 316.131 127.519H313.637C314.743 135.91 321.373 142.581 329.743 143.699C331.159 143.888 332.232 145.068 332.232 146.5C332.232 148.225 330.706 149.522 328.999 149.295C317.865 147.812 309.079 138.781 307.947 127.519H305.147C303.844 127.519 303.029 126.104 303.681 124.973Z" fill="#FAFAFA"/>
<path d="M332.232 103.596C332.232 101.87 333.759 100.573 335.466 100.801C346.598 102.284 355.384 111.315 356.517 122.576H359.317C360.621 122.576 361.436 123.991 360.785 125.123L355.293 134.654C354.641 135.786 353.011 135.786 352.359 134.654L346.867 125.123C346.215 123.991 347.03 122.576 348.334 122.576H350.829C349.723 114.186 343.092 107.515 334.724 106.397C333.306 106.208 332.232 105.028 332.232 103.596Z" fill="#FAFAFA"/>
<path d="M238.379 387.352L244.834 385.557L241.332 370.396L234.877 372.19L238.379 387.352Z" fill="#FF8B7B"/>
<path d="M161.228 387.14L167.845 388.189L170.77 373.05H164.07L161.228 387.14Z" fill="#FF8B7B"/>
<path d="M168.436 387.496L161.002 386.318C160.731 386.276 160.467 386.427 160.367 386.683L158.13 392.37C157.898 392.959 158.286 393.614 158.913 393.702C161.515 394.069 162.8 394.116 166.07 394.634C168.081 394.953 170.008 395.454 178.891 395.454C181.641 395.454 182.071 392.668 180.92 392.415C175.757 391.284 170.847 389.803 169.447 388.074C169.194 387.761 168.832 387.558 168.436 387.496Z" fill="#263238"/>
<path d="M244.584 384.821L237.534 386.779C237.27 386.852 237.092 387.1 237.106 387.374L237.422 393.479C237.455 394.112 238.063 394.551 238.669 394.372C241.201 393.622 244.834 392.451 248.031 391.563C251.768 390.525 255.053 389.832 259.437 388.614C262.087 387.877 262.08 384.988 260.903 385.053C255.546 385.349 251.389 386.376 246.279 384.892C245.724 384.732 245.142 384.665 244.584 384.821Z" fill="#263238"/>
<path d="M241.332 370.401L243.138 378.215L236.68 380.01L234.874 372.195L241.332 370.401Z" fill="#EA7063"/>
<path d="M164.07 373.05H170.772L169.221 381.07H162.448L164.07 373.05Z" fill="#EA7063"/>
<path d="M218.038 159.788C218.038 159.788 225.945 180.062 218.434 217.819C207.638 217.819 187.854 217.819 182.6 217.819C182.353 212.306 185.81 185.416 180.503 159.442C180.503 159.442 186.646 158.207 192.499 157.924C197.077 157.704 203.707 157.557 207.732 157.925C213.04 158.41 218.038 159.788 218.038 159.788Z" fill="#407BFF"/>
<path opacity="0.1" d="M218.038 159.788C218.038 159.788 225.945 180.062 218.434 217.819C207.638 217.819 187.854 217.819 182.6 217.819C182.353 212.306 185.81 185.416 180.503 159.442C180.503 159.442 186.646 158.207 192.499 157.924C197.077 157.704 203.707 157.557 207.732 157.925C213.04 158.41 218.038 159.788 218.038 159.788Z" fill="black"/>
<path d="M236.816 195.523C236.668 194.944 236.424 194.341 236.265 193.968L235.945 193.186L235.307 191.613L234.028 188.439L231.457 182.052C229.739 177.79 227.958 173.531 226.112 169.327L216.34 173.426C218.067 177.748 219.898 181.999 221.845 186.222C222.809 188.338 223.806 190.439 224.828 192.54C225.337 193.592 225.849 194.642 226.389 195.69L227.139 197.151C227.069 197.179 226.998 197.209 226.926 197.234C225.325 197.855 223.212 198.29 221.101 198.61C216.836 199.23 212.252 199.568 207.791 199.793L207.33 205.032C212.066 205.954 216.732 206.524 221.676 206.517C224.158 206.484 226.659 206.376 229.489 205.682C230.2 205.498 230.941 205.265 231.733 204.929C232.524 204.585 233.374 204.157 234.289 203.413C235.184 202.676 236.204 201.525 236.724 199.94C237.25 198.368 237.147 196.694 236.816 195.523Z" fill="#FF8B7B"/>
<path d="M210.083 164.382C207.825 170.39 219.264 188.078 219.264 188.078L232.663 180.786C232.663 180.786 229.539 171.963 224.92 165.069C220.178 157.989 212.561 157.79 210.083 164.382Z" fill="#407BFF"/>
<path opacity="0.1" d="M210.083 164.382C207.825 170.39 219.264 188.078 219.264 188.078L232.663 180.786C232.663 180.786 229.539 171.963 224.92 165.069C220.178 157.989 212.561 157.79 210.083 164.382Z" fill="black"/>
<path d="M196.814 196.081L196.189 203.15L202.555 203.994L203.626 196.243L196.814 196.081Z" fill="#FF8B7B"/>
<path d="M208.68 200.163L203.625 196.243L202.555 203.994C202.555 203.994 207.088 207.274 210.213 204.213L208.68 200.163Z" fill="#FF8B7B"/>
<path d="M194.009 140.735C194.971 145.647 195.929 154.646 192.5 157.924C192.5 157.924 194.469 162.906 203.576 162.906C211.899 162.906 207.732 157.924 207.732 157.924C202.266 156.616 202.673 149.682 203.972 144.602L194.009 140.735Z" fill="#FF8B7B"/>
<path d="M194.862 147.584V147.575L198.15 145.181C198.328 145.691 201.128 147.573 200.703 148.584C199.278 151.97 196.623 153.18 194.71 152.577C194.924 150.996 194.951 149.281 194.862 147.584Z" fill="#EA7063"/>
<path d="M193.571 130.429L187.948 126.603C185.302 128.867 184.838 134.965 188.205 138.797C194.939 137.566 193.571 130.429 193.571 130.429Z" fill="#263238"/>
<path d="M205.639 132.761C205.676 139.805 206.054 143.927 202.757 147.765C197.798 153.537 188.942 150.901 186.806 144.009C184.882 137.805 185.146 127.326 191.814 124.076C198.383 120.875 205.602 125.716 205.639 132.761Z" fill="#FF8B7B"/>
<path d="M206.987 128.314L200.277 127.227C198.834 130.401 200.985 136.123 205.653 138.169C211.237 134.203 206.987 128.314 206.987 128.314Z" fill="#263238"/>
<path d="M192.687 128.995C189.802 129.31 179.991 129.046 184.939 119.055C184.93 120.266 186.067 123.543 188.881 119.973C191.241 116.979 196.506 121.005 195.976 118.098C195.976 118.098 197.824 119.095 196.923 120.228C196.022 121.361 203.138 117.773 207.169 120.116C205.116 120.322 204.894 123.166 207.879 125.079C210.722 126.901 208.669 131.586 205.066 130.705C201.466 129.824 199.883 128.211 192.687 128.995Z" fill="#263238"/>
<path d="M208.865 138.246C208.503 139.874 207.441 141.191 206.294 141.918C204.57 143.013 203.167 141.598 203.191 139.649C203.214 137.895 204.139 135.212 206.087 134.904C208.008 134.602 209.28 136.385 208.865 138.246Z" fill="#FF8B7B"/>
<path d="M218.435 217.818C218.435 217.818 231.808 271.221 234.54 291.524C237.381 312.643 244.161 375.241 244.161 375.241L233.637 378.603C233.637 378.603 218.677 317.116 214.656 296.587C210.272 274.207 194.881 217.819 194.881 217.819L218.435 217.818Z" fill="#407BFF"/>
<path opacity="0.6" d="M218.435 217.818C218.435 217.818 231.808 271.221 234.54 291.524C237.381 312.643 244.161 375.241 244.161 375.241L233.637 378.603C233.637 378.603 218.677 317.116 214.656 296.587C210.272 274.207 194.881 217.819 194.881 217.819L218.435 217.818Z" fill="#FAFAFA"/>
<path d="M233.133 379.347L244.879 375.651L244.718 371.284L231.894 375.477L233.133 379.347Z" fill="#407BFF"/>
<path opacity="0.2" d="M233.133 379.347L244.879 375.651L244.718 371.284L231.894 375.477L233.133 379.347Z" fill="black"/>
<path d="M202.348 221.766L199.229 233.992C202.126 244.915 206.003 259.723 209.273 273.039C209.781 244.201 202.348 221.766 202.348 221.766Z" fill="#407BFF"/>
<path opacity="0.4" d="M202.348 221.766L199.229 233.992C202.126 244.915 206.003 259.723 209.273 273.039C209.781 244.201 202.348 221.766 202.348 221.766Z" fill="#FAFAFA"/>
<path d="M205.723 217.818C205.723 217.818 202.682 272.699 198.508 291.921C193.937 312.971 172.153 379.517 172.153 379.517H159.883C159.883 379.517 175.801 314.671 178.409 293.83C181.24 271.21 182.601 217.818 182.601 217.818H205.723Z" fill="#407BFF"/>
<path opacity="0.6" d="M205.723 217.818C205.723 217.818 202.682 272.699 198.508 291.921C193.937 312.971 172.153 379.517 172.153 379.517H159.883C159.883 379.517 175.801 314.671 178.409 293.83C181.24 271.21 182.601 217.818 182.601 217.818H205.723Z" fill="#FAFAFA"/>
<path d="M158.987 379.702H173.05L174.335 375.924H158.987V379.702Z" fill="#407BFF"/>
<path opacity="0.2" d="M158.987 379.702H173.05L174.335 375.924H158.987V379.702Z" fill="black"/>
<path d="M164.828 372.251C164.822 372.251 164.816 372.25 164.809 372.249C164.747 372.24 164.704 372.18 164.715 372.117C164.818 371.496 179.623 313.304 181.966 294.582C184.509 274.263 185.304 225.637 185.358 225.185C185.366 225.122 185.423 225.082 185.485 225.085C185.548 225.092 185.593 225.149 185.585 225.212C185.531 225.665 184.736 274.291 182.193 294.611C179.85 313.335 165.044 371.533 164.941 372.154C164.932 372.212 164.883 372.251 164.828 372.251Z" fill="#407BFF"/>
<path opacity="0.4" d="M164.828 372.251C164.822 372.251 164.816 372.25 164.809 372.249C164.747 372.24 164.704 372.18 164.715 372.117C164.818 371.496 179.623 313.304 181.966 294.582C184.509 274.263 185.304 225.637 185.358 225.185C185.366 225.122 185.423 225.082 185.485 225.085C185.548 225.092 185.593 225.149 185.585 225.212C185.531 225.665 184.736 274.291 182.193 294.611C179.85 313.335 165.044 371.533 164.941 372.154C164.932 372.212 164.883 372.251 164.828 372.251Z" fill="#FAFAFA"/>
<path d="M195.148 135.431C195.186 136.003 194.915 136.485 194.542 136.511C194.169 136.536 193.836 136.093 193.799 135.521C193.761 134.95 194.031 134.467 194.404 134.442C194.778 134.417 195.111 134.86 195.148 135.431Z" fill="#263238"/>
<path d="M188.705 135.862C188.743 136.433 188.472 136.916 188.099 136.941C187.726 136.966 187.393 136.523 187.355 135.952C187.317 135.38 187.589 134.898 187.962 134.872C188.334 134.847 188.666 135.29 188.705 135.862Z" fill="#263238"/>
<path d="M190.772 136.009C190.772 136.009 189.695 139.391 188.373 141.077C189.445 141.953 191.131 141.407 191.131 141.407L190.772 136.009Z" fill="#FF5652"/>
<path d="M192.898 142.873C192.806 142.879 192.726 142.809 192.719 142.717C192.712 142.625 192.783 142.544 192.875 142.537C195.377 142.371 196.429 140.541 196.44 140.522C196.486 140.441 196.589 140.412 196.668 140.459C196.748 140.504 196.777 140.605 196.732 140.687C196.687 140.769 195.58 142.694 192.898 142.873Z" fill="#263238"/>
<path d="M196.952 133.219C196.851 133.225 196.748 133.186 196.677 133.103C195.696 131.97 194.47 132.124 194.458 132.127C194.287 132.157 194.105 132.024 194.079 131.839C194.054 131.655 194.183 131.486 194.366 131.46C194.431 131.451 195.967 131.256 197.183 132.663C197.305 132.803 197.289 133.016 197.15 133.137C197.092 133.187 197.022 133.214 196.952 133.219Z" fill="#263238"/>
<path d="M185.659 133.766C185.61 133.766 185.56 133.755 185.513 133.732C185.346 133.651 185.276 133.451 185.356 133.283C186.162 131.608 187.696 131.391 187.761 131.382C187.939 131.352 188.113 131.488 188.137 131.672C188.16 131.856 188.032 132.024 187.849 132.049C187.798 132.055 186.604 132.237 185.961 133.575C185.902 133.695 185.783 133.766 185.659 133.766Z" fill="#263238"/>
<path d="M184.05 170.524C182.241 175.582 180.367 180.654 178.478 185.687C176.614 190.704 174.659 195.798 173.027 200.656C171.551 205.313 170.468 210.64 169.39 215.859C168.308 221.105 167.24 226.417 166.105 231.693L160.882 231.183C160.843 225.68 161.029 220.229 161.444 214.745C161.674 212.007 161.897 209.261 162.272 206.495C162.628 203.742 163.051 200.903 163.775 198.023C164.474 195.225 165.247 192.6 166.061 189.968C166.864 187.344 167.711 184.745 168.578 182.159C170.316 176.985 172.153 171.88 174.133 166.79L184.05 170.524Z" fill="#FF8B7B"/>
<path d="M180.504 159.441C174.165 160.366 166.906 182.376 166.906 182.376L180.219 189.912C180.219 189.912 186.082 179.443 188.974 171.669C192.004 163.524 187.303 158.451 180.504 159.441Z" fill="#407BFF"/>
<path opacity="0.1" d="M180.504 159.441C174.165 160.366 166.906 182.376 166.906 182.376L180.219 189.912C180.219 189.912 186.082 179.443 188.974 171.669C192.004 163.524 187.303 158.451 180.504 159.441Z" fill="black"/>
<path d="M170.442 388.999C170.946 389.079 171.43 389.068 171.769 388.864C172.039 388.702 172.191 388.439 172.224 388.085C172.25 387.821 172.13 387.675 172.026 387.598C171.361 387.108 169.012 388.082 168.747 388.195C168.688 388.22 168.65 388.279 168.65 388.343C168.651 388.405 168.69 388.463 168.748 388.488C169.19 388.672 169.831 388.903 170.442 388.999ZM171.641 387.784C171.724 387.797 171.79 387.82 171.838 387.855C171.877 387.884 171.919 387.932 171.907 388.055C171.883 388.308 171.785 388.484 171.604 388.592C171.195 388.84 170.324 388.744 169.237 388.339C170.053 388.024 171.135 387.704 171.641 387.784Z" fill="#407BFF"/>
<path d="M168.784 388.498C168.81 388.502 168.836 388.5 168.862 388.491C169.606 388.227 171.159 386.984 171.135 386.222C171.131 386.084 171.069 385.837 170.701 385.732C170.461 385.663 170.227 385.696 170.002 385.827C169.133 386.335 168.674 388.224 168.655 388.305C168.641 388.361 168.66 388.421 168.703 388.459C168.726 388.48 168.754 388.493 168.784 388.498ZM170.543 386.021C170.567 386.025 170.589 386.03 170.613 386.037C170.813 386.094 170.815 386.191 170.817 386.231C170.832 386.682 169.815 387.646 169.052 388.056C169.218 387.509 169.605 386.427 170.162 386.101C170.289 386.027 170.414 386.001 170.543 386.021Z" fill="#407BFF"/>
<path d="M247.583 385.205C248.225 385.026 248.789 384.763 249.042 384.371C249.203 384.123 249.229 383.845 249.122 383.546C249.057 383.367 248.931 383.251 248.757 383.209C247.852 382.985 245.622 385.027 245.37 385.262C245.32 385.307 245.305 385.38 245.333 385.443C245.36 385.504 245.423 385.543 245.49 385.538C246.067 385.495 246.872 385.403 247.583 385.205ZM248.381 383.541C248.5 383.508 248.602 383.499 248.682 383.518C248.752 383.536 248.795 383.577 248.824 383.656C248.896 383.858 248.88 384.037 248.775 384.2C248.476 384.663 247.43 385.018 245.939 385.177C246.714 384.503 247.77 383.711 248.381 383.541Z" fill="#407BFF"/>
<path d="M245.52 385.532C245.542 385.526 245.561 385.515 245.58 385.501C246.262 384.934 247.419 383.107 247.098 382.407C247.023 382.243 246.842 382.063 246.41 382.138C246.093 382.184 245.828 382.36 245.635 382.636C245.001 383.54 245.308 385.33 245.321 385.407C245.332 385.462 245.371 385.508 245.424 385.528C245.455 385.54 245.488 385.541 245.52 385.532ZM246.37 382.472C246.4 382.463 246.431 382.457 246.463 382.451C246.746 382.403 246.793 382.506 246.81 382.54C247.002 382.96 246.257 384.35 245.594 385.049C245.535 384.517 245.478 383.411 245.894 382.818C246.019 382.639 246.175 382.526 246.37 382.472Z" fill="#407BFF"/>
<path d="M166.324 230.907L165.04 236.077L159.305 232.606C159.305 232.606 160.143 227.066 164.512 226.975L166.324 230.907Z" fill="#FF8B7B"/>
<path d="M160.613 238.518L156.35 236.019L159.305 232.606L165.04 236.076L160.613 238.518Z" fill="#FF8B7B"/>
<path d="M255.187 206.941C254.404 206.941 253.768 206.305 253.768 205.519V199.835C253.768 199.049 254.404 198.413 255.187 198.413C255.971 198.413 256.606 199.049 256.606 199.835V205.519C256.606 206.305 255.971 206.941 255.187 206.941Z" fill="#407BFF"/>
<path d="M255.187 188.047C254.404 188.047 253.768 187.411 253.768 186.625V175.301C253.768 174.515 254.404 173.879 255.187 173.879C255.971 173.879 256.606 174.515 256.606 175.301V186.625C256.606 187.41 255.971 188.047 255.187 188.047ZM255.187 163.512C254.404 163.512 253.768 162.876 253.768 162.09V150.766C253.768 149.98 254.404 149.344 255.187 149.344C255.971 149.344 256.606 149.98 256.606 150.766V162.09C256.606 162.876 255.971 163.512 255.187 163.512ZM140.343 160.58C139.559 160.58 138.924 159.944 138.924 159.158V147.834C138.924 147.048 139.559 146.412 140.343 146.412C141.127 146.412 141.762 147.048 141.762 147.834V159.158C141.762 159.943 141.127 160.58 140.343 160.58ZM255.187 138.977C254.404 138.977 253.768 138.341 253.768 137.555V126.231C253.768 125.445 254.404 124.809 255.187 124.809C255.971 124.809 256.606 125.445 256.606 126.231V137.555C256.606 138.341 255.971 138.977 255.187 138.977ZM140.343 136.045C139.559 136.045 138.924 135.409 138.924 134.623V123.299C138.924 122.513 139.559 121.877 140.343 121.877C141.127 121.877 141.762 122.513 141.762 123.299V134.623C141.762 135.408 141.127 136.045 140.343 136.045ZM254.382 114.491C253.702 114.491 253.102 114 252.984 113.305C252.374 109.68 251.4 106.102 250.091 102.672C249.811 101.938 250.178 101.117 250.91 100.836C251.638 100.556 252.463 100.921 252.743 101.656C254.117 105.261 255.141 109.022 255.783 112.832C255.914 113.605 255.393 114.34 254.621 114.47C254.54 114.484 254.461 114.491 254.382 114.491ZM141.708 111.614C141.606 111.614 141.503 111.602 141.4 111.58C140.634 111.41 140.152 110.651 140.321 109.884C141.155 106.114 142.37 102.412 143.929 98.8792C144.246 98.1607 145.083 97.8345 145.801 98.154C146.517 98.4716 146.842 99.3115 146.525 100.03C145.041 103.392 143.886 106.914 143.092 110.5C142.944 111.162 142.359 111.614 141.708 111.614ZM245.338 91.8982C244.884 91.8982 244.437 91.6801 244.163 91.2734C242.108 88.2332 239.741 85.3807 237.129 82.7936C236.572 82.2409 236.566 81.3412 237.118 80.7819C237.669 80.2245 238.566 80.2179 239.125 80.7705C241.868 83.4885 244.354 86.4851 246.513 89.678C246.952 90.3283 246.783 91.2128 246.135 91.6526C245.89 91.8185 245.613 91.8982 245.338 91.8982ZM151.89 89.5187C151.593 89.5187 151.292 89.4248 151.036 89.2324C150.411 88.7593 150.286 87.8682 150.758 87.2406C153.077 84.1596 155.71 81.2929 158.586 78.72C159.17 78.1958 160.066 78.2479 160.589 78.8338C161.111 79.4196 161.061 80.3184 160.476 80.8416C157.738 83.2913 155.232 86.0206 153.025 88.9546C152.745 89.3234 152.32 89.5187 151.89 89.5187ZM227.78 75.0702C227.526 75.0702 227.27 75.0029 227.038 74.8598C223.909 72.9334 220.581 71.3124 217.145 70.043C216.41 69.7709 216.033 68.9537 216.305 68.2171C216.575 67.4805 217.391 67.1032 218.127 67.3753C221.738 68.7101 225.236 70.4127 228.523 72.4376C229.191 72.8491 229.4 73.7241 228.99 74.3933C228.722 74.8294 228.257 75.0702 227.78 75.0702ZM170.278 73.6018C169.776 73.6018 169.289 73.3335 169.031 72.8614C168.656 72.1722 168.908 71.3076 169.596 70.9313C172.983 69.0779 176.563 67.5554 180.239 66.4083C180.987 66.1742 181.782 66.5932 182.015 67.3431C182.249 68.0929 181.831 68.8902 181.082 69.1234C177.586 70.2155 174.179 71.6631 170.956 73.4273C170.741 73.5449 170.507 73.6018 170.278 73.6018ZM204.857 67.0264C204.8 67.0264 204.741 67.0236 204.682 67.016C201.066 66.5705 197.337 66.4766 193.683 66.7392C192.9 66.7913 192.222 66.2064 192.166 65.4224C192.109 64.6394 192.697 63.9587 193.48 63.9028C197.317 63.626 201.229 63.7246 205.028 64.1938C205.806 64.2896 206.359 64.9996 206.264 65.7789C206.175 66.4984 205.564 67.0264 204.857 67.0264Z" fill="#407BFF"/>
<path d="M140.343 179.594C139.559 179.594 138.924 178.958 138.924 178.172V172.484C138.924 171.698 139.559 171.062 140.343 171.062C141.127 171.062 141.762 171.698 141.762 172.484V178.172C141.762 178.957 141.127 179.594 140.343 179.594Z" fill="#407BFF"/>
<g opacity="0.6">
<path d="M255.187 206.941C254.404 206.941 253.768 206.305 253.768 205.519V199.835C253.768 199.049 254.404 198.413 255.187 198.413C255.971 198.413 256.606 199.049 256.606 199.835V205.519C256.606 206.305 255.971 206.941 255.187 206.941Z" fill="#FAFAFA"/>
<path d="M255.187 188.047C254.404 188.047 253.768 187.411 253.768 186.625V175.301C253.768 174.515 254.404 173.879 255.187 173.879C255.971 173.879 256.606 174.515 256.606 175.301V186.625C256.606 187.41 255.971 188.047 255.187 188.047ZM255.187 163.512C254.404 163.512 253.768 162.876 253.768 162.09V150.766C253.768 149.98 254.404 149.344 255.187 149.344C255.971 149.344 256.606 149.98 256.606 150.766V162.09C256.606 162.876 255.971 163.512 255.187 163.512ZM140.343 160.58C139.559 160.58 138.924 159.944 138.924 159.158V147.834C138.924 147.048 139.559 146.412 140.343 146.412C141.127 146.412 141.762 147.048 141.762 147.834V159.158C141.762 159.943 141.127 160.58 140.343 160.58ZM255.187 138.977C254.404 138.977 253.768 138.341 253.768 137.555V126.231C253.768 125.445 254.404 124.809 255.187 124.809C255.971 124.809 256.606 125.445 256.606 126.231V137.555C256.606 138.341 255.971 138.977 255.187 138.977ZM140.343 136.045C139.559 136.045 138.924 135.409 138.924 134.623V123.299C138.924 122.513 139.559 121.877 140.343 121.877C141.127 121.877 141.762 122.513 141.762 123.299V134.623C141.762 135.408 141.127 136.045 140.343 136.045ZM254.382 114.491C253.702 114.491 253.102 114 252.984 113.305C252.374 109.68 251.4 106.102 250.091 102.672C249.811 101.938 250.178 101.117 250.91 100.836C251.638 100.556 252.463 100.921 252.743 101.656C254.117 105.261 255.141 109.022 255.783 112.832C255.914 113.605 255.393 114.34 254.621 114.47C254.54 114.484 254.461 114.491 254.382 114.491ZM141.708 111.614C141.606 111.614 141.503 111.602 141.4 111.58C140.634 111.41 140.152 110.651 140.321 109.884C141.155 106.114 142.37 102.412 143.929 98.8792C144.246 98.1607 145.083 97.8345 145.801 98.154C146.517 98.4716 146.842 99.3115 146.525 100.03C145.041 103.392 143.886 106.914 143.092 110.5C142.944 111.162 142.359 111.614 141.708 111.614ZM245.338 91.8982C244.884 91.8982 244.437 91.6801 244.163 91.2734C242.108 88.2332 239.741 85.3807 237.129 82.7936C236.572 82.2409 236.566 81.3412 237.118 80.7819C237.669 80.2245 238.566 80.2179 239.125 80.7705C241.868 83.4885 244.354 86.4851 246.513 89.678C246.952 90.3283 246.783 91.2128 246.135 91.6526C245.89 91.8185 245.613 91.8982 245.338 91.8982ZM151.89 89.5187C151.593 89.5187 151.292 89.4248 151.036 89.2324C150.411 88.7593 150.286 87.8682 150.758 87.2406C153.077 84.1596 155.71 81.2929 158.586 78.72C159.17 78.1958 160.066 78.2479 160.589 78.8338C161.111 79.4196 161.061 80.3184 160.476 80.8416C157.738 83.2913 155.232 86.0206 153.025 88.9546C152.745 89.3234 152.32 89.5187 151.89 89.5187ZM227.78 75.0702C227.526 75.0702 227.27 75.0029 227.038 74.8598C223.909 72.9334 220.581 71.3124 217.145 70.043C216.41 69.7709 216.033 68.9537 216.305 68.2171C216.575 67.4805 217.391 67.1032 218.127 67.3753C221.738 68.7101 225.236 70.4127 228.523 72.4376C229.191 72.8491 229.4 73.7241 228.99 74.3933C228.722 74.8294 228.257 75.0702 227.78 75.0702ZM170.278 73.6018C169.776 73.6018 169.289 73.3335 169.031 72.8614C168.656 72.1722 168.908 71.3076 169.596 70.9313C172.983 69.0779 176.563 67.5554 180.239 66.4083C180.987 66.1742 181.782 66.5932 182.015 67.3431C182.249 68.0929 181.831 68.8902 181.082 69.1234C177.586 70.2155 174.179 71.6631 170.956 73.4273C170.741 73.5449 170.507 73.6018 170.278 73.6018ZM204.857 67.0264C204.8 67.0264 204.741 67.0236 204.682 67.016C201.066 66.5705 197.337 66.4766 193.683 66.7392C192.9 66.7913 192.222 66.2064 192.166 65.4224C192.109 64.6394 192.697 63.9587 193.48 63.9028C197.317 63.626 201.229 63.7246 205.028 64.1938C205.806 64.2896 206.359 64.9996 206.264 65.7789C206.175 66.4984 205.564 67.0264 204.857 67.0264Z" fill="#FAFAFA"/>
<path d="M140.343 179.594C139.559 179.594 138.924 178.958 138.924 178.172V172.484C138.924 171.698 139.559 171.062 140.343 171.062C141.127 171.062 141.762 171.698 141.762 172.484V178.172C141.762 178.957 141.127 179.594 140.343 179.594Z" fill="#FAFAFA"/>
</g>
<path d="M294.708 293.072C272.134 293.072 253.768 274.668 253.768 252.046V216.144C253.768 215.358 254.404 214.722 255.187 214.722C255.971 214.722 256.606 215.358 256.606 216.144V252.046C256.606 273.1 273.699 290.228 294.708 290.228C315.719 290.228 332.811 273.1 332.811 252.046V153.12C332.811 152.334 333.447 151.698 334.23 151.698C335.014 151.698 335.649 152.334 335.649 153.12V252.046C335.65 274.668 317.284 293.072 294.708 293.072Z" fill="#407BFF"/>
<path opacity="0.3" d="M294.708 293.072C272.134 293.072 253.768 274.668 253.768 252.046V216.144C253.768 215.358 254.404 214.722 255.187 214.722C255.971 214.722 256.606 215.358 256.606 216.144V252.046C256.606 273.1 273.699 290.228 294.708 290.228C315.719 290.228 332.811 273.1 332.811 252.046V153.12C332.811 152.334 333.447 151.698 334.23 151.698C335.014 151.698 335.649 152.334 335.649 153.12V252.046C335.65 274.668 317.284 293.072 294.708 293.072Z" fill="black"/>
<path d="M113.024 396.279H182.88C188.62 396.279 192.988 391.572 192.587 385.821L178.827 188.631C178.426 182.879 173.401 178.173 167.661 178.173H97.805C92.0647 178.173 87.697 182.879 88.0981 188.631L101.858 385.821C102.26 391.572 107.285 396.279 113.024 396.279Z" fill="#407BFF"/>
<path opacity="0.3" d="M113.024 396.279H182.88C188.62 396.279 192.988 391.572 192.587 385.821L178.827 188.631C178.426 182.879 173.401 178.173 167.661 178.173H97.805C92.0647 178.173 87.697 182.879 88.0981 188.631L101.858 385.821C102.26 391.572 107.285 396.279 113.024 396.279Z" fill="#FAFAFA"/>
<path d="M120.562 396.279H190.418C196.158 396.279 200.526 391.572 200.124 385.821L186.365 188.631C185.964 182.879 180.939 178.173 175.198 178.173H105.343C99.6024 178.173 95.2347 182.879 95.6359 188.631L109.395 385.821C109.797 391.572 114.822 396.279 120.562 396.279Z" fill="#407BFF"/>
<path opacity="0.6" d="M120.562 396.279H190.418C196.158 396.279 200.526 391.572 200.124 385.821L186.365 188.631C185.964 182.879 180.939 178.173 175.198 178.173H105.343C99.6024 178.173 95.2347 182.879 95.6359 188.631L109.395 385.821C109.797 391.572 114.822 396.279 120.562 396.279Z" fill="#FAFAFA"/>
<path d="M111.937 384.935H197.337C198.107 384.935 198.715 384.281 198.661 383.513L185.258 191.43C185.21 190.733 184.631 190.192 183.934 190.192H98.5334C97.7634 190.192 97.1551 190.846 97.209 191.615L110.613 383.697C110.661 384.394 111.24 384.935 111.937 384.935Z" fill="#FAFAFA"/>
<path d="M106.169 276.563L112.425 260.931C113.167 259.075 115.841 259.075 117.236 260.931L128.994 276.563C130.39 278.419 129.461 280.739 127.323 280.739H123.232C127.467 294.501 140.267 305.442 154.315 307.275C156.694 307.585 158.795 309.521 159.208 311.87C159.706 314.699 157.576 316.826 154.712 316.454C136.024 314.022 119.008 299.21 113.9 280.74H109.309C107.17 280.739 105.426 278.419 106.169 276.563Z" fill="#407BFF"/>
<path d="M146.827 241.504C146.329 238.675 148.459 236.548 151.323 236.92C170.009 239.352 187.025 254.165 192.132 272.634H196.723C198.862 272.634 200.607 274.954 199.864 276.81L193.608 292.442C192.866 294.298 190.192 294.298 188.797 292.442L177.039 276.81C175.643 274.954 176.572 272.634 178.71 272.634H182.801C178.566 258.872 165.767 247.931 151.719 246.099C149.341 245.788 147.24 243.852 146.827 241.504Z" fill="#407BFF"/>
<g opacity="0.3">
<path d="M106.169 276.563L112.425 260.931C113.167 259.075 115.841 259.075 117.236 260.931L128.994 276.563C130.39 278.419 129.461 280.739 127.323 280.739H123.232C127.467 294.501 140.267 305.442 154.315 307.275C156.694 307.585 158.795 309.521 159.208 311.87C159.706 314.699 157.576 316.826 154.712 316.454C136.024 314.022 119.008 299.21 113.9 280.74H109.309C107.17 280.739 105.426 278.419 106.169 276.563Z" fill="black"/>
<path d="M146.827 241.504C146.329 238.675 148.459 236.548 151.323 236.92C170.009 239.352 187.025 254.165 192.132 272.634H196.723C198.862 272.634 200.607 274.954 199.864 276.81L193.608 292.442C192.866 294.298 190.192 294.298 188.797 292.442L177.039 276.81C175.643 274.954 176.572 272.634 178.71 272.634H182.801C178.566 258.872 165.767 247.931 151.719 246.099C149.341 245.788 147.24 243.852 146.827 241.504Z" fill="black"/>
</g>
<path d="M125.898 183.703C125.962 184.613 126.749 185.349 127.656 185.349C128.563 185.349 129.247 184.613 129.184 183.703C129.12 182.794 128.333 182.057 127.426 182.057C126.519 182.057 125.835 182.794 125.898 183.703Z" fill="#407BFF"/>
<path opacity="0.4" d="M125.898 183.703C125.962 184.613 126.749 185.349 127.656 185.349C128.563 185.349 129.247 184.613 129.184 183.703C129.12 182.794 128.333 182.057 127.426 182.057C126.519 182.057 125.835 182.794 125.898 183.703Z" fill="#FAFAFA"/>
<path d="M134.373 185.349H152.549C153.453 185.349 154.14 184.609 154.077 183.703C154.014 182.798 153.223 182.057 152.319 182.057H134.143C133.239 182.057 132.552 182.797 132.615 183.703C132.678 184.609 133.469 185.349 134.373 185.349Z" fill="#407BFF"/>
<path opacity="0.4" d="M134.373 185.349H152.549C153.453 185.349 154.14 184.609 154.077 183.703C154.014 182.798 153.223 182.057 152.319 182.057H134.143C133.239 182.057 132.552 182.797 132.615 183.703C132.678 184.609 133.469 185.349 134.373 185.349Z" fill="#FAFAFA"/>
</svg>
