<svg width="200" height="200" viewBox="0 0 200 200" fill="none" xmlns="http://www.w3.org/2000/svg">
<path d="M0 32.4C0 20.8213 0 15.032 2.32469 10.6414C4.20069 7.09825 7.09825 4.20069 10.6414 2.32469C15.032 0 20.8213 0 32.4 0H167.6C179.179 0 184.968 0 189.359 2.32469C192.902 4.20069 195.799 7.09825 197.675 10.6414C200 15.032 200 20.8213 200 32.4V167.6C200 179.179 200 184.968 197.675 189.359C195.799 192.902 192.902 195.799 189.359 197.675C184.968 200 179.179 200 167.6 200H32.4C20.8213 200 15.032 200 10.6414 197.675C7.09825 195.799 4.20069 192.902 2.32469 189.359C0 184.968 0 179.179 0 167.6V32.4Z" fill="#262626"/>
<path d="M45.7423 133.725L43.5003 149.4C43.3618 150.373 43.4515 151.365 43.7625 152.297C44.0735 153.229 44.5972 154.076 45.2921 154.771C45.987 155.466 46.8341 155.99 47.7663 156.301C48.6986 156.612 49.6904 156.702 50.6633 156.563L66.3383 154.321C68.7133 153.985 74.6667 138 74.6667 138C74.6667 138 77.656 140.565 78.8783 140.951C81.4877 141.775 84.0273 139.216 84.8823 136.619L87.3333 125.397C87.3333 125.397 90.9877 127.246 92.3113 127.518C93.996 127.867 95.63 126.828 96.789 125.663C97.4852 124.969 98.0082 124.12 98.3153 123.186L100 112.73C100 112.73 104.275 113.914 105.738 114.085C107.404 114.275 109.025 113.427 110.216 112.23L117.423 105.029C123.524 107.006 130.052 107.261 136.289 105.765C142.525 104.27 148.228 101.083 152.769 96.5547C159.291 90.0164 162.953 81.1588 162.953 71.9243C162.953 62.6898 159.291 53.8322 152.769 47.294C146.231 40.7727 137.374 37.1104 128.139 37.1104C118.904 37.1104 110.047 40.7727 103.509 47.294C98.9791 51.8345 95.791 57.5374 94.2958 63.7742C92.8006 70.011 93.0563 76.5396 95.0347 82.6403L47.5283 130.14C46.5587 131.109 45.9316 132.368 45.7423 133.725ZM141.192 58.8713C144.647 62.3367 146.587 67.0307 146.587 71.9243C146.587 76.8179 144.647 81.5119 141.192 84.9773L115.086 58.8713C118.551 55.4161 123.245 53.4759 128.139 53.4759C133.033 53.4759 137.727 55.4161 141.192 58.8713Z" fill="#E2E3E7"/>
</svg>
