<svg width="500" height="453" viewBox="0 0 500 453" fill="none" xmlns="http://www.w3.org/2000/svg">
<path d="M500 382.398H0V382.648H500V382.398Z" fill="#EBEBEB"/>
<path d="M111.667 390.787H78.545V391.037H111.667V390.787Z" fill="#EBEBEB"/>
<path d="M163.5 398H133.333V398.25H163.5V398Z" fill="#EBEBEB"/>
<path d="M95.105 400.073H56.854V400.323H95.105V400.073Z" fill="#EBEBEB"/>
<path d="M449.901 399.527H434V399.777H449.901V399.527Z" fill="#EBEBEB"/>
<path d="M430.792 399.527H391.471V399.777H430.792V399.527Z" fill="#EBEBEB"/>
<path d="M280.333 390.662H250V390.912H280.333V390.662Z" fill="#EBEBEB"/>
<path d="M356.762 390.662H284.667V390.912H356.762V390.662Z" fill="#EBEBEB"/>
<path d="M237.014 337.799H43.915C40.768 337.799 38.207 335.238 38.207 332.091V60.66C38.207 57.513 40.768 54.952 43.915 54.952H237.014C240.16 54.952 242.721 57.513 242.721 60.66V332.092C242.721 335.239 240.16 337.799 237.014 337.799ZM43.915 55.202C40.905 55.202 38.457 57.65 38.457 60.66V332.092C38.457 335.102 40.905 337.55 43.915 337.55H237.014C240.023 337.55 242.471 335.102 242.471 332.092V60.66C242.471 57.651 240.023 55.202 237.014 55.202H43.915Z" fill="#EBEBEB"/>
<path d="M453.31 337.799H260.212C257.065 337.799 254.505 335.238 254.505 332.091V60.66C254.505 57.513 257.066 54.952 260.212 54.952H453.31C456.458 54.952 459.018 57.513 459.018 60.66V332.092C459.019 335.239 456.458 337.799 453.31 337.799ZM260.212 55.202C257.203 55.202 254.755 57.65 254.755 60.66V332.092C254.755 335.102 257.203 337.55 260.212 337.55H453.31C456.32 337.55 458.768 335.102 458.768 332.092V60.66C458.768 57.651 456.32 55.202 453.31 55.202H260.212Z" fill="#EBEBEB"/>
<path d="M200.587 77.605H85.499C77.461 77.605 70.884 84.182 70.884 92.22V111.134C69.829 111.47 69.055 112.449 69.055 113.612V145.444C69.055 146.606 69.83 147.586 70.884 147.922V158.756C69.867 158.826 69.055 159.671 69.055 160.704V177.686C69.055 178.72 69.868 179.564 70.884 179.634V367.784C70.884 375.822 77.461 382.399 85.499 382.399H200.587C208.625 382.399 215.202 375.822 215.202 367.784V92.22C215.202 84.181 208.626 77.605 200.587 77.605Z" fill="#E0E0E0"/>
<path d="M90.505 382.398H205.593C213.631 382.398 220.208 375.821 220.208 367.783V92.22C220.208 84.182 213.631 77.605 205.593 77.605H90.505C82.467 77.605 75.89 84.182 75.89 92.22V367.783C75.889 375.821 82.466 382.398 90.505 382.398Z" fill="#EBEBEB"/>
<path d="M141.544 368.44C141.544 372.032 144.456 374.944 148.048 374.944C151.64 374.944 154.552 372.032 154.552 368.44C154.552 364.848 151.64 361.936 148.048 361.936C144.456 361.936 141.544 364.848 141.544 368.44Z" fill="#E0E0E0"/>
<path d="M75.8893 356.328H220.208L220.208 94.4009H75.8893L75.8893 356.328Z" fill="#FAFAFA"/>
<path d="M184.026 255.889H112.807C105.327 255.889 99.182 262.034 99.182 269.514V306.291C99.182 313.769 105.328 319.915 112.807 319.915H165.066L164.684 332.778L177.88 319.915H184.025C191.505 319.915 197.65 313.769 197.65 306.291V269.514C197.651 262.034 191.506 255.889 184.026 255.889ZM111.187 271.562C111.187 269.466 112.902 267.751 114.998 267.751H131.386C133.482 267.751 135.149 269.467 135.149 271.562C135.149 273.61 133.482 275.326 131.386 275.326H114.998C112.902 275.325 111.187 273.61 111.187 271.562ZM179.978 307.147H151.633C149.584 307.147 147.869 305.48 147.869 303.383C147.869 301.287 149.583 299.621 151.633 299.621H179.978C182.074 299.621 183.74 301.288 183.74 303.383C183.74 305.481 182.074 307.147 179.978 307.147ZM179.978 291.236H118.81C116.762 291.236 115.046 289.569 115.046 287.474C115.046 285.377 116.761 283.71 118.81 283.71H179.978C182.074 283.71 183.74 285.377 183.74 287.474C183.74 289.569 182.074 291.236 179.978 291.236ZM179.978 275.325H143.772C141.676 275.325 140.008 273.61 140.008 271.561C140.008 269.465 141.676 267.75 143.772 267.75H179.978C182.074 267.75 183.74 269.466 183.74 271.561C183.74 273.61 182.074 275.325 179.978 275.325Z" fill="#E6E6E6"/>
<path d="M147.87 128C125.354 128 107.093 146.261 107.093 168.777C107.093 188.093 120.529 204.274 138.56 208.478L147.871 220.333L157.181 208.48C157.181 208.48 157.183 208.48 157.185 208.479C175.21 204.268 188.648 188.086 188.648 168.777C188.647 146.261 170.386 128 147.87 128ZM147.87 185.771C138.486 185.771 130.884 178.161 130.884 168.777C130.884 159.393 138.486 151.792 147.87 151.792C157.254 151.792 164.864 159.394 164.864 168.777C164.864 178.161 157.253 185.771 147.87 185.771Z" fill="#E6E6E6"/>
<path d="M164.608 85.335C164.608 84.064 163.578 83.035 162.307 83.035C161.036 83.035 160.006 84.065 160.006 85.335C160.006 86.606 161.036 87.636 162.307 87.636C163.578 87.636 164.608 86.605 164.608 85.335Z" fill="#E0E0E0"/>
<path d="M154.36 83.034H135.248C133.983 83.034 132.947 84.069 132.947 85.334C132.947 86.599 133.982 87.635 135.248 87.635H154.36C155.625 87.635 156.661 86.6 156.661 85.334C156.66 84.069 155.625 83.034 154.36 83.034Z" fill="#E0E0E0"/>
<path d="M285.595 75.827H430.928C437.528 75.827 442.928 81.227 442.928 87.827V370.398C442.928 376.998 437.528 382.398 430.928 382.398H285.595C278.995 382.398 273.595 376.998 273.595 370.398V87.827C273.595 81.227 278.995 75.827 285.595 75.827Z" fill="#E0E0E0"/>
<path d="M282.512 75.827H427.845C434.445 75.827 439.845 81.227 439.845 87.827V370.398C439.845 376.998 434.445 382.398 427.845 382.398H282.512C275.912 382.398 270.512 376.998 270.512 370.398V87.827C270.512 81.227 275.912 75.827 282.512 75.827Z" fill="#EBEBEB"/>
<path d="M427.845 374.398C430.013 374.398 431.845 372.566 431.845 370.398V94.402C431.845 92.234 430.013 90.402 427.845 90.402H282.512C280.344 90.402 278.512 92.234 278.512 94.402V370.398C278.512 372.566 280.344 374.398 282.512 374.398H427.845Z" fill="#FAFAFA"/>
<path d="M381.758 242.256C374.475 242.256 368.004 245.722 363.895 251.091L342.829 238.451C344.13 235.606 344.862 232.445 344.862 229.112C344.862 225.779 344.131 222.618 342.829 219.773L363.895 207.133C368.004 212.502 374.475 215.968 381.758 215.968C394.176 215.968 404.242 205.902 404.242 193.484C404.242 181.066 394.176 171 381.758 171C369.34 171 359.274 181.066 359.274 193.484C359.274 196.818 360.005 199.978 361.307 202.823L340.241 215.463C336.132 210.094 329.661 206.628 322.378 206.628C309.96 206.628 299.894 216.694 299.894 229.112C299.894 241.53 309.96 251.596 322.378 251.596C329.661 251.596 336.132 248.13 340.241 242.761L361.307 255.4C360.005 258.246 359.274 261.406 359.274 264.74C359.274 277.157 369.341 287.224 381.758 287.224C394.176 287.224 404.242 277.157 404.242 264.74C404.242 252.323 394.175 242.256 381.758 242.256Z" fill="#E6E6E6"/>
<path d="M355.178 87.416C357.289 87.416 359 85.7048 359 83.594C359 81.4832 357.289 79.772 355.178 79.772C353.067 79.772 351.356 81.4832 351.356 83.594C351.356 85.7048 353.067 87.416 355.178 87.416Z" fill="white"/>
<path d="M250 427.561C357.082 427.561 443.889 422.492 443.889 416.238C443.889 409.984 357.082 404.915 250 404.915C142.918 404.915 56.111 409.984 56.111 416.238C56.111 422.492 142.918 427.561 250 427.561Z" fill="#F5F5F5"/>
<path d="M323.65 314.676C322.207 314.676 320.743 314.363 319.354 313.7L146.612 231.354C143.132 229.695 140.915 226.183 140.915 222.327C140.915 218.471 143.131 214.959 146.612 213.3L319.354 130.954C324.34 128.578 330.308 130.692 332.684 135.678C335.06 140.663 332.946 146.631 327.96 149.008L174.154 222.327L327.96 295.646C332.945 298.023 335.06 303.991 332.684 308.976C330.969 312.573 327.385 314.676 323.65 314.676Z" fill="#407BFF"/>
<path d="M376.432 191.09L375.713 190.394C378.638 187.375 381.316 184.083 383.674 180.612L384.501 181.174C382.112 184.693 379.397 188.029 376.432 191.09Z" fill="#407BFF"/>
<path d="M323.657 209.982C362.317 209.982 393.657 178.642 393.657 139.982C393.657 101.322 362.317 69.982 323.657 69.982C284.997 69.982 253.657 101.322 253.657 139.982C253.657 178.642 284.997 209.982 323.657 209.982Z" fill="#407BFF"/>
<path d="M323.657 194.801C353.933 194.801 378.476 170.258 378.476 139.982C378.476 109.706 353.933 85.163 323.657 85.163C293.381 85.163 268.838 109.706 268.838 139.982C268.838 170.258 293.381 194.801 323.657 194.801Z" fill="white"/>
<mask id="mask0_6_444" style="mask-type:luminance" maskUnits="userSpaceOnUse" x="268" y="85" width="111" height="110">
<path d="M323.657 194.801C353.933 194.801 378.476 170.258 378.476 139.982C378.476 109.706 353.933 85.163 323.657 85.163C293.381 85.163 268.838 109.706 268.838 139.982C268.838 170.258 293.381 194.801 323.657 194.801Z" fill="white"/>
</mask>
<g mask="url(#mask0_6_444)">
<path d="M325.13 170.726C325.13 170.726 344.797 174.834 355.495 173.167C366.194 171.5 364.963 157.167 356.463 150C347.963 142.833 349.963 144.5 351.963 137C353.963 129.5 349.463 123.5 340.91 123.167C332.357 122.834 340.629 112.167 331.885 100.249C323.141 88.331 307.629 97.333 306.512 102.667C301.629 102.834 296.521 110.781 300.159 117.974C303.796 125.167 299.13 127.044 296.296 135.689C293.462 144.334 304.865 146 302.331 151.834C299.797 157.667 299.63 176.951 325.13 170.726Z" fill="#263238"/>
<path d="M306.037 155.91C305.864 158.943 305.508 161.721 305.111 164.602C304.705 167.457 304.17 170.291 303.552 173.119C302.92 175.943 302.251 178.767 301.36 181.553C300.515 184.346 299.514 187.118 298.33 189.842L297.413 191.879C297.284 192.189 297.037 192.64 296.84 193.022C296.632 193.417 296.408 193.764 296.19 194.134C295.306 195.555 294.332 196.769 293.346 197.928C291.373 200.238 289.267 202.26 287.114 204.189C282.759 207.999 278.272 211.428 273.445 214.538L270.667 210.953C272.625 209.058 274.615 207.104 276.541 205.152C278.486 203.211 280.37 201.219 282.172 199.201C283.985 197.199 285.711 195.141 287.215 193.077C287.961 192.047 288.632 190.995 289.165 190.008C289.281 189.765 289.424 189.515 289.523 189.284C289.624 189.034 289.714 188.871 289.837 188.53L290.535 186.701C292.341 181.788 293.622 176.565 294.668 171.289C295.198 168.649 295.575 165.969 295.975 163.298C296.36 160.648 296.665 157.877 296.899 155.338L306.037 155.91Z" fill="#FFB573"/>
<path d="M299.803 144.996C296.112 145.936 293.53 161.125 293.53 161.125L303.702 168.042C303.702 168.042 313.454 152.718 310.615 148.66C307.657 144.435 305.189 143.625 299.803 144.996Z" fill="#407BFF"/>
<path opacity="0.2" d="M299.803 144.996C296.112 145.936 293.53 161.125 293.53 161.125L303.702 168.042C303.702 168.042 313.454 152.718 310.615 148.66C307.657 144.435 305.189 143.625 299.803 144.996Z" fill="white"/>
<path opacity="0.2" d="M300.136 148.389L297.301 163.699L303.018 167.575L300.136 148.389Z" fill="black"/>
<path d="M299.803 144.996C299.803 144.996 295.537 146.499 304.083 199.048C318.516 199.048 333.432 199.048 340.455 199.048C339.844 184.245 339.827 175.117 346.903 144.736C346.903 144.736 339.282 143.078 331.458 142.701C325.337 142.406 320.323 142.211 314.942 142.702C307.848 143.35 299.803 144.996 299.803 144.996Z" fill="#407BFF"/>
<path opacity="0.2" d="M299.803 144.996C299.803 144.996 295.537 146.499 304.083 199.048C318.516 199.048 333.432 199.048 340.455 199.048C339.844 184.245 339.827 175.117 346.903 144.736C346.903 144.736 339.282 143.078 331.458 142.701C325.337 142.406 320.323 142.211 314.942 142.702C307.848 143.35 299.803 144.996 299.803 144.996Z" fill="white"/>
<path d="M329.821 124.105C328.779 129.419 327.739 139.156 331.458 142.702C331.458 142.702 330.005 148.093 320.131 148.093C309.273 148.093 314.942 142.703 314.942 142.703C320.868 141.288 320.715 136.891 319.683 132.762L329.821 124.105Z" fill="#FFB573"/>
<path d="M331.453 142.707C325.331 142.406 320.32 142.209 314.939 142.707C314.58 142.742 314.221 142.776 313.863 142.811C311.636 145.4 314.371 148.682 316.68 151.006C316.68 151.006 329.855 148.956 333.628 142.846C332.911 142.788 332.182 142.742 331.453 142.707Z" fill="#FFB573"/>
<path opacity="0.2" d="M325.688 127.637L319.687 132.757C319.935 133.734 320.127 134.725 320.196 135.689C322.925 135.689 325.31 133.778 326.267 130.634C326.613 129.496 325.88 128.188 325.688 127.637Z" fill="black"/>
<path d="M330.122 109.971C332.003 118.658 332.985 122.294 329.907 127.892C325.277 136.312 314.196 136.723 309.757 128.774C305.762 121.619 303.356 108.615 310.757 102.862C318.05 97.194 328.241 101.284 330.122 109.971Z" fill="#FFB573"/>
<path d="M317.143 116.075C317.339 116.77 317.129 117.438 316.675 117.566C316.221 117.694 315.693 117.234 315.497 116.539C315.301 115.844 315.511 115.176 315.965 115.048C316.42 114.92 316.947 115.38 317.143 116.075Z" fill="#263238"/>
<path d="M309.284 118.289C309.48 118.984 309.27 119.652 308.816 119.78C308.362 119.908 307.834 119.448 307.638 118.753C307.442 118.058 307.652 117.39 308.106 117.262C308.561 117.134 309.088 117.594 309.284 118.289Z" fill="#263238"/>
<path d="M308.318 117.244L306.512 117.233C306.512 117.233 307.737 118.296 308.318 117.244Z" fill="#263238"/>
<path d="M312.06 118.859C312.06 118.859 311.724 122.185 310.832 123.995C311.991 124.593 313.442 123.762 313.442 123.762L312.06 118.859Z" fill="#ED893E"/>
<path d="M318.001 125.416C317.695 125.555 317.361 125.679 316.998 125.781C316.885 125.813 316.768 125.747 316.736 125.635C316.704 125.521 316.768 125.399 316.883 125.373C319.935 124.508 320.759 121.98 320.767 121.954C320.802 121.842 320.92 121.779 321.033 121.815C321.145 121.85 321.207 121.969 321.172 122.081C321.14 122.182 320.451 124.299 318.001 125.416Z" fill="#263238"/>
<path d="M308.461 103.958C306.556 106.126 327.244 117.263 331.457 115.257C335.671 113.25 331.879 102.125 326.546 99.708C321.213 97.291 314.209 97.416 308.461 103.958Z" fill="#263238"/>
<path d="M334.642 117.149C334.504 118.986 333.531 120.589 332.367 121.558C330.617 123.016 328.813 121.675 328.521 119.537C328.258 117.612 328.853 114.534 330.984 113.905C333.083 113.284 334.8 115.048 334.642 117.149Z" fill="#FFB573"/>
<path d="M319.847 113.585C319.684 113.659 319.486 113.625 319.359 113.486C318.032 112.04 315.523 112.345 315.498 112.349C315.266 112.379 315.053 112.215 315.023 111.983C314.993 111.752 315.154 111.538 315.389 111.508C315.51 111.492 318.362 111.147 319.984 112.913C320.143 113.086 320.131 113.354 319.958 113.512C319.924 113.543 319.886 113.567 319.847 113.585Z" fill="#263238"/>
<path d="M305.9 115.323C305.768 115.383 305.609 115.374 305.482 115.286C305.29 115.152 305.242 114.888 305.375 114.695C306.713 112.768 308.673 112.802 308.754 112.805C308.988 112.812 309.173 113.007 309.166 113.241C309.159 113.475 308.965 113.657 308.73 113.653C308.652 113.651 307.134 113.648 306.072 115.179C306.027 115.244 305.967 115.293 305.9 115.323Z" fill="#263238"/>
<path d="M350.833 154.309C352.97 159.519 354.719 164.663 356.215 170.027C357.72 175.365 358.946 180.828 359.458 186.62C359.52 187.345 359.538 188.094 359.577 188.828L359.602 189.381C359.609 189.571 359.624 189.719 359.614 190.009L359.591 190.779L359.522 191.459C359.314 193.231 358.903 194.647 358.476 196.063C357.615 198.857 356.559 201.426 355.449 203.965C353.202 209.022 350.681 213.832 347.867 218.553L343.771 216.604C345.515 211.571 347.278 206.493 348.847 201.48C349.619 198.977 350.35 196.46 350.88 194.051C351.131 192.865 351.336 191.648 351.369 190.736L351.379 190.41L351.361 190.171C351.364 190.124 351.341 189.937 351.326 189.792L351.277 189.338C351.205 188.731 351.161 188.134 351.072 187.522C350.352 182.609 349.02 177.57 347.504 172.58C345.96 167.616 344.19 162.57 342.356 157.772L350.833 154.309Z" fill="#FFB573"/>
<path d="M346.903 144.737C350.547 145.845 354.924 158.393 354.924 158.393L340.786 168.501C340.786 168.501 335.63 158.026 337.161 153.316C338.756 148.411 342.745 143.472 346.903 144.737Z" fill="#407BFF"/>
<path opacity="0.2" d="M346.903 144.737C350.547 145.845 354.924 158.393 354.924 158.393L340.786 168.501C340.786 168.501 335.63 158.026 337.161 153.316C338.756 148.411 342.745 143.472 346.903 144.737Z" fill="white"/>
<path d="M316.177 115.03L314.371 115.019C314.371 115.019 315.596 116.082 316.177 115.03Z" fill="#263238"/>
</g>
<path d="M101.691 169.146L101.011 168.412C105.974 163.815 111.532 159.926 117.532 156.855L117.988 157.745C112.07 160.775 106.586 164.611 101.691 169.146Z" fill="#407BFF"/>
<path d="M94.021 177.438L93.237 176.818C94.47 175.258 95.782 173.73 97.136 172.276L97.867 172.958C96.533 174.391 95.239 175.899 94.021 177.438Z" fill="#407BFF"/>
<path d="M150.915 292.328C189.575 292.328 220.915 260.988 220.915 222.328C220.915 183.668 189.575 152.328 150.915 152.328C112.255 152.328 80.915 183.668 80.915 222.328C80.915 260.988 112.255 292.328 150.915 292.328Z" fill="#407BFF"/>
<path d="M150.915 277.147C181.191 277.147 205.734 252.604 205.734 222.328C205.734 192.052 181.191 167.509 150.915 167.509C120.639 167.509 96.096 192.052 96.096 222.328C96.096 252.604 120.639 277.147 150.915 277.147Z" fill="white"/>
<mask id="mask1_6_444" style="mask-type:luminance" maskUnits="userSpaceOnUse" x="96" y="167" width="110" height="111">
<path d="M150.915 277.147C181.191 277.147 205.734 252.604 205.734 222.328C205.734 192.052 181.191 167.509 150.915 167.509C120.639 167.509 96.096 192.052 96.096 222.328C96.096 252.604 120.639 277.147 150.915 277.147Z" fill="white"/>
</mask>
<g mask="url(#mask1_6_444)">
<path d="M175.645 237.194C178.225 243.163 180.886 249.223 183.579 255.181C184.916 258.172 186.286 261.14 187.686 264.078C189.067 267.028 190.51 269.922 191.99 272.761C192.742 274.148 193.471 275.594 194.262 276.906L194.846 277.91L195.135 278.409C195.107 278.363 195.053 278.328 195.033 278.309C194.902 278.228 194.992 278.386 195.292 278.562C195.888 278.958 197.119 279.368 198.435 279.62C199.768 279.876 201.24 280.061 202.751 280.174C205.785 280.382 208.976 280.382 212.187 280.285L217.035 280.081L221.872 279.76L223.119 285.58C216.516 287.688 209.925 289.204 202.718 289.663C200.91 289.76 199.058 289.79 197.1 289.61C195.136 289.413 193.073 289.132 190.665 288.091C189.478 287.545 188.149 286.772 186.924 285.437C186.62 285.115 186.333 284.735 186.061 284.354L185.69 283.797L184.955 282.69C183.946 281.21 183.091 279.735 182.174 278.253C178.701 272.314 175.606 266.314 172.698 260.244C169.799 254.157 167.086 248.071 164.54 241.788L175.645 237.194Z" fill="#7F3E3B"/>
<path d="M161.426 236.37C159.001 243.463 173.26 264.349 173.26 264.349L186.934 256.781C186.934 256.781 183.212 246.157 178.722 237.745C173.904 228.717 164.088 228.586 161.426 236.37Z" fill="#407BFF"/>
<path opacity="0.5" d="M161.426 236.37C159.001 243.463 173.26 264.349 173.26 264.349L186.934 256.781C186.934 256.781 183.212 246.157 178.722 237.745C173.904 228.717 164.088 228.586 161.426 236.37Z" fill="black"/>
<path opacity="0.2" d="M161.219 237.267C164.277 235.795 167.805 237.027 171.508 242.885C175.164 248.683 178.377 258.535 178.723 261.327L173.259 264.349C173.259 264.349 160.092 245.063 161.219 237.267Z" fill="black"/>
<path d="M170.651 230.945C170.651 230.945 180.838 254.884 173.497 299.464C160.721 299.464 137.313 299.464 131.096 299.464C130.578 292.955 133.566 261.204 126.225 230.536C126.225 230.536 133.442 229.078 140.357 228.744C145.766 228.483 153.604 228.31 158.381 228.745C164.681 229.318 170.651 230.945 170.651 230.945Z" fill="#407BFF"/>
<path opacity="0.5" d="M170.651 230.945C170.651 230.945 180.838 254.884 173.497 299.464C160.721 299.464 137.313 299.464 131.096 299.464C130.578 292.955 133.566 261.204 126.225 230.536C126.225 230.536 133.442 229.078 140.357 228.744C145.766 228.483 153.604 228.31 158.381 228.745C164.681 229.318 170.651 230.945 170.651 230.945Z" fill="black"/>
<path d="M158.561 261.566L149.454 251.822L156.099 242.043L165.204 251.786L158.561 261.566Z" fill="white"/>
<path opacity="0.2" d="M135.699 238.108C136.58 243.155 135.407 255.231 131.084 269.185C130.696 258.445 129.619 245.994 126.92 233.587L126.918 233.527C129.702 233.242 134.859 233.377 135.699 238.108Z" fill="black"/>
<path d="M141.439 208.449C142.777 214.248 144.28 224.875 140.357 228.744C140.357 228.744 142.838 234.59 153.614 234.606C162.254 234.618 158.382 228.745 158.382 228.745C151.861 227.2 151.862 222.402 152.832 217.896L141.439 208.449Z" fill="#7F3E3B"/>
<path opacity="0.2" d="M146.084 212.303L152.827 217.891C152.594 218.957 152.421 220.039 152.382 221.09C149.899 220.733 146.411 218.021 146.059 215.434C145.883 214.144 145.894 212.904 146.084 212.303Z" fill="black"/>
<path d="M158.347 191.2C161.949 193.527 162.468 204.736 157.196 206.338C151.925 207.941 151.524 186.793 158.347 191.2Z" fill="#263238"/>
<path d="M138.905 202.371C141.321 209.881 142.351 214.386 147.223 217.445C154.552 222.048 163.131 216.489 163.02 208.489C162.92 201.288 158.987 190.217 150.704 188.83C142.544 187.465 136.489 194.861 138.905 202.371Z" fill="#7F3E3B"/>
<path d="M141.632 194.63C145.644 200.053 145.656 208.686 142.508 209.673C139.36 210.661 130.718 200.658 130.27 195.331C129.909 191.044 132.76 191.044 132.76 191.044C132.76 191.044 128.156 188.371 133.384 185.163C139.27 181.552 153.849 181.896 147.289 176.817C152.038 175.243 153.879 178.272 153.582 180.114C157.079 179.045 156.849 175.243 156.849 175.243C156.849 175.243 166.146 180.441 161.958 186.5C157.769 192.559 150.058 194.474 141.632 194.63Z" fill="#263238"/>
<path d="M137.583 211.521C139.118 213.033 141.197 213.727 142.953 213.726C145.594 213.725 146.126 211.227 144.732 209.136C143.477 207.254 140.59 204.987 138.256 205.995C135.958 206.988 135.828 209.792 137.583 211.521Z" fill="#7F3E3B"/>
<path d="M151.084 201.953C151.242 202.573 151.702 203.003 152.11 202.914C152.518 202.825 152.721 202.25 152.563 201.63C152.405 201.01 151.945 200.58 151.537 200.669C151.128 200.759 150.926 201.333 151.084 201.953Z" fill="#263238"/>
<path d="M158.144 200.409C158.302 201.029 158.762 201.459 159.17 201.37C159.578 201.281 159.781 200.706 159.623 200.086C159.465 199.466 159.005 199.036 158.597 199.125C158.189 199.214 157.986 199.789 158.144 200.409Z" fill="#263238"/>
<path d="M155.979 201.208C155.979 201.208 158.313 204.473 160.317 205.857C159.473 207.122 157.475 207.066 157.475 207.066L155.979 201.208Z" fill="#630F0F"/>
<path d="M154.775 209.322C152.607 209.322 151.283 208.106 151.218 208.045C151.142 207.974 151.139 207.855 151.21 207.78C151.28 207.705 151.399 207.701 151.475 207.772C151.492 207.788 153.27 209.411 156.006 208.811C156.11 208.787 156.207 208.853 156.229 208.954C156.252 209.055 156.187 209.156 156.086 209.177C155.621 209.278 155.183 209.322 154.775 209.322Z" fill="#263238"/>
<path d="M148.286 200.17C148.236 200.17 148.185 200.16 148.137 200.139C147.946 200.056 147.859 199.835 147.942 199.645C148.76 197.763 150.48 197.491 150.553 197.48C150.754 197.449 150.949 197.592 150.979 197.797C151.009 198.002 150.868 198.192 150.664 198.223C150.608 198.232 149.277 198.456 148.631 199.944C148.57 200.086 148.431 200.17 148.286 200.17Z" fill="#263238"/>
<path d="M160.527 197.337C160.419 197.337 160.313 197.291 160.239 197.202C159.157 195.905 157.791 195.996 157.736 196.003C157.519 196.018 157.348 195.866 157.33 195.661C157.312 195.455 157.464 195.274 157.669 195.255C157.74 195.248 159.47 195.11 160.814 196.721C160.947 196.88 160.926 197.117 160.766 197.25C160.697 197.308 160.612 197.337 160.527 197.337Z" fill="#263238"/>
<path d="M134.596 241.968L132.966 245.506C132.417 246.718 131.891 247.945 131.374 249.175C130.325 251.629 129.346 254.108 128.417 256.587C127.506 259.072 126.63 261.561 125.917 264.056C125.536 265.306 125.233 266.547 124.904 267.79L124.486 269.649L124.433 269.881L124.407 269.998C124.405 270.005 124.407 269.989 124.407 269.989C124.405 269.967 124.391 269.949 124.391 269.949C124.371 269.935 124.367 269.984 124.36 270.055C124.341 270.369 124.586 271.241 125.044 272.134C125.498 273.043 126.124 274.028 126.838 275.005C128.254 276.983 129.989 278.947 131.804 280.872C135.466 284.691 139.519 288.474 143.581 292.039L140.256 296.976C135.148 294.203 130.371 291.135 125.781 287.455C123.489 285.614 121.267 283.63 119.143 281.298C118.092 280.118 117.066 278.848 116.109 277.352C115.172 275.845 114.219 274.138 113.766 271.687C113.662 271.069 113.586 270.422 113.594 269.711C113.589 269.365 113.614 268.998 113.652 268.629L113.7 268.219L113.738 267.937L114.045 265.678C114.296 264.197 114.533 262.7 114.881 261.259C115.515 258.344 116.293 255.503 117.2 252.719C118.087 249.928 119.095 247.195 120.196 244.505C120.762 243.167 121.339 241.833 121.943 240.508C122.548 239.159 123.156 237.906 123.899 236.492L134.596 241.968Z" fill="#7F3E3B"/>
<path d="M126.226 230.536C118.763 231.627 111.075 259.1 111.075 259.1L129.112 265.961C129.112 265.961 133.645 254.152 136.748 244.973C139.999 235.357 134.229 229.366 126.226 230.536Z" fill="#407BFF"/>
<path opacity="0.5" d="M126.226 230.536C118.763 231.627 111.075 259.1 111.075 259.1L129.112 265.961C129.112 265.961 133.645 254.152 136.748 244.973C139.999 235.357 134.229 229.366 126.226 230.536Z" fill="black"/>
</g>
<path d="M323.657 374.674C362.317 374.674 393.657 343.334 393.657 304.674C393.657 266.014 362.317 234.674 323.657 234.674C284.997 234.674 253.657 266.014 253.657 304.674C253.657 343.334 284.997 374.674 323.657 374.674Z" fill="#407BFF"/>
<path d="M323.657 359.493C353.933 359.493 378.476 334.95 378.476 304.674C378.476 274.398 353.933 249.855 323.657 249.855C293.381 249.855 268.838 274.398 268.838 304.674C268.838 334.95 293.381 359.493 323.657 359.493Z" fill="white"/>
<mask id="mask2_6_444" style="mask-type:luminance" maskUnits="userSpaceOnUse" x="268" y="249" width="111" height="111">
<path d="M323.657 359.493C353.933 359.493 378.476 334.95 378.476 304.674C378.476 274.398 353.933 249.855 323.657 249.855C293.381 249.855 268.838 274.398 268.838 304.674C268.838 334.95 293.381 359.493 323.657 359.493Z" fill="white"/>
</mask>
<g mask="url(#mask2_6_444)">
<path d="M304.332 322.858C304.164 325.821 303.818 328.533 303.432 331.347C303.046 334.136 302.521 336.903 301.925 339.664C300.758 345.186 299.148 350.666 296.928 356.01L296.033 358.001L295.809 358.498L295.697 358.747C295.661 358.828 295.632 358.897 295.543 359.067C295.259 359.634 294.894 360.234 294.376 360.82C293.855 361.399 293.203 361.962 292.432 362.354C291.681 362.747 290.851 363.003 290.114 363.082C288.61 363.259 287.441 362.993 286.456 362.701C284.523 362.066 283.143 361.198 281.841 360.313C280.563 359.411 279.422 358.46 278.331 357.486C274.051 353.525 270.499 349.295 267.233 344.687L270.676 341.777C272.601 343.583 274.611 345.411 276.614 347.146C278.609 348.898 280.674 350.554 282.746 352.033C283.777 352.772 284.821 353.46 285.843 354.024C286.843 354.589 287.881 355.048 288.572 355.178C288.897 355.242 289.107 355.194 288.957 355.174C288.818 355.132 288.322 355.367 288.201 355.519C288.128 355.587 288.117 355.598 288.126 355.551L288.437 354.735L289.119 352.951C290.814 348.112 292.094 343.032 293.083 337.867C293.597 335.288 293.96 332.671 294.351 330.062C294.724 327.475 295.022 324.768 295.249 322.291L304.332 322.858Z" fill="#FF8B7B"/>
<path d="M298.137 312.01C294.468 312.944 291.902 328.041 291.902 328.041L302.012 334.916C302.012 334.916 311.705 319.686 308.883 315.652C305.943 311.452 303.49 310.647 298.137 312.01Z" fill="#263238"/>
<path opacity="0.2" d="M298.468 315.382L295.65 330.599L301.332 334.452L298.468 315.382Z" fill="black"/>
<path d="M270.779 341.211L265.97 333.616L263.243 342.247C263.243 342.247 267.187 346.384 270.754 345.398L270.779 341.211Z" fill="#FF8B7B"/>
<path d="M298.137 312.01C298.137 312.01 293.896 313.503 302.391 365.733C316.736 365.733 331.562 365.733 338.542 365.733C337.935 351.02 337.918 341.947 344.95 311.752C344.95 311.752 337.375 310.104 329.599 309.729C323.516 309.436 318.531 309.242 313.183 309.73C306.133 310.374 298.137 312.01 298.137 312.01Z" fill="#263238"/>
<path d="M306.149 273.484C319.087 252.765 357.423 269.748 337.408 290.143C310.665 317.394 306.149 273.484 306.149 273.484Z" fill="#263238"/>
<path d="M314.707 302.789C313.269 302.789 311.997 302.45 310.896 301.769C302.86 296.805 306.883 275.707 307.058 274.811C307.098 274.608 307.298 274.476 307.498 274.515C307.702 274.555 307.834 274.752 307.794 274.955C307.752 275.169 303.693 296.438 311.291 301.131C314.967 303.402 320.862 301.442 328.81 295.308C328.975 295.181 329.21 295.212 329.336 295.376C329.462 295.54 329.432 295.776 329.268 295.902C323.329 300.486 318.453 302.789 314.707 302.789Z" fill="#263238"/>
<path d="M330.423 267.626C334.46 255.536 355.852 259.4 348.314 272.265C340.334 285.887 330.423 267.626 330.423 267.626Z" fill="#263238"/>
<path d="M327.972 291.246C326.937 296.528 325.903 306.206 329.599 309.73C329.599 309.73 328.155 315.088 318.341 315.088C307.549 315.088 313.184 309.731 313.184 309.731C319.074 308.324 318.922 303.955 317.896 299.851L327.972 291.246Z" fill="#FF8B7B"/>
<path d="M317.593 315.078C317.593 315.078 320.065 317.438 321.149 320.549C323.038 319.882 332.788 314.521 332.982 309.549C331.794 309.157 329.038 308.716 329.038 308.716C329.038 308.716 324.982 312.911 317.593 315.078Z" fill="#407BFF"/>
<path d="M317.593 315.078C317.593 315.078 315.44 317.397 314.038 320.549C311.337 318.855 308.468 315.125 310.545 309.875C312.024 309.219 315.04 309.106 315.04 309.106C315.04 309.106 310.204 312.911 317.593 315.078Z" fill="#407BFF"/>
<path opacity="0.2" d="M323.864 294.757L317.9 299.846C318.146 300.817 318.338 301.802 318.406 302.76C320.656 302.435 323.747 299.965 323.986 297.609C324.105 296.433 324.056 295.304 323.864 294.757Z" fill="black"/>
<path d="M333.543 281.557C331.472 290.145 330.779 293.824 325.604 297.504C317.821 303.039 307.725 298.617 307.189 289.583C306.706 281.452 310.174 268.774 319.285 266.824C328.261 264.903 335.614 272.969 333.543 281.557Z" fill="#FF8B7B"/>
<path d="M318.949 280.385C318.824 281.092 318.348 281.599 317.886 281.517C317.424 281.435 317.151 280.796 317.276 280.089C317.401 279.382 317.877 278.875 318.34 278.957C318.801 279.039 319.074 279.678 318.949 280.385Z" fill="#263238"/>
<path d="M310.958 278.97C310.833 279.677 310.357 280.184 309.895 280.102C309.433 280.02 309.16 279.381 309.285 278.674C309.41 277.967 309.886 277.46 310.349 277.542C310.81 277.623 311.083 278.263 310.958 278.97Z" fill="#263238"/>
<path d="M310.545 277.617L308.934 276.827C308.934 276.827 309.57 278.307 310.545 277.617Z" fill="#263238"/>
<path d="M313.85 281.825C313.85 281.825 312.111 284.656 310.531 285.891C311.31 286.927 312.967 286.81 312.967 286.81L313.85 281.825Z" fill="#FF5652"/>
<path d="M316.165 290.143C318.75 290.143 320.227 288.602 320.297 288.528C320.376 288.443 320.372 288.31 320.287 288.23C320.202 288.15 320.069 288.155 319.989 288.239C319.971 288.258 318.128 290.168 315.035 289.619C314.919 289.601 314.811 289.675 314.791 289.79C314.771 289.905 314.847 290.014 314.962 290.034C315.386 290.11 315.787 290.143 316.165 290.143Z" fill="#263238"/>
<path d="M337.046 284.115C332.613 291.489 320.736 276.063 318.77 268.599C315.854 270.047 309.869 274.299 309.739 271.539C309.61 268.779 319.831 263.995 325.278 264.844C330.725 265.692 340.102 279.032 337.046 284.115Z" fill="#263238"/>
<path d="M334.905 288.421C334.214 290.117 332.805 291.336 331.408 291.898C329.308 292.743 328.01 290.924 328.386 288.812C328.725 286.911 330.226 284.181 332.433 284.236C334.609 284.29 335.695 286.482 334.905 288.421Z" fill="#FF8B7B"/>
<path d="M321.703 277.313C321.768 277.313 321.833 277.298 321.895 277.266C322.102 277.161 322.184 276.906 322.079 276.699C321.018 274.621 319.084 274.395 319.002 274.387C318.768 274.361 318.563 274.531 318.538 274.762C318.514 274.993 318.681 275.2 318.911 275.225C318.975 275.232 320.48 275.424 321.327 277.083C321.402 277.229 321.55 277.313 321.703 277.313Z" fill="#263238"/>
<path d="M309.051 275.918C309.162 275.918 309.273 275.875 309.356 275.788C310.656 274.429 312.185 274.697 312.201 274.7C312.428 274.743 312.65 274.592 312.693 274.363C312.736 274.134 312.585 273.913 312.356 273.871C312.275 273.857 310.358 273.519 308.746 275.205C308.585 275.374 308.591 275.641 308.76 275.801C308.841 275.879 308.946 275.918 309.051 275.918Z" fill="#263238"/>
<path d="M318.536 279.032L316.925 278.242C316.925 278.242 317.561 279.722 318.536 279.032Z" fill="#263238"/>
<path d="M348.856 321.267C350.88 326.185 352.534 331.037 353.982 336.081C355.403 341.121 356.652 346.227 357.254 351.643L357.457 353.681L357.557 355.771L357.581 356.293L357.587 356.423L357.59 356.629L357.573 357.189C357.514 357.93 357.345 358.632 357.111 359.255C356.631 360.483 355.965 361.395 355.311 362.099C353.986 363.51 352.666 364.352 351.377 365.106C350.089 365.851 348.798 366.412 347.523 366.934C342.403 368.946 337.356 370.065 332.112 370.792L331.076 366.404C335.674 364.645 340.376 362.731 344.486 360.482C345.507 359.92 346.475 359.308 347.336 358.697C348.187 358.093 348.939 357.413 349.285 356.904C349.466 356.654 349.504 356.483 349.467 356.519C349.442 356.542 349.405 356.619 349.392 356.726C349.384 356.753 349.379 356.782 349.379 356.81L349.38 356.831L349.374 356.778L349.362 356.671L349.315 356.243L349.133 354.534L348.853 352.793C348.681 351.638 348.408 350.452 348.184 349.283C347.896 348.104 347.658 346.929 347.326 345.75C346.736 343.392 346.038 341.027 345.319 338.674C343.822 333.996 342.171 329.23 340.431 324.71L348.856 321.267Z" fill="#FF8B7B"/>
<path d="M344.95 311.752C348.572 312.853 352.922 325.325 352.922 325.325L338.87 335.372C338.87 335.372 333.745 324.961 335.267 320.279C336.853 315.404 340.817 310.496 344.95 311.752Z" fill="#263238"/>
</g>
</svg>
